<svg width="289" height="223" viewBox="0 0 289 223" fill="none" xmlns="http://www.w3.org/2000/svg">
<g filter="url(#filter0_d_413_2497)">
<path d="M287 194.919H2V195.063H287V194.919Z" fill="#E0E0E0"/>
<path d="M47.5032 203.92H31.9023V204.064H47.5032V203.92Z" fill="#E0E0E0"/>
<path d="M56.2131 203.92H51.2598V204.064H56.2131V203.92Z" fill="#E0E0E0"/>
<path d="M144.499 201.94H133.464V202.083H144.499V201.94Z" fill="#E0E0E0"/>
<path d="M240.236 201.865H215.618V202.009H240.236V201.865Z" fill="#E0E0E0"/>
<path d="M248.924 201.865H245.315V202.009H248.924V201.865Z" fill="#E0E0E0"/>
<path d="M196.182 198.467H142.784V198.611H196.182V198.467Z" fill="#E0E0E0"/>
<path d="M137.089 169.318H27.0273C26.1651 169.316 25.3387 168.97 24.7296 168.356C24.1204 167.741 23.7783 166.908 23.7783 166.04V10.2315C23.7858 9.36816 24.1313 8.54268 24.7396 7.93435C25.3479 7.32601 26.17 6.98396 27.0273 6.98248H137.089C137.952 6.98248 138.78 7.32781 139.39 7.9425C140 8.55719 140.343 9.39088 140.343 10.2602V166.04C140.343 166.909 140 167.743 139.39 168.358C138.78 168.972 137.952 169.318 137.089 169.318ZM27.0273 7.09729C26.2029 7.09881 25.4128 7.42969 24.8303 8.0173C24.2479 8.60491 23.9208 9.40124 23.9208 10.2315V166.04C23.9208 166.87 24.2479 167.667 24.8303 168.254C25.4128 168.842 26.2029 169.173 27.0273 169.174H137.089C137.914 169.173 138.704 168.842 139.288 168.255C139.871 167.667 140.199 166.871 140.201 166.04V10.2315C140.199 9.40071 139.871 8.6044 139.288 8.01695C138.704 7.4295 137.914 7.09881 137.089 7.09729H27.0273Z" fill="#E0E0E0"/>
<path d="M260.387 169.318H150.32C149.457 169.316 148.63 168.97 148.02 168.356C147.41 167.742 147.067 166.909 147.065 166.04V10.2315C147.074 9.36764 147.421 8.54216 148.03 7.93399C148.64 7.32581 149.462 6.98395 150.32 6.98248H260.387C261.243 6.98547 262.064 7.32819 262.671 7.93636C263.278 8.54453 263.623 9.36915 263.63 10.2315V166.04C263.63 166.907 263.289 167.739 262.681 168.354C262.073 168.968 261.248 169.315 260.387 169.318ZM150.32 7.09729C149.495 7.09881 148.704 7.4295 148.121 8.01695C147.538 8.6044 147.209 9.40071 147.208 10.2315V166.04C147.209 166.871 147.538 167.667 148.121 168.255C148.704 168.842 149.495 169.173 150.32 169.174H260.387C261.212 169.173 262.003 168.842 262.586 168.255C263.169 167.667 263.498 166.871 263.499 166.04V10.2315C263.498 9.40071 263.169 8.6044 262.586 8.01695C262.003 7.4295 261.212 7.09881 260.387 7.09729H150.32Z" fill="#E0E0E0"/>
<path d="M179.965 4.68635C179.966 4.05958 180.214 3.45891 180.654 3.01572C181.094 2.57252 181.691 2.32287 182.313 2.32135H255.461C256.084 2.32287 256.68 2.57252 257.12 3.01572C257.56 3.45891 257.808 4.05958 257.81 4.68635V12.2807H179.965V4.68635Z" fill="#E0E0E0"/>
<path d="M197.173 7.29249C197.172 7.64695 197.275 7.99378 197.47 8.28906C197.665 8.58434 197.942 8.81478 198.267 8.95122C198.592 9.08765 198.949 9.12394 199.295 9.05548C199.64 8.98703 199.957 8.81691 200.207 8.56667C200.456 8.31643 200.626 7.99732 200.695 7.64975C200.764 7.30218 200.729 6.94178 200.595 6.61419C200.46 6.2866 200.232 6.00655 199.94 5.8095C199.647 5.61245 199.303 5.50727 198.951 5.50726C198.481 5.50726 198.029 5.69516 197.696 6.0298C197.362 6.36443 197.174 6.81849 197.173 7.29249Z" fill="white"/>
<path d="M190.881 7.29249C190.88 7.64695 190.983 7.99378 191.178 8.28906C191.373 8.58434 191.65 8.81478 191.975 8.95122C192.3 9.08765 192.657 9.12394 193.003 9.05548C193.348 8.98703 193.665 8.81691 193.915 8.56667C194.164 8.31643 194.334 7.99732 194.403 7.64975C194.472 7.30218 194.437 6.94178 194.303 6.61419C194.168 6.2866 193.94 6.00655 193.648 5.8095C193.355 5.61245 193.011 5.50727 192.659 5.50726C192.189 5.50726 191.737 5.69516 191.404 6.0298C191.07 6.36443 190.882 6.81849 190.881 7.29249Z" fill="white"/>
<path d="M184.588 7.29249C184.587 7.64695 184.69 7.99378 184.885 8.28906C185.08 8.58434 185.357 8.81478 185.682 8.95122C186.007 9.08765 186.364 9.12394 186.71 9.05548C187.055 8.98703 187.373 8.81691 187.622 8.56667C187.871 8.31643 188.041 7.99732 188.11 7.64975C188.179 7.30218 188.144 6.94178 188.01 6.61419C187.875 6.2866 187.648 6.00655 187.355 5.8095C187.062 5.61245 186.718 5.50727 186.366 5.50726C185.896 5.50726 185.444 5.69516 185.111 6.0298C184.777 6.36443 184.589 6.81849 184.588 7.29249Z" fill="white"/>
<path d="M255.461 63.5529H182.313C181.691 63.5514 181.094 63.3018 180.654 62.8586C180.214 62.4154 179.966 61.8147 179.965 61.1879V12.2807H257.81V61.1879C257.808 61.8147 257.56 62.4154 257.12 62.8586C256.68 63.3018 256.084 63.5514 255.461 63.5529Z" fill="#F0F0F0"/>
<path d="M174.711 12.585C174.712 11.9583 174.96 11.3576 175.4 10.9144C175.841 10.4712 176.437 10.2215 177.059 10.22H250.225C250.847 10.2215 251.443 10.4712 251.883 10.9144C252.324 11.3576 252.571 11.9583 252.573 12.585V20.1852H174.711V12.585Z" fill="#F0F0F0"/>
<path d="M191.935 15.2083C191.933 15.563 192.037 15.9101 192.232 16.2055C192.427 16.5009 192.705 16.7313 193.03 16.8676C193.355 17.0039 193.713 17.0398 194.059 16.9709C194.404 16.902 194.721 16.7313 194.97 16.4805C195.22 16.2297 195.389 15.91 195.457 15.5621C195.526 15.2141 195.49 14.8535 195.355 14.526C195.22 14.1986 194.991 13.9189 194.697 13.7225C194.404 13.5262 194.059 13.422 193.707 13.4231C193.238 13.4246 192.788 13.6132 192.455 13.9477C192.123 14.2821 191.936 14.7353 191.935 15.2083Z" fill="#E0E0E0"/>
<path d="M185.644 15.2083C185.642 15.5628 185.746 15.9096 185.941 16.2049C186.135 16.5002 186.413 16.7306 186.737 16.8671C187.062 17.0035 187.42 17.0398 187.765 16.9713C188.111 16.9029 188.428 16.7327 188.677 16.4825C188.927 16.2323 189.097 15.9132 189.166 15.5656C189.235 15.218 189.2 14.8576 189.066 14.53C188.931 14.2024 188.703 13.9224 188.411 13.7253C188.118 13.5283 187.774 13.4231 187.422 13.4231C186.951 13.4231 186.5 13.611 186.166 13.9456C185.833 14.2803 185.645 14.7343 185.644 15.2083Z" fill="#E0E0E0"/>
<path d="M179.349 15.2083C179.348 15.5628 179.451 15.9096 179.646 16.2049C179.84 16.5002 180.118 16.7306 180.443 16.8671C180.767 17.0035 181.125 17.0398 181.47 16.9713C181.816 16.9029 182.133 16.7327 182.383 16.4825C182.632 16.2323 182.802 15.9132 182.871 15.5656C182.94 15.218 182.905 14.8576 182.771 14.53C182.636 14.2024 182.408 13.9224 182.116 13.7253C181.823 13.5283 181.479 13.4231 181.127 13.4231C180.656 13.4231 180.205 13.611 179.872 13.9456C179.538 14.2803 179.35 14.7343 179.349 15.2083Z" fill="#E0E0E0"/>
<path d="M250.224 71.4688H177.07C176.448 71.4673 175.851 71.2176 175.411 70.7744C174.971 70.3313 174.723 69.7306 174.722 69.1038V20.1851H252.572V69.0923C252.573 69.4037 252.513 69.7121 252.395 70C252.278 70.2879 252.105 70.5497 251.887 70.7704C251.669 70.9911 251.41 71.1663 251.124 71.2862C250.839 71.406 250.533 71.4681 250.224 71.4688Z" fill="#FAFAFA"/>
<path d="M169.482 20.5008C169.483 20.188 169.545 19.8785 169.665 19.59C169.785 19.3015 169.961 19.0398 170.182 18.82C170.403 18.6001 170.665 18.4265 170.953 18.3091C171.241 18.1917 171.549 18.1328 171.859 18.1358H244.985C245.607 18.1373 246.203 18.387 246.644 18.8302C247.084 19.2734 247.332 19.874 247.333 20.5008V28.1124H169.482V20.5008Z" fill="#FAFAFA"/>
<path d="M186.68 23.1241C186.68 23.4778 186.784 23.8236 186.979 24.1179C187.174 24.4121 187.451 24.6417 187.775 24.7776C188.099 24.9135 188.456 24.9496 188.801 24.8814C189.146 24.8132 189.462 24.6438 189.712 24.3945C189.961 24.1452 190.131 23.8271 190.201 23.4805C190.271 23.1338 190.237 22.7741 190.104 22.4466C189.972 22.1192 189.745 21.8387 189.454 21.6405C189.163 21.4423 188.821 21.3354 188.469 21.3331C188.235 21.3316 188.003 21.3768 187.785 21.4661C187.568 21.5555 187.371 21.6871 187.205 21.8536C187.038 22.02 186.906 22.218 186.816 22.436C186.726 22.6541 186.68 22.8879 186.68 23.1241Z" fill="#F0F0F0"/>
<path d="M180.41 23.1241C180.41 23.4788 180.515 23.8255 180.711 24.1203C180.907 24.415 181.185 24.6446 181.511 24.7798C181.836 24.915 182.194 24.9498 182.54 24.8797C182.885 24.8097 183.202 24.638 183.45 24.3864C183.698 24.1347 183.867 23.8146 183.934 23.4664C184.001 23.1182 183.965 22.7578 183.828 22.4307C183.692 22.1037 183.462 21.8248 183.168 21.6293C182.874 21.4339 182.529 21.3308 182.177 21.3331C181.707 21.3361 181.258 21.5262 180.927 21.8617C180.596 22.1973 180.41 22.6511 180.41 23.1241Z" fill="#F0F0F0"/>
<path d="M175.885 24.9151C176.867 24.9151 177.663 24.1133 177.663 23.1242C177.663 22.135 176.867 21.3332 175.885 21.3332C174.903 21.3332 174.106 22.135 174.106 23.1242C174.106 24.1133 174.903 24.9151 175.885 24.9151Z" fill="#F0F0F0"/>
<path d="M244.984 79.3847H171.859C171.237 79.3832 170.64 79.1335 170.2 78.6903C169.76 78.2472 169.512 77.6465 169.511 77.0197V28.1125H247.333V77.014C247.333 77.6417 247.086 78.2439 246.645 78.6883C246.205 79.1328 245.608 79.3832 244.984 79.3847Z" fill="#E0E0E0"/>
<path d="M47.1035 48.8177C47.108 48.2294 47.3416 47.6663 47.7542 47.2498C48.1668 46.8332 48.7252 46.5965 49.3094 46.5905H159.565C160.154 46.592 160.718 46.8283 161.135 47.2478C161.551 47.6673 161.786 48.2359 161.788 48.8292V56.0504H47.1035V48.8177Z" fill="#E0E0E0"/>
<path d="M65.1158 53.1516C64.754 53.1516 64.4002 53.0435 64.0993 52.841C63.7984 52.6386 63.5639 52.3508 63.4254 52.0141C63.2869 51.6774 63.2507 51.3069 63.3213 50.9495C63.3919 50.592 63.5662 50.2637 63.822 50.006C64.0779 49.7483 64.4039 49.5728 64.7589 49.5017C65.1138 49.4306 65.4817 49.4671 65.816 49.6066C66.1504 49.746 66.4361 49.9822 66.6372 50.2852C66.8382 50.5882 66.9455 50.9445 66.9455 51.3089C66.9455 51.7976 66.7528 52.2663 66.4096 52.6119C66.0665 52.9574 65.6011 53.1516 65.1158 53.1516ZM65.1158 49.7591C64.8112 49.7579 64.5131 49.8479 64.2593 50.0175C64.0054 50.1871 63.8073 50.4287 63.6899 50.7118C63.5726 50.9949 63.5413 51.3067 63.6 51.6078C63.6587 51.9088 63.8049 52.1855 64.0199 52.4028C64.2349 52.6201 64.5091 52.7683 64.8078 52.8286C65.1065 52.8889 65.4162 52.8585 65.6978 52.7414C65.9793 52.6242 66.22 52.4256 66.3894 52.1706C66.5587 51.9156 66.6491 51.6157 66.6491 51.3089C66.6491 50.8989 66.4878 50.5055 66.2004 50.215C65.913 49.9245 65.523 49.7606 65.1158 49.7591Z" fill="white"/>
<path d="M59.149 53.1516C58.7872 53.1516 58.4334 53.0435 58.1325 52.841C57.8316 52.6386 57.5971 52.3508 57.4586 52.0141C57.3201 51.6774 57.2839 51.3069 57.3545 50.9495C57.4251 50.592 57.5994 50.2637 57.8552 50.006C58.1111 49.7483 58.4372 49.5728 58.7921 49.5017C59.147 49.4306 59.5149 49.4671 59.8492 49.6066C60.1836 49.746 60.4693 49.9822 60.6704 50.2852C60.8714 50.5882 60.9787 50.9445 60.9787 51.3089C60.9787 51.7976 60.786 52.2663 60.4428 52.6119C60.0997 52.9574 59.6343 53.1516 59.149 53.1516ZM59.149 49.7591C58.8447 49.7591 58.5471 49.85 58.294 50.0203C58.0409 50.1906 57.8437 50.4326 57.7272 50.7158C57.6107 50.999 57.5802 51.3107 57.6396 51.6113C57.699 51.912 57.8456 52.1881 58.0608 52.4049C58.276 52.6216 58.5503 52.7692 58.8488 52.829C59.1473 52.8888 59.4568 52.8581 59.738 52.7408C60.0192 52.6235 60.2596 52.4249 60.4287 52.17C60.5978 51.9151 60.688 51.6155 60.688 51.3089C60.688 50.8979 60.5259 50.5037 60.2373 50.213C59.9487 49.9223 59.5572 49.7591 59.149 49.7591Z" fill="white"/>
<path d="M53.1813 53.1516C52.8194 53.1516 52.4656 53.0435 52.1647 52.841C51.8638 52.6386 51.6293 52.3508 51.4908 52.0141C51.3524 51.6774 51.3161 51.3069 51.3867 50.9495C51.4573 50.592 51.6316 50.2637 51.8875 50.006C52.1434 49.7483 52.4694 49.5728 52.8243 49.5017C53.1792 49.4306 53.5471 49.4671 53.8815 49.6066C54.2158 49.746 54.5016 49.9822 54.7026 50.2852C54.9037 50.5882 55.011 50.9445 55.011 51.3089C55.011 51.7976 54.8182 52.2663 54.4751 52.6119C54.1319 52.9574 53.6665 53.1516 53.1813 53.1516ZM53.1813 49.7591C52.8769 49.7591 52.5793 49.85 52.3262 50.0203C52.0732 50.1906 51.8759 50.4326 51.7594 50.7158C51.6429 50.999 51.6125 51.3107 51.6718 51.6113C51.7312 51.912 51.8778 52.1881 52.093 52.4049C52.3083 52.6216 52.5825 52.7692 52.881 52.829C53.1796 52.8888 53.489 52.8581 53.7702 52.7408C54.0514 52.6235 54.2918 52.4249 54.4609 52.17C54.63 51.9151 54.7203 51.6155 54.7203 51.3089C54.7203 51.1054 54.6805 50.9039 54.6031 50.7158C54.5258 50.5278 54.4124 50.3569 54.2695 50.213C54.1266 50.0691 53.9569 49.9549 53.7702 49.877C53.5835 49.7991 53.3834 49.7591 53.1813 49.7591Z" fill="white"/>
<path d="M159.565 116.048H49.3098C48.7191 116.046 48.1531 115.809 47.7355 115.389C47.3179 114.968 47.0826 114.398 47.0811 113.803V56.0389H161.765V113.821C161.761 114.408 161.528 114.97 161.116 115.386C160.705 115.803 160.148 116.04 159.565 116.048Z" fill="#F0F0F0"/>
<path d="M42.1338 64.0466C42.1353 63.4518 42.3706 62.8818 42.7882 62.4612C43.2059 62.0407 43.7719 61.8037 44.3625 61.8022H154.595C155.185 61.8037 155.75 62.0408 156.167 62.4616C156.584 62.8823 156.818 63.4524 156.818 64.0466V71.2737H42.1338V64.0466Z" fill="#FAFAFA"/>
<path d="M60.1393 68.4035C59.7774 68.4035 59.4236 68.2955 59.1227 68.093C58.8219 67.8905 58.5873 67.6027 58.4489 67.266C58.3104 66.9293 58.2741 66.5588 58.3447 66.2014C58.4153 65.844 58.5896 65.5157 58.8455 65.258C59.1014 65.0003 59.4274 64.8248 59.7823 64.7537C60.1372 64.6826 60.5051 64.7191 60.8395 64.8585C61.1738 64.998 61.4596 65.2342 61.6606 65.5372C61.8617 65.8402 61.969 66.1965 61.969 66.5609C61.969 67.0496 61.7762 67.5183 61.4331 67.8638C61.0899 68.2094 60.6245 68.4035 60.1393 68.4035ZM60.1393 65.011C59.8349 65.011 59.5373 65.1019 59.2843 65.2722C59.0312 65.4425 58.8339 65.6846 58.7174 65.9678C58.6009 66.251 58.5705 66.5626 58.6298 66.8633C58.6892 67.1639 58.8358 67.4401 59.051 67.6568C59.2663 67.8736 59.5405 68.0212 59.839 68.081C60.1376 68.1408 60.447 68.1101 60.7282 67.9928C61.0094 67.8755 61.2498 67.6768 61.4189 67.422C61.588 67.1671 61.6783 66.8674 61.6783 66.5609C61.6852 66.3531 61.6504 66.1459 61.5762 65.9519C61.5019 65.7579 61.3897 65.5808 61.2461 65.4314C61.1025 65.282 60.9305 65.1632 60.7403 65.0821C60.5502 65.001 60.3458 64.9592 60.1393 64.9594V65.011Z" fill="#E0E0E0"/>
<path d="M54.1783 68.4035C53.8165 68.4035 53.4627 68.2955 53.1618 68.093C52.8609 67.8905 52.6264 67.6027 52.4879 67.266C52.3494 66.9293 52.3132 66.5588 52.3838 66.2014C52.4544 65.844 52.6287 65.5157 52.8845 65.258C53.1404 65.0003 53.4664 64.8248 53.8214 64.7537C54.1763 64.6826 54.5442 64.7191 54.8785 64.8585C55.2129 64.998 55.4986 65.2342 55.6997 65.5372C55.9007 65.8402 56.008 66.1965 56.008 66.5609C56.008 67.0496 55.8153 67.5183 55.4721 67.8638C55.129 68.2094 54.6636 68.4035 54.1783 68.4035ZM54.1783 65.011C53.8739 65.011 53.5764 65.1019 53.3233 65.2722C53.0702 65.4425 52.873 65.6846 52.7565 65.9678C52.64 66.251 52.6095 66.5626 52.6689 66.8633C52.7283 67.1639 52.8749 67.4401 53.0901 67.6568C53.3053 67.8736 53.5796 68.0212 53.8781 68.081C54.1766 68.1408 54.4861 68.1101 54.7673 67.9928C55.0485 67.8755 55.2889 67.6768 55.458 67.422C55.6271 67.1671 55.7173 66.8674 55.7173 66.5609C55.7242 66.3531 55.6895 66.1459 55.6152 65.9519C55.541 65.7579 55.4287 65.5808 55.2851 65.4314C55.1415 65.282 54.9695 65.1632 54.7794 65.0821C54.5892 65.001 54.3848 64.9592 54.1783 64.9594V65.011Z" fill="#E0E0E0"/>
<path d="M48.2096 68.4035C47.8477 68.4035 47.494 68.2955 47.1931 68.093C46.8922 67.8905 46.6576 67.6027 46.5192 67.266C46.3807 66.9293 46.3444 66.5588 46.415 66.2014C46.4856 65.844 46.6599 65.5157 46.9158 65.258C47.1717 65.0003 47.4977 64.8248 47.8526 64.7537C48.2076 64.6826 48.5754 64.7191 48.9098 64.8585C49.2441 64.998 49.5299 65.2342 49.7309 65.5372C49.932 65.8402 50.0393 66.1965 50.0393 66.5609C50.0393 67.0496 49.8465 67.5183 49.5034 67.8638C49.1602 68.2094 48.6949 68.4035 48.2096 68.4035ZM48.2096 65.011C47.9052 65.011 47.6076 65.1019 47.3546 65.2722C47.1015 65.4425 46.9042 65.6846 46.7877 65.9678C46.6712 66.251 46.6408 66.5626 46.7002 66.8633C46.7595 67.1639 46.9061 67.4401 47.1213 67.6568C47.3366 67.8736 47.6108 68.0212 47.9093 68.081C48.2079 68.1408 48.5173 68.1101 48.7985 67.9928C49.0798 67.8755 49.3201 67.6768 49.4892 67.422C49.6583 67.1671 49.7486 66.8674 49.7486 66.5609C49.7555 66.3531 49.7207 66.1459 49.6465 65.9519C49.5722 65.7579 49.46 65.5808 49.3164 65.4314C49.1728 65.282 49.0008 65.1632 48.8106 65.0821C48.6205 65.001 48.4161 64.9592 48.2096 64.9594V65.011Z" fill="#E0E0E0"/>
<path d="M154.595 142.683H44.3625C43.7719 142.681 43.2059 142.444 42.7882 142.024C42.3706 141.603 42.1353 141.033 42.1338 140.438V71.2736H156.818V140.438C156.818 141.033 156.584 141.603 156.167 142.023C155.75 142.444 155.185 142.681 154.595 142.683Z" fill="#F0F0F0"/>
<path d="M79.7829 9.76072H39.6207C39.0059 9.75921 38.4167 9.51258 37.9819 9.07476C37.5472 8.63695 37.3023 8.04359 37.3008 7.42443C37.3038 6.80627 37.5494 6.21437 37.9839 5.7778C38.4185 5.34122 39.0069 5.09538 39.6207 5.09387H79.7943C80.4071 5.09689 80.994 5.3434 81.4274 5.77981C81.8607 6.21622 82.1055 6.80726 82.1085 7.42443C82.107 8.04458 81.8613 8.63881 81.4253 9.07679C80.9893 9.51476 80.3987 9.76073 79.7829 9.76072Z" fill="#E0E0E0"/>
<path d="M96.4662 19.5422L39.7341 19.3126C39.1252 19.3005 38.5454 19.0485 38.1191 18.6106C37.6927 18.1726 37.454 17.5838 37.4541 16.9705C37.4571 16.3519 37.7036 15.7597 38.1396 15.3239C38.5756 14.8881 39.1654 14.6442 39.7797 14.6457L96.5061 14.8753C97.1199 14.8799 97.7071 15.1286 98.1395 15.5673C98.5719 16.0061 98.8146 16.5992 98.8146 17.2173C98.8131 17.5256 98.7511 17.8305 98.632 18.1146C98.513 18.3986 98.3393 18.656 98.121 18.8721C97.9027 19.0883 97.6441 19.2587 97.3601 19.3737C97.0761 19.4887 96.7723 19.546 96.4662 19.5422Z" fill="#F0F0F0"/>
<path d="M66.2682 30.3511H39.6207C39.0059 30.3496 38.4167 30.103 37.9819 29.6652C37.5472 29.2273 37.3023 28.634 37.3008 28.0148C37.3038 27.3967 37.5494 26.8048 37.9839 26.3682C38.4185 25.9316 39.0069 25.6858 39.6207 25.6843H66.2796C66.8934 25.6858 67.4818 25.9316 67.9163 26.3682C68.3509 26.8048 68.5965 27.3967 68.5995 28.0148C68.5987 28.3224 68.5378 28.6268 68.4203 28.9106C68.3027 29.1945 68.1308 29.4523 67.9143 29.6692C67.6978 29.8862 67.441 30.058 67.1586 30.175C66.8761 30.292 66.5736 30.3519 66.2682 30.3511Z" fill="#E6E6E6"/>
<path d="M250.429 96.4047H238.054C237.587 96.4032 237.139 96.216 236.808 95.8838C236.477 95.5517 236.29 95.1014 236.287 94.6309C236.29 94.1599 236.477 93.709 236.808 93.376C237.139 93.0429 237.586 92.8545 238.054 92.8514H250.429C250.896 92.8545 251.343 93.0431 251.673 93.3763C252.003 93.7096 252.189 94.1604 252.19 94.6309C252.189 95.1009 252.003 95.5512 251.673 95.8835C251.343 96.2158 250.895 96.4032 250.429 96.4047Z" fill="#E0E0E0"/>
<path d="M256.306 100.44H238.048C237.076 100.44 236.287 101.234 236.287 102.214V102.219C236.287 103.199 237.076 103.993 238.048 103.993H256.306C257.278 103.993 258.067 103.199 258.067 102.219V102.214C258.067 101.234 257.278 100.44 256.306 100.44Z" fill="#F0F0F0"/>
<path d="M245.629 112.081H238.054C237.821 112.083 237.59 112.038 237.374 111.95C237.159 111.862 236.962 111.731 236.797 111.567C236.631 111.402 236.499 111.206 236.409 110.99C236.318 110.774 236.271 110.542 236.27 110.308C236.273 109.837 236.46 109.386 236.79 109.053C237.121 108.72 237.569 108.531 238.037 108.528H245.612C246.08 108.53 246.529 108.718 246.86 109.051C247.191 109.384 247.377 109.836 247.379 110.308C247.377 110.776 247.193 111.224 246.865 111.556C246.538 111.888 246.094 112.077 245.629 112.081Z" fill="#E6E6E6"/>
<path d="M250.839 119.664H238.054C237.587 119.663 237.139 119.476 236.808 119.143C236.477 118.811 236.29 118.361 236.287 117.89C236.29 117.419 236.477 116.969 236.808 116.635C237.139 116.302 237.586 116.114 238.054 116.111H250.839C251.306 116.114 251.754 116.303 252.083 116.636C252.413 116.969 252.599 117.42 252.601 117.89C252.599 118.36 252.413 118.811 252.083 119.143C251.753 119.475 251.306 119.663 250.839 119.664Z" fill="#F0F0F0"/>
<path d="M248.81 127.758H238.054C237.587 127.757 237.139 127.569 236.808 127.237C236.477 126.905 236.29 126.455 236.287 125.984C236.29 125.513 236.477 125.062 236.808 124.729C237.139 124.396 237.586 124.208 238.054 124.205H248.81C249.278 124.208 249.725 124.396 250.056 124.729C250.387 125.062 250.574 125.513 250.577 125.984C250.574 126.455 250.387 126.905 250.056 127.237C249.725 127.569 249.277 127.757 248.81 127.758Z" fill="#E6E6E6"/>
<path d="M208.026 105.767H171.244C170.776 105.766 170.328 105.577 169.998 105.244C169.668 104.91 169.482 104.459 169.482 103.988C169.484 103.518 169.67 103.067 170 102.735C170.33 102.403 170.777 102.215 171.244 102.214H208.026C208.493 102.215 208.94 102.403 209.27 102.735C209.6 103.067 209.786 103.518 209.787 103.988C209.787 104.459 209.602 104.91 209.272 105.244C208.941 105.577 208.493 105.766 208.026 105.767Z" fill="#E0E0E0"/>
<path d="M222.914 113.35H171.244C170.777 113.348 170.33 113.161 170 112.829C169.67 112.496 169.484 112.046 169.482 111.576C169.482 111.105 169.668 110.654 169.998 110.32C170.328 109.986 170.776 109.798 171.244 109.797H222.914C223.382 109.798 223.831 109.986 224.162 110.32C224.493 110.653 224.68 111.105 224.681 111.576C224.678 112.047 224.491 112.497 224.16 112.829C223.829 113.161 223.381 113.348 222.914 113.35Z" fill="#F0F0F0"/>
<path d="M195.868 121.444H171.244C170.776 121.442 170.328 121.254 169.998 120.921C169.668 120.587 169.482 120.135 169.482 119.664C169.484 119.194 169.67 118.744 170 118.412C170.33 118.079 170.777 117.892 171.244 117.891H195.868C196.335 117.892 196.783 118.079 197.114 118.411C197.444 118.743 197.632 119.194 197.635 119.664C197.633 120.136 197.447 120.587 197.116 120.921C196.784 121.254 196.336 121.442 195.868 121.444Z" fill="#E6E6E6"/>
<path d="M209.063 129.027H171.244C170.776 129.025 170.328 128.837 169.998 128.503C169.668 128.17 169.482 127.718 169.482 127.247C169.484 126.777 169.67 126.327 170 125.995C170.33 125.662 170.777 125.475 171.244 125.473H209.063C209.531 125.473 209.979 125.66 210.311 125.993C210.642 126.325 210.829 126.776 210.83 127.247C210.83 127.481 210.785 127.712 210.696 127.928C210.607 128.144 210.477 128.34 210.313 128.505C210.149 128.671 209.954 128.802 209.739 128.891C209.525 128.981 209.295 129.027 209.063 129.027Z" fill="#F0F0F0"/>
<path d="M203.853 137.12H171.244C170.776 137.119 170.328 136.931 169.998 136.597C169.668 136.264 169.482 135.812 169.482 135.341C169.484 134.871 169.67 134.421 170 134.088C170.33 133.756 170.777 133.569 171.244 133.567H203.853C204.32 133.569 204.767 133.756 205.097 134.088C205.427 134.421 205.613 134.871 205.615 135.341C205.615 135.812 205.429 136.264 205.099 136.597C204.769 136.931 204.321 137.119 203.853 137.12Z" fill="#E6E6E6"/>
<path d="M144.501 220.843C205.538 220.843 255.018 217.933 255.018 214.345C255.018 210.756 205.538 207.847 144.501 207.847C83.4637 207.847 33.9834 210.756 33.9834 214.345C33.9834 217.933 83.4637 220.843 144.501 220.843Z" fill="#F5F5F5"/>
<path opacity="0.7" d="M201.711 175.046H131.464C129.131 175.06 126.82 174.591 124.675 173.669C122.529 172.746 120.595 171.389 118.991 169.682C117.388 167.976 116.15 165.956 115.354 163.747C114.558 161.539 114.221 159.189 114.364 156.844L120.372 41.3724C120.868 31.3614 129.423 23.17 139.37 23.17H209.617C211.952 23.1522 214.266 23.6182 216.415 24.5392C218.564 25.4602 220.502 26.8163 222.108 28.5234C223.714 30.2306 224.955 32.2521 225.753 34.4625C226.551 36.673 226.888 39.025 226.745 41.3724L220.732 156.844C220.213 166.855 211.652 175.046 201.711 175.046Z" fill="#407BFF"/>
<path d="M160.226 16.517H155.854V17.0906H160.226V16.517Z" fill="#407BFF"/>
<path d="M152.121 16.517H136.919V17.0906H152.121V16.517Z" fill="#407BFF"/>
<path d="M112.778 55.8915L112.55 60.2422L113.119 60.2726L113.348 55.9218L112.778 55.8915Z" fill="#407BFF"/>
<path opacity="0.6" d="M197.669 170.982H127.399C125.067 170.996 122.756 170.527 120.611 169.605C118.466 168.683 116.532 167.326 114.929 165.62C113.326 163.914 112.087 161.895 111.291 159.687C110.495 157.479 110.157 155.13 110.299 152.786L116.313 37.3083C116.831 27.2972 125.393 19.1058 135.334 19.1058H205.575C207.91 19.088 210.224 19.5541 212.373 20.4751C214.522 21.396 216.46 22.7522 218.066 24.4593C219.672 26.1664 220.913 28.188 221.711 30.3984C222.508 32.6088 222.846 34.9608 222.703 37.3083L216.695 152.786C216.171 162.791 207.61 170.982 197.669 170.982Z" fill="#407BFF"/>
<mask id="mask0_413_2497" style="mask-type:luminance" maskUnits="userSpaceOnUse" x="110" y="19" width="113" height="152">
<path d="M197.669 170.982H127.399C125.067 170.996 122.756 170.527 120.611 169.605C118.466 168.683 116.532 167.326 114.929 165.62C113.326 163.914 112.087 161.895 111.291 159.687C110.495 157.479 110.157 155.13 110.299 152.786L116.313 37.3083C116.831 27.2973 125.393 19.1059 135.334 19.1059H205.575C207.91 19.0881 210.224 19.5542 212.373 20.4751C214.522 21.3961 216.46 22.7522 218.066 24.4593C219.672 26.1665 220.913 28.188 221.711 30.3985C222.508 32.6089 222.846 34.9609 222.703 37.3083L216.695 152.786C216.171 162.791 207.61 170.982 197.669 170.982Z" fill="white"/>
</mask>
<g mask="url(#mask0_413_2497)">
<path d="M140.562 154.64C123.861 154.64 108.494 148.09 97.2875 136.202C86.0813 124.314 80.3585 108.442 81.2363 91.5886C81.8478 80.4038 85.2915 69.5628 91.2398 60.0974C97.064 50.8194 105.016 43.0865 114.427 37.5495C114.462 37.5352 114.501 37.5352 114.536 37.5495C114.574 37.5604 114.606 37.5849 114.627 37.6184L120.378 48.6685C120.583 48.5536 120.789 48.4388 121 48.3298L121.222 48.2035C121.257 48.1921 121.295 48.1921 121.33 48.2035C121.349 48.2091 121.366 48.2186 121.381 48.2315C121.396 48.2444 121.407 48.2603 121.416 48.2781L122.989 51.2918C123.005 51.3247 123.009 51.3627 122.998 51.398C122.987 51.4332 122.964 51.463 122.932 51.4812C108.3 59.7185 98.6726 75.0967 97.8176 91.623C97.1678 104.011 101.357 115.658 109.611 124.412C113.706 128.746 118.643 132.186 124.115 134.518C129.587 136.849 135.476 138.023 141.417 137.964C141.436 137.964 141.456 137.968 141.473 137.976C141.491 137.984 141.507 137.995 141.52 138.01C141.534 138.023 141.544 138.039 141.551 138.057C141.558 138.075 141.561 138.094 141.559 138.114L140.704 154.531C140.698 154.563 140.68 154.592 140.653 154.612C140.627 154.632 140.595 154.642 140.562 154.64ZM114.439 37.8767C95.2697 49.1851 82.6556 69.7583 81.5156 91.6C80.6435 108.379 86.3207 124.147 97.4756 136.001C108.631 147.855 123.838 154.318 140.414 154.37L141.252 138.246C135.297 138.283 129.399 137.092 123.919 134.746C118.439 132.4 113.494 128.95 109.389 124.607C101.084 115.79 96.8486 104.068 97.5155 91.6058C98.3762 75.0278 108.004 59.5922 122.653 51.2918L121.216 48.5307L121.114 48.5881C120.868 48.7201 120.618 48.8521 120.378 48.9957C120.342 49.0103 120.301 49.0103 120.264 48.9957C120.228 48.9845 120.197 48.9599 120.179 48.9268L114.439 37.8767Z" fill="#407BFF"/>
<path d="M144.62 160.627C144.579 160.627 144.54 160.61 144.511 160.581C144.499 160.566 144.489 160.549 144.483 160.53C144.478 160.511 144.475 160.491 144.477 160.472L145.389 142.912C145.392 142.876 145.408 142.843 145.435 142.818C145.461 142.794 145.496 142.78 145.532 142.78C172.692 142.78 195.948 120.525 197.373 93.1671C197.376 93.131 197.392 93.0974 197.419 93.0729C197.445 93.0484 197.48 93.0349 197.516 93.035H201.665C201.684 93.0343 201.702 93.0372 201.719 93.0438C201.737 93.0504 201.752 93.0604 201.766 93.0733C201.779 93.0862 201.79 93.1016 201.797 93.1187C201.804 93.1358 201.808 93.1542 201.808 93.1728C201.842 94.5964 201.808 96.0429 201.756 97.4493H214.576C214.595 97.4488 214.614 97.4527 214.632 97.4606C214.65 97.4686 214.666 97.4804 214.678 97.4952C214.705 97.5276 214.719 97.5682 214.718 97.61C212.697 114.136 205.015 129.435 192.996 140.869C179.868 153.423 162.238 160.627 144.62 160.627ZM145.668 143.067L144.768 160.34C162.267 160.3 179.766 153.13 192.796 140.656C204.731 129.31 212.374 114.136 214.416 97.7363H201.608C201.587 97.7364 201.566 97.7311 201.547 97.7211C201.528 97.7111 201.512 97.6966 201.5 97.6789C201.486 97.6662 201.474 97.6501 201.467 97.6321C201.461 97.6142 201.458 97.5948 201.46 97.5756C201.534 96.1635 201.551 94.7055 201.523 93.3106H197.647C196.153 120.715 172.875 142.993 145.668 143.067Z" fill="#407BFF"/>
<path d="M201.665 93.3221C201.628 93.3207 201.592 93.3051 201.566 93.2785C201.54 93.2519 201.524 93.2162 201.523 93.1786C200.799 64.1729 177.583 41.4529 148.644 41.4529C139.114 41.4756 129.739 43.8779 121.358 48.4446C121.342 48.4545 121.324 48.4609 121.305 48.4633C121.286 48.4658 121.267 48.4643 121.248 48.4589C121.23 48.4535 121.213 48.4443 121.199 48.432C121.184 48.4196 121.172 48.4044 121.164 48.3872C121.147 48.3534 121.144 48.3145 121.154 48.2783C121.165 48.2421 121.189 48.2112 121.221 48.192C129.645 43.6027 139.067 41.1886 148.644 41.1659C162.53 41.0045 175.915 46.3834 185.876 56.1277C195.837 65.872 201.565 79.1899 201.808 93.1729C201.808 93.1917 201.806 93.2105 201.799 93.2282C201.793 93.2459 201.783 93.2622 201.77 93.2761C201.757 93.2899 201.742 93.3011 201.725 93.309C201.708 93.3169 201.69 93.3214 201.671 93.3221H201.665Z" fill="#407BFF"/>
<path d="M221.337 97.7363H214.577C214.539 97.7363 214.503 97.7212 214.476 97.6943C214.449 97.6674 214.434 97.6309 214.434 97.5928C214.434 97.5547 214.449 97.5182 214.476 97.4913C214.503 97.4644 214.539 97.4493 214.577 97.4493H221.2C221.899 84.3266 219.09 71.2554 213.066 59.5979C204.237 42.6812 189.172 30.3224 170.641 24.7888C150.931 18.8992 129.949 21.3446 111.544 31.6771L114.627 37.5896C114.644 37.624 114.646 37.6635 114.635 37.6998C114.623 37.7361 114.598 37.7665 114.565 37.7848C114.548 37.7937 114.529 37.7991 114.511 37.8007C114.492 37.8023 114.473 37.8001 114.455 37.7942C114.436 37.7884 114.42 37.7789 114.405 37.7664C114.391 37.754 114.379 37.7387 114.371 37.7216L111.23 31.6886C111.221 31.6725 111.216 31.6547 111.214 31.6363C111.212 31.618 111.213 31.5994 111.219 31.5817C111.224 31.564 111.233 31.5476 111.245 31.5334C111.256 31.5193 111.271 31.5076 111.287 31.4992C120.469 26.2914 130.605 23.0127 141.081 21.8612C151.038 20.7435 161.116 21.6452 170.721 24.5132C189.326 30.0698 204.454 42.4803 213.317 59.4658C219.387 71.2086 222.206 84.3802 221.48 97.5985C221.478 97.6356 221.462 97.6706 221.436 97.6963C221.409 97.722 221.374 97.7363 221.337 97.7363Z" fill="#407BFF"/>
<path d="M120.321 48.9956H120.281C120.245 48.9845 120.214 48.9598 120.196 48.9267L114.37 37.7446C114.353 37.7104 114.35 37.6706 114.361 37.634C114.373 37.5974 114.399 37.567 114.433 37.5495C114.467 37.532 114.507 37.5288 114.543 37.5406C114.579 37.5525 114.609 37.5784 114.627 37.6126L120.378 48.6627C120.583 48.5478 120.788 48.433 120.999 48.324L121.222 48.1977C121.238 48.1888 121.257 48.1834 121.276 48.1818C121.295 48.1801 121.314 48.1823 121.332 48.1882C121.35 48.1941 121.367 48.2036 121.381 48.216C121.395 48.2285 121.407 48.2437 121.415 48.2608C121.424 48.277 121.43 48.2947 121.432 48.3131C121.434 48.3315 121.432 48.35 121.427 48.3677C121.421 48.3854 121.413 48.4018 121.401 48.416C121.389 48.4302 121.375 48.4418 121.358 48.4503L121.13 48.5765C120.885 48.7086 120.635 48.8406 120.395 48.9841C120.372 48.9938 120.346 48.9977 120.321 48.9956Z" fill="#407BFF"/>
<g opacity="0.3">
<path d="M140.562 154.64C123.861 154.64 108.494 148.09 97.2875 136.202C86.0813 124.314 80.3585 108.442 81.2363 91.5885C81.8478 80.4038 85.2915 69.5627 91.2398 60.0973C97.064 50.8194 105.016 43.0864 114.427 37.5495C114.462 37.5351 114.501 37.5351 114.536 37.5495C114.574 37.5603 114.606 37.5849 114.627 37.6183L120.378 48.6684C120.583 48.5536 120.789 48.4388 121 48.3297L121.222 48.2034C121.257 48.192 121.295 48.192 121.33 48.2034C121.349 48.209 121.366 48.2186 121.381 48.2314C121.396 48.2443 121.407 48.2602 121.416 48.2781L122.989 51.2917C123.005 51.3246 123.009 51.3626 122.998 51.3979C122.987 51.4332 122.964 51.463 122.932 51.4811C108.3 59.7184 98.6726 75.0967 97.8176 91.6229C97.1678 104.01 101.357 115.658 109.611 124.411C113.706 128.746 118.643 132.186 124.115 134.518C129.587 136.849 135.476 138.022 141.417 137.964C141.436 137.964 141.456 137.968 141.473 137.976C141.491 137.984 141.507 137.995 141.52 138.01C141.534 138.023 141.544 138.039 141.551 138.057C141.558 138.075 141.561 138.094 141.559 138.114L140.704 154.531C140.698 154.563 140.68 154.592 140.653 154.612C140.627 154.632 140.595 154.642 140.562 154.64ZM114.439 37.8767C95.2697 49.185 82.6556 69.7582 81.5156 91.6C80.6435 108.379 86.3207 124.147 97.4756 136.001C108.631 147.855 123.838 154.318 140.414 154.37L141.252 138.246C135.297 138.282 129.399 137.091 123.919 134.746C118.439 132.4 113.494 128.95 109.389 124.607C101.084 115.79 96.8486 104.068 97.5155 91.6057C98.3762 75.0278 108.004 59.5922 122.653 51.2917L121.216 48.5306L121.114 48.588C120.868 48.7201 120.618 48.8521 120.378 48.9956C120.342 49.0103 120.301 49.0103 120.264 48.9956C120.228 48.9845 120.197 48.9598 120.179 48.9267L114.439 37.8767Z" fill="white"/>
<path d="M144.62 160.627C144.579 160.627 144.54 160.61 144.511 160.581C144.499 160.566 144.489 160.549 144.483 160.53C144.478 160.511 144.475 160.491 144.477 160.472L145.389 142.912C145.392 142.876 145.408 142.843 145.435 142.818C145.461 142.794 145.496 142.78 145.532 142.78C172.692 142.78 195.948 120.525 197.373 93.167C197.376 93.131 197.392 93.0973 197.419 93.0729C197.445 93.0484 197.48 93.0349 197.516 93.035H201.665C201.684 93.0342 201.702 93.0372 201.719 93.0438C201.737 93.0503 201.752 93.0604 201.766 93.0732C201.779 93.0861 201.79 93.1016 201.797 93.1187C201.804 93.1358 201.808 93.1541 201.808 93.1727C201.842 94.5963 201.808 96.0429 201.756 97.4493H214.576C214.595 97.4488 214.614 97.4526 214.632 97.4606C214.65 97.4685 214.666 97.4803 214.678 97.4952C214.705 97.5275 214.719 97.5682 214.718 97.61C212.697 114.136 205.015 129.435 192.996 140.869C179.868 153.423 162.238 160.627 144.62 160.627ZM145.668 143.067L144.768 160.34C162.267 160.3 179.766 153.13 192.796 140.656C204.731 129.31 212.374 114.136 214.416 97.7363H201.608C201.587 97.7363 201.566 97.7311 201.547 97.7211C201.528 97.7111 201.512 97.6966 201.5 97.6789C201.486 97.6661 201.474 97.6501 201.467 97.6321C201.461 97.6141 201.458 97.5947 201.46 97.5755C201.534 96.1634 201.551 94.7054 201.523 93.3105H197.647C196.153 120.715 172.875 142.993 145.668 143.067Z" fill="white"/>
<path d="M201.665 93.3221C201.628 93.3206 201.592 93.305 201.566 93.2784C201.54 93.2518 201.524 93.2162 201.523 93.1785C200.799 64.1729 177.583 41.4528 148.644 41.4528C139.114 41.4755 129.739 43.8778 121.358 48.4445C121.342 48.4544 121.324 48.4608 121.305 48.4633C121.286 48.4657 121.267 48.4642 121.248 48.4588C121.23 48.4534 121.213 48.4443 121.199 48.4319C121.184 48.4196 121.172 48.4043 121.164 48.3871C121.147 48.3533 121.144 48.3144 121.154 48.2782C121.165 48.242 121.189 48.2112 121.221 48.1919C129.645 43.6026 139.067 41.1885 148.644 41.1658C162.53 41.0044 175.915 46.3833 185.876 56.1276C195.837 65.8719 201.565 79.1899 201.808 93.1728C201.808 93.1916 201.806 93.2105 201.799 93.2282C201.793 93.2459 201.783 93.2621 201.77 93.276C201.757 93.2898 201.742 93.3011 201.725 93.309C201.708 93.3169 201.69 93.3213 201.671 93.3221H201.665Z" fill="white"/>
<path d="M221.337 97.7363H214.577C214.539 97.7363 214.503 97.7212 214.476 97.6943C214.449 97.6674 214.434 97.6309 214.434 97.5928C214.434 97.5547 214.449 97.5182 214.476 97.4913C214.503 97.4644 214.539 97.4493 214.577 97.4493H221.2C221.899 84.3266 219.09 71.2554 213.066 59.5979C204.237 42.6812 189.172 30.3224 170.641 24.7888C150.931 18.8992 129.949 21.3446 111.544 31.6771L114.627 37.5896C114.644 37.624 114.646 37.6635 114.635 37.6998C114.623 37.7361 114.598 37.7665 114.565 37.7848C114.548 37.7937 114.529 37.7991 114.511 37.8007C114.492 37.8023 114.473 37.8001 114.455 37.7942C114.436 37.7884 114.42 37.7789 114.405 37.7664C114.391 37.754 114.379 37.7387 114.371 37.7216L111.23 31.6886C111.221 31.6725 111.216 31.6547 111.214 31.6363C111.212 31.618 111.213 31.5994 111.219 31.5817C111.224 31.564 111.233 31.5476 111.245 31.5334C111.256 31.5193 111.271 31.5076 111.287 31.4992C120.469 26.2914 130.605 23.0127 141.081 21.8612C151.038 20.7435 161.116 21.6452 170.721 24.5132C189.326 30.0698 204.454 42.4803 213.317 59.4658C219.387 71.2086 222.206 84.3802 221.48 97.5985C221.478 97.6356 221.462 97.6706 221.436 97.6963C221.409 97.722 221.374 97.7363 221.337 97.7363Z" fill="white"/>
<path d="M120.321 48.9956H120.281C120.245 48.9845 120.214 48.9598 120.196 48.9267L114.37 37.7446C114.353 37.7104 114.35 37.6706 114.361 37.634C114.373 37.5974 114.399 37.567 114.433 37.5495C114.467 37.532 114.507 37.5288 114.543 37.5406C114.579 37.5525 114.609 37.5784 114.627 37.6126L120.378 48.6627C120.583 48.5478 120.788 48.433 120.999 48.324L121.222 48.1977C121.238 48.1888 121.257 48.1834 121.276 48.1818C121.295 48.1801 121.314 48.1823 121.332 48.1882C121.35 48.1941 121.367 48.2036 121.381 48.216C121.395 48.2285 121.407 48.2437 121.415 48.2608C121.424 48.277 121.43 48.2947 121.432 48.3131C121.434 48.3315 121.432 48.35 121.427 48.3677C121.421 48.3854 121.413 48.4018 121.401 48.416C121.389 48.4302 121.375 48.4418 121.358 48.4503L121.13 48.5765C120.885 48.7086 120.635 48.8406 120.395 48.9841C120.372 48.9938 120.346 48.9977 120.321 48.9956Z" fill="white"/>
</g>
</g>
<path d="M144.974 130.795L144.404 141.339C122.236 141.339 105.199 123.235 106.362 100.916C107.143 85.9572 115.898 72.8866 128.261 65.9006L133.026 75.0334C128.384 77.6264 124.466 81.3575 121.637 85.881C118.807 90.4044 117.156 95.574 116.838 100.911C116.001 117.414 128.592 130.795 144.974 130.795Z" fill="#407BFF"/>
<path opacity="0.6" d="M144.974 130.795L144.404 141.339C122.236 141.339 105.199 123.235 106.362 100.916C107.143 85.9572 115.898 72.8866 128.261 65.9006L133.026 75.0334C128.384 77.6264 124.466 81.3575 121.637 85.881C118.807 90.4044 117.156 95.574 116.838 100.911C116.001 117.414 128.592 130.795 144.974 130.795Z" fill="black"/>
<path d="M192.232 101.932C191.515 113.558 186.455 124.479 178.07 132.503C169.686 140.526 158.597 145.057 147.031 145.186L147.601 133.9C165.129 133.9 180.091 119.584 181.009 101.932H192.232Z" fill="#407BFF"/>
<path opacity="0.3" d="M192.232 101.932C191.515 113.558 186.455 124.479 178.07 132.503C169.686 140.526 158.597 145.057 147.031 145.186L147.601 133.9C165.129 133.9 180.091 119.584 181.009 101.932H192.232Z" fill="black"/>
<path d="M196.331 104.774H183.654C184.691 84.7805 169.45 68.6101 149.619 68.6101C143.23 68.6079 136.949 70.2752 131.391 73.4491L125.628 62.3876C149.414 48.9668 178.946 57.0606 191.075 80.3088C194.976 87.8409 196.791 96.2916 196.331 104.774Z" fill="#FAFAFA"/>
<path d="M194.945 136.621H183.271L182.012 160.833H193.685L194.945 136.621Z" fill="#FAFAFA"/>
<path d="M211.606 128.619H199.933L198.257 160.833H209.93L211.606 128.619Z" fill="#407BFF"/>
<path opacity="0.6" d="M211.606 128.619H199.933L198.257 160.833H209.93L211.606 128.619Z" fill="black"/>
<path d="M227.429 136.621H215.756L214.496 160.833H226.17L227.429 136.621Z" fill="#407BFF"/>
<path opacity="0.3" d="M227.429 136.621H215.756L214.496 160.833H226.17L227.429 136.621Z" fill="black"/>
<path d="M226.06 162.892H181.902L181.931 162.343H226.089L226.06 162.892Z" fill="#263238"/>
<path opacity="0.8" d="M232.029 60.4531H181.128L182.633 31.4934H233.539L232.029 60.4531Z" fill="#FAFAFA"/>
<path d="M182.046 42.7788L181.128 60.4532H232.029L233.169 38.5081C224.722 38.5081 219.711 48.1919 209.263 48.1919C198.815 48.1919 195.948 42.7788 182.046 42.7788Z" fill="#407BFF"/>
<path opacity="0.1" d="M182.046 42.7788L181.128 60.4532H232.029L233.169 38.5081C224.722 38.5081 219.711 48.1919 209.263 48.1919C198.815 48.1919 195.948 42.7788 182.046 42.7788Z" fill="black"/>
<path d="M181.607 51.2286C193.047 51.2286 197.157 44.9142 203.581 44.9142C210.005 44.9142 212.815 51.5558 220.818 51.5558C229.162 51.5558 232.788 46.3321 232.788 46.3321L232.052 60.4647H181.151L181.607 51.2286Z" fill="#407BFF"/>
<path opacity="0.5" d="M181.607 51.2286C193.047 51.2286 197.157 44.9142 203.581 44.9142C210.005 44.9142 212.815 51.5558 220.818 51.5558C229.162 51.5558 232.788 46.3321 232.788 46.3321L232.052 60.4647H181.151L181.607 51.2286Z" fill="black"/>
<path d="M80.9402 73.455C80.1878 74.471 79.3499 75.6018 78.5918 76.7097C77.8337 77.8176 77.0699 78.9484 76.3517 80.085C74.9149 82.297 73.6569 84.6216 72.5897 87.0365L72.4016 87.4727L72.3104 87.6909C72.2696 87.781 72.2482 87.8788 72.2477 87.9779C72.2331 88.4459 72.2849 88.9137 72.4016 89.367C72.7058 90.5757 73.1198 91.7536 73.6385 92.8858C74.7676 95.3659 76.0194 97.7876 77.3891 100.142L74.921 102.105C72.8385 100.011 70.9814 97.7025 69.3806 95.2164C68.5192 93.8784 67.8044 92.4503 67.2488 90.9571C66.9194 90.0617 66.7142 89.1249 66.6389 88.173C66.5967 87.5655 66.6389 86.9549 66.7643 86.3591C66.7985 86.1926 66.8498 86.0147 66.9011 85.8482L66.9923 85.567L67.1747 84.9929C67.4084 84.241 67.6934 83.5349 67.967 82.8174C68.2406 82.0998 68.537 81.411 68.8961 80.7394C69.5231 79.3675 70.247 78.0644 70.9823 76.7786C71.7176 75.4928 72.5156 74.2529 73.3478 73.0417C73.7639 72.4332 74.1914 71.8362 74.6246 71.2392C75.0578 70.6422 75.491 70.0912 76.004 69.4482L80.9402 73.455Z" fill="#E58A7B"/>
<path d="M76.4928 99.2403L79.5537 99.7684L76.8348 104.407C76.8348 104.407 74.703 103.373 74.3154 101.37L76.4928 99.2403Z" fill="#E58A7B"/>
<path d="M82.8599 101.427L80.4374 105.159L76.835 104.407L79.5539 99.7684L82.8599 101.427Z" fill="#E58A7B"/>
<path d="M96.7217 50.953C96.7217 51.2917 96.8984 51.5672 97.1207 51.5672C97.343 51.5672 97.5197 51.2917 97.5197 50.953C97.5197 50.6143 97.343 50.3388 97.1207 50.3388C96.8984 50.3388 96.7217 50.6086 96.7217 50.953Z" fill="#263238"/>
<path d="M96.8711 51.5673C97.2746 52.6069 97.8173 53.5861 98.4842 54.4776C98.2536 54.6437 97.9897 54.757 97.7111 54.8096C97.4324 54.8621 97.1457 54.8527 96.8711 54.7818V51.5673Z" fill="#DF5753"/>
<path d="M95.5257 49.0695C95.494 49.0704 95.4626 49.0629 95.4346 49.0479C95.4066 49.0328 95.383 49.0106 95.3661 48.9835C95.3501 48.9628 95.3384 48.939 95.332 48.9136C95.3256 48.8882 95.3244 48.8617 95.3287 48.8358C95.333 48.8099 95.3426 48.7852 95.3569 48.7632C95.3712 48.7413 95.3899 48.7225 95.4117 48.7082C95.662 48.5153 95.9551 48.3863 96.2659 48.3323C96.5766 48.2784 96.8957 48.3011 97.1958 48.3985C97.2437 48.4188 97.2819 48.4572 97.3021 48.5054C97.3224 48.5536 97.3231 48.6079 97.3041 48.6566C97.2959 48.6813 97.2828 48.704 97.2655 48.7233C97.2482 48.7426 97.2271 48.7582 97.2036 48.7689C97.18 48.7797 97.1545 48.7854 97.1287 48.7859C97.1028 48.7863 97.0772 48.7813 97.0533 48.7713C96.8143 48.6978 96.5613 48.6829 96.3154 48.7278C96.0695 48.7727 95.8378 48.8761 95.6397 49.0294C95.6076 49.0558 95.5672 49.07 95.5257 49.0695Z" fill="#263238"/>
<path d="M85.8175 54.8737C86.4217 57.9619 87.0202 63.6104 84.877 65.6711C84.877 65.6711 85.7149 68.7996 91.4092 68.7996C97.6792 68.7996 94.396 65.6711 94.396 65.6711C90.976 64.8503 91.0672 62.2959 91.6657 59.9022L85.8175 54.8737Z" fill="#E58A7B"/>
<path d="M84.0795 66.7445C83.6292 65.7572 83.139 64.6206 84.1593 64.2647C85.2993 63.8744 91.4382 63.4783 93.5586 64.2073C93.8383 64.2854 94.0998 64.4186 94.3281 64.5991C94.5563 64.7797 94.7467 65.0041 94.8883 65.2593C95.0298 65.5145 95.1197 65.7954 95.1527 66.0858C95.1857 66.3762 95.1611 66.6704 95.0805 66.9512L84.0795 66.7445Z" fill="#407BFF"/>
<path d="M70.8726 210.762C70.5046 210.76 70.1379 210.719 69.7782 210.641C69.7597 210.638 69.7427 210.629 69.7294 210.616C69.7162 210.602 69.7073 210.585 69.7041 210.567C69.7003 210.547 69.7021 210.528 69.7091 210.509C69.7162 210.491 69.7283 210.475 69.744 210.463C69.7953 210.429 70.9524 209.638 71.5623 209.775C71.6277 209.789 71.6893 209.817 71.7425 209.858C71.7958 209.899 71.8394 209.951 71.8701 210.01C71.9189 210.08 71.9451 210.163 71.9451 210.248C71.9451 210.334 71.9189 210.417 71.8701 210.486C71.7303 210.597 71.5701 210.678 71.3988 210.725C71.2276 210.772 71.0487 210.785 70.8726 210.762ZM70.0575 210.498C70.6845 210.601 71.5395 210.601 71.7162 210.36C71.7162 210.36 71.7903 210.268 71.7162 210.108C71.6977 210.073 71.6718 210.042 71.6403 210.019C71.6087 209.995 71.5724 209.978 71.5338 209.97C70.9994 209.998 70.4854 210.186 70.0575 210.509V210.498Z" fill="#407BFF"/>
<path d="M69.8291 210.659C69.8125 210.665 69.7944 210.665 69.7778 210.659C69.762 210.65 69.7492 210.637 69.7411 210.62C69.7329 210.604 69.7299 210.585 69.7322 210.567C69.7322 210.516 69.8348 209.299 70.3022 208.897C70.3607 208.849 70.4281 208.813 70.5005 208.791C70.5729 208.769 70.6489 208.762 70.724 208.771C70.7994 208.771 70.8724 208.797 70.9306 208.845C70.9889 208.893 71.0287 208.96 71.0432 209.035C71.1287 209.505 70.2908 210.424 69.8576 210.665L69.8291 210.659ZM70.6727 208.937C70.5892 208.939 70.5087 208.969 70.4447 209.023C70.1532 209.404 69.9806 209.864 69.9488 210.343C70.382 210.016 70.9178 209.322 70.8665 209.04C70.8665 209.04 70.8665 208.954 70.7183 208.937H70.6727Z" fill="#407BFF"/>
<path d="M96.015 210.762C95.5847 210.762 95.1553 210.722 94.7325 210.641C94.7122 210.639 94.6932 210.63 94.6788 210.615C94.6643 210.6 94.6551 210.581 94.6527 210.561C94.6495 210.541 94.6521 210.521 94.6602 210.503C94.6683 210.484 94.6815 210.469 94.6983 210.458C94.761 210.423 96.2259 209.586 96.9213 209.775C96.987 209.79 97.049 209.819 97.103 209.859C97.157 209.9 97.2019 209.951 97.2348 210.01C97.2802 210.074 97.3047 210.15 97.3047 210.228C97.3047 210.307 97.2802 210.383 97.2348 210.446C97.0695 210.699 96.5508 210.762 96.015 210.762ZM95.0517 210.498C95.8383 210.607 96.8928 210.59 97.0866 210.326C97.0866 210.291 97.1322 210.234 97.0866 210.108C97.0657 210.073 97.0377 210.042 97.0043 210.018C96.9709 209.995 96.9329 209.978 96.8928 209.97C96.414 209.856 95.4792 210.28 95.0517 210.509V210.498Z" fill="#407BFF"/>
<path d="M94.751 210.659C94.7324 210.665 94.7126 210.665 94.694 210.659C94.6797 210.649 94.6685 210.635 94.6614 210.619C94.6544 210.603 94.6519 210.585 94.6541 210.567C94.6911 209.97 94.9191 209.4 95.3039 208.943C95.3803 208.874 95.4711 208.822 95.5697 208.792C95.6682 208.763 95.7722 208.755 95.8739 208.771C96.1475 208.799 96.2273 208.937 96.2444 209.052C96.3185 209.528 95.321 210.441 94.8137 210.665L94.751 210.659ZM95.7713 208.937C95.6447 208.936 95.5224 208.983 95.4293 209.069C95.1081 209.43 94.9086 209.884 94.8593 210.366C95.3723 210.057 96.0563 209.339 95.9993 209.052C95.9993 209.052 95.9993 208.96 95.8055 208.937H95.7713Z" fill="#407BFF"/>
<path d="M90.1445 210.556H94.334L94.7501 200.792H90.5606L90.1445 210.556Z" fill="#E58A7B"/>
<path d="M65.0029 210.556H69.1924L71.2957 200.792H67.1119L65.0029 210.556Z" fill="#E58A7B"/>
<path d="M69.487 210.068H64.7845C64.7005 210.069 64.6193 210.098 64.5541 210.151C64.4888 210.204 64.4434 210.278 64.4254 210.361L63.5989 214.109C63.58 214.2 63.5818 214.295 63.6042 214.385C63.6265 214.476 63.6689 214.56 63.728 214.632C63.7872 214.703 63.8617 214.761 63.9459 214.799C64.0301 214.838 64.1219 214.857 64.2145 214.855C65.8561 214.827 66.6541 214.729 68.7232 214.729C69.9943 214.729 72.6163 214.867 74.3776 214.867C76.1389 214.867 76.3612 213.145 75.643 212.955C72.4168 212.244 71.2027 211.262 70.1653 210.332C69.9805 210.161 69.7381 210.066 69.487 210.068Z" fill="#263238"/>
<path d="M94.3048 210.068H89.7448C89.6609 210.069 89.5796 210.098 89.5144 210.151C89.4491 210.204 89.4038 210.278 89.3857 210.361L88.5592 214.109C88.5394 214.2 88.5402 214.293 88.5615 214.383C88.5828 214.474 88.624 214.558 88.6821 214.629C88.7402 214.701 88.8137 214.759 88.8971 214.798C88.9804 214.837 89.0714 214.857 89.1634 214.855C90.8107 214.827 93.1933 214.729 95.2681 214.729C97.6906 214.729 99.7882 214.867 102.627 214.867C104.337 214.867 104.827 213.145 104.109 212.955C100.831 212.232 98.158 212.157 95.3251 210.401C95.0234 210.194 94.6694 210.079 94.3048 210.068Z" fill="#263238"/>
<path d="M99.8408 68.0763C102.292 69.2932 104.84 70.5389 107.353 71.7042C109.867 72.8694 112.409 74.0003 114.934 74.9704L115.875 75.3091L116.114 75.3952H116.171C116.171 75.3952 116.171 75.3952 116.2 75.4239C116.541 75.4594 116.885 75.4183 117.209 75.3033C118.342 74.9224 119.426 74.4039 120.435 73.7592C122.739 72.3019 124.952 70.7051 127.064 68.9775L129.372 71.1244C127.614 73.575 125.568 75.803 123.279 77.7602C122.023 78.8523 120.618 79.7571 119.107 80.4466C118.116 80.8982 117.042 81.133 115.955 81.1354C115.61 81.1289 115.267 81.0924 114.929 81.0264L114.655 80.9632L114.467 80.9116L114.193 80.837L113.099 80.5327C110.278 79.682 107.507 78.6701 104.8 77.5018C102.109 76.3538 99.5216 75.1254 96.9053 73.7305L99.8408 68.0763Z" fill="#E58A7B"/>
<path d="M77.3824 66.624C73.4551 67.531 68.9521 78.3055 68.9521 78.3055L76.8352 83.7473C78.7976 80.9155 80.5394 77.935 82.045 74.8326C84.3706 69.9017 81.3952 65.6998 77.3824 66.624Z" fill="#263238"/>
<path d="M80.1926 73.4952L76.4648 83.489L76.8353 83.7473C76.8353 83.7473 78.4484 81.4512 80.1926 78.3916V73.4952Z" fill="#407BFF"/>
<path opacity="0.8" d="M80.1926 73.4952L76.4648 83.489L76.8353 83.7473C76.8353 83.7473 78.4484 81.4512 80.1926 78.3916V73.4952Z" fill="black"/>
<path d="M100.838 66.8421C100.838 66.8421 105.296 71.9108 101.089 103.293H78.6881C78.5342 99.8488 80.6945 82.9379 77.3828 66.624C79.8583 66.144 82.362 65.8257 84.8783 65.6711C88.0487 65.4873 91.2269 65.4873 94.3973 65.6711C96.5714 65.8917 98.7249 66.2832 100.838 66.8421Z" fill="#263238"/>
<path d="M102.798 76.4973L97.4111 75.3492C97.4909 75.4468 100.831 79.6659 102.877 82.2892C102.917 80.0505 102.889 78.162 102.798 76.4973Z" fill="#407BFF"/>
<path opacity="0.8" d="M102.798 76.4973L97.4111 75.3492C97.4909 75.4468 100.831 79.6659 102.877 82.2892C102.917 80.0505 102.889 78.162 102.798 76.4973Z" fill="black"/>
<path d="M93.8146 72.4562C95.0458 76.2907 107.495 80.4926 107.495 80.4926L111.2 71.6468C108.076 69.7391 104.759 68.1727 101.304 66.9742C96.2542 65.3554 92.458 68.2485 93.8146 72.4562Z" fill="#263238"/>
<path d="M126.71 69.5516L127.935 65.2751L132.809 67.4966C132.809 67.4966 131.732 70.8145 128.785 71.6066L126.71 69.5516Z" fill="#E58A7B"/>
<path d="M130.854 61.7103L134.166 64.9995L132.809 67.4736L127.936 65.2521L130.854 61.7103Z" fill="#E58A7B"/>
<path d="M94.7498 200.797L94.5332 205.826H90.3438L90.5603 200.797H94.7498Z" fill="#CF6F64"/>
<path d="M67.1055 200.797H71.295L70.212 205.826H66.0225L67.1055 200.797Z" fill="#CF6F64"/>
<path d="M85.4584 50.2298C85.7092 54.4087 85.6465 56.8655 87.7384 59.0124C90.8905 62.2384 96.0091 60.3212 97.0009 56.1423C97.8901 52.3881 97.3258 46.1886 93.2617 44.5239C92.3678 44.154 91.3948 44.0205 90.4352 44.1361C89.4756 44.2517 88.5613 44.6126 87.7793 45.1844C86.9973 45.7562 86.3735 46.52 85.9673 47.4031C85.561 48.2862 85.3858 49.2592 85.4584 50.2298Z" fill="#E58A7B"/>
<path d="M93.5201 47.4515C96.6494 48.3814 99.2715 43.9097 98.787 47.0726C98.3025 50.2355 101.717 49.8911 101.717 49.8911C101.717 49.8911 99.0378 48.8693 102.224 46.2058C106.117 42.9511 100.588 40.9535 98.1657 42.7215C94.9053 45.1094 94.2669 40.896 90.066 39.7652C87.216 39.0075 83.7105 40.8099 83.6478 42.8822C83.568 45.4137 81.4077 43.3759 81.2481 47.1415C81.1398 49.5983 84.0468 57.6979 87.1818 57.9734C91.9014 58.3924 93.4859 52.3651 93.5201 47.4515Z" fill="#263238"/>
<path d="M91.0557 51.4467C91.2792 52.4668 91.8325 53.3834 92.6289 54.0528C93.6834 54.9138 94.527 54.1446 94.5042 52.9047C94.4757 51.7854 93.9 49.9886 92.7144 49.6098C91.5288 49.2309 90.7878 50.224 91.0557 51.4467Z" fill="#E58A7B"/>
<path d="M84.5588 45.2357C84.0476 44.4546 83.7376 43.5574 83.657 42.6254C83.5764 41.6933 83.7277 40.7557 84.0971 39.8973C84.0971 39.8973 79.6397 43.2783 84.5588 45.2357Z" fill="#263238"/>
<path d="M80.9902 44.8224C81.4321 44.6341 81.9139 44.5611 82.3912 44.6103C82.8685 44.6595 83.3257 44.8292 83.7205 45.1037C83.7205 45.1037 82.4551 42.5034 80.9902 44.8224Z" fill="#263238"/>
<path d="M93.1422 103.293C93.1422 103.293 88.3884 135.519 85.7892 147.619C82.9392 160.822 72.1719 204.884 72.1719 204.884H64.4883C64.4883 204.884 71.5905 161.878 73.2492 148.767C75.0162 134.56 78.7155 103.27 78.7155 103.27L93.1422 103.293Z" fill="#407BFF"/>
<path d="M73.3879 202.009C73.4221 202.009 72.5956 204.976 72.5956 204.976H63.9658L64.1254 202.33L73.3879 202.009Z" fill="#407BFF"/>
<path opacity="0.2" d="M73.3879 202.009C73.4221 202.009 72.5956 204.976 72.5956 204.976H63.9658L64.1254 202.33L73.3879 202.009Z" fill="black"/>
<path d="M90.1396 114.774C84.6448 115.858 85.2262 136.495 85.8874 147.109C87.5005 139.583 89.7805 125.169 91.3765 114.9C90.9904 114.717 90.5542 114.673 90.1396 114.774Z" fill="#407BFF"/>
<path opacity="0.2" d="M90.1396 114.774C84.6448 115.858 85.2262 136.495 85.8874 147.109C87.5005 139.583 89.7805 125.169 91.3765 114.9C90.9904 114.717 90.5542 114.673 90.1396 114.774Z" fill="black"/>
<path d="M101.089 103.293C101.089 103.293 101.659 134.819 101.208 147.683C100.735 161.057 96.0784 204.856 96.0784 204.856H89.0047C89.0047 204.856 88.7425 161.838 88.4347 148.704C88.0927 134.382 86.377 103.293 86.377 103.293H101.089Z" fill="#407BFF"/>
<path d="M94.6182 199.724C94.5991 199.721 94.5816 199.712 94.569 199.697C94.5564 199.682 94.5496 199.663 94.5498 199.644C95.8038 187.52 98.7507 158.193 99.1098 147.677C99.4917 136.902 99.144 112.839 99.03 105.715C99.03 105.706 99.0318 105.697 99.0352 105.689C99.0387 105.681 99.0437 105.673 99.05 105.667C99.0564 105.66 99.0639 105.655 99.0722 105.652C99.0805 105.648 99.0894 105.646 99.0984 105.646C99.1171 105.646 99.1352 105.653 99.1489 105.666C99.1626 105.679 99.1711 105.697 99.1725 105.715C99.2865 112.833 99.6342 136.902 99.2523 147.683C98.8818 158.205 95.9349 187.537 94.6923 199.661C94.6916 199.67 94.6891 199.679 94.685 199.687C94.6809 199.695 94.6752 199.702 94.6683 199.708C94.6614 199.714 94.6535 199.718 94.6449 199.721C94.6363 199.724 94.6272 199.725 94.6182 199.724Z" fill="#407BFF"/>
<path opacity="0.2" d="M94.6182 199.724C94.5991 199.721 94.5816 199.712 94.569 199.697C94.5564 199.682 94.5496 199.663 94.5498 199.644C95.8038 187.52 98.7507 158.193 99.1098 147.677C99.4917 136.902 99.144 112.839 99.03 105.715C99.03 105.706 99.0318 105.697 99.0352 105.689C99.0387 105.681 99.0437 105.673 99.05 105.667C99.0564 105.66 99.0639 105.655 99.0722 105.652C99.0805 105.648 99.0894 105.646 99.0984 105.646C99.1171 105.646 99.1352 105.653 99.1489 105.666C99.1626 105.679 99.1711 105.697 99.1725 105.715C99.2865 112.833 99.6342 136.902 99.2523 147.683C98.8818 158.205 95.9349 187.537 94.6923 199.661C94.6916 199.67 94.6891 199.679 94.685 199.687C94.6809 199.695 94.6752 199.702 94.6683 199.708C94.6614 199.714 94.6535 199.718 94.6449 199.721C94.6363 199.724 94.6272 199.725 94.6182 199.724Z" fill="black"/>
<path d="M97.4568 202.009C97.491 202.009 97.0578 204.976 97.0578 204.976H88.428L88.1943 202.33L97.4568 202.009Z" fill="#407BFF"/>
<path opacity="0.2" d="M97.4568 202.009C97.491 202.009 97.0578 204.976 97.0578 204.976H88.428L88.1943 202.33L97.4568 202.009Z" fill="black"/>
</g>
<defs>
<filter id="filter0_d_413_2497" x="0" y="0.32135" width="289" height="222.521" filterUnits="userSpaceOnUse" color-interpolation-filters="sRGB">
<feFlood flood-opacity="0" result="BackgroundImageFix"/>
<feColorMatrix in="SourceAlpha" type="matrix" values="0 0 0 0 0 0 0 0 0 0 0 0 0 0 0 0 0 0 127 0" result="hardAlpha"/>
<feOffset/>
<feGaussianBlur stdDeviation="1"/>
<feComposite in2="hardAlpha" operator="out"/>
<feColorMatrix type="matrix" values="0 0 0 0 0 0 0 0 0 0 0 0 0 0 0 0 0 0 0.25 0"/>
<feBlend mode="normal" in2="BackgroundImageFix" result="effect1_dropShadow_413_2497"/>
<feBlend mode="normal" in="SourceGraphic" in2="effect1_dropShadow_413_2497" result="shape"/>
</filter>
</defs>
</svg>
