<svg width="1171" height="1087" viewBox="0 0 1171 1087" fill="none" xmlns="http://www.w3.org/2000/svg">
<path d="M548.101 803.214H15.7427C11.5697 803.206 7.56975 801.517 4.619 798.517C1.66824 795.516 0.00728909 791.448 0 787.205V26.214C0.0435179 21.9949 1.72045 17.9632 4.6673 14.9927C7.61415 12.0223 11.5935 10.3526 15.7427 10.3455H548.101C552.271 10.3529 556.268 12.0428 559.215 15.0442C562.161 18.0456 563.816 22.1133 563.816 26.3542V787.205C563.816 791.446 562.161 795.513 559.215 798.515C556.268 801.516 552.271 803.206 548.101 803.214ZM15.7427 10.9062C11.7525 10.9136 7.92787 12.5288 5.10638 15.3979C2.28488 18.2671 0.696549 22.1564 0.689261 26.214V787.205C0.696549 791.263 2.28488 795.152 5.10638 798.021C7.92787 800.89 11.7525 802.505 15.7427 802.513H548.101C552.088 802.505 555.91 800.889 558.727 798.019C561.544 795.149 563.127 791.26 563.127 787.205V26.214C563.127 22.159 561.544 18.2696 558.727 15.3997C555.91 12.5297 552.088 10.9136 548.101 10.9062H15.7427Z" fill="#E6E6E6"/>
<path d="M1144.45 803.214H612.064C607.894 803.206 603.897 801.516 600.95 798.515C598.004 795.513 596.349 791.446 596.349 787.205V26.214C596.385 21.9974 598.056 17.9657 600.999 14.9945C603.941 12.0233 607.918 10.3527 612.064 10.3455H1144.45C1148.6 10.3527 1152.57 12.0233 1155.52 14.9945C1158.46 17.9657 1160.13 21.9974 1160.16 26.214V787.205C1160.16 791.446 1158.51 795.513 1155.56 798.515C1152.62 801.516 1148.62 803.206 1144.45 803.214ZM612.064 10.9062C608.077 10.9136 604.255 12.5297 601.438 15.3997C598.621 18.2696 597.038 22.159 597.038 26.214V787.205C597.038 791.26 598.621 795.149 601.438 798.019C604.255 800.889 608.077 802.505 612.064 802.513H1144.45C1148.44 802.505 1152.27 800.891 1155.1 798.023C1157.92 795.154 1159.52 791.265 1159.53 787.205V26.214C1159.52 22.1538 1157.92 18.2646 1155.1 15.3962C1152.27 12.5278 1148.44 10.9136 1144.45 10.9062H612.064Z" fill="#E6E6E6"/>
<path d="M463.597 399.294L459.82 728.833C446.476 838.483 255.33 925.536 255.33 925.536C255.33 925.536 64.1565 838.567 50.7297 728.833L46.8423 399.294L251.139 330.913L463.597 399.294Z" fill="#F5F5F5"/>
<path d="M436.937 420.153L433.656 716.049C422.021 811.681 255.303 887.603 255.303 887.603C255.303 887.603 88.5839 811.681 76.9768 716.049L73.4753 420.153L251.663 360.52L436.937 420.153Z" fill="#E0E0E0"/>
<path d="M425.247 438.825L422.159 710.47C411.131 800.186 254.944 871.286 254.944 871.286C254.944 871.286 98.6473 800.102 87.757 710.47L84.4761 438.825L251.525 382.921L425.247 438.825Z" stroke="white" stroke-width="3" stroke-linecap="round" stroke-linejoin="round"/>
<path d="M1104.8 288.074H737.069V944.237H1104.8V288.074Z" fill="#F5F5F5"/>
<path d="M1078.14 313.867H764.253V944.237H1078.14V313.867Z" fill="#E0E0E0"/>
<path d="M773.076 947.04C772.525 947.042 771.981 946.928 771.477 946.703C770.979 946.502 770.528 946.196 770.153 945.806C769.753 945.424 769.442 944.954 769.243 944.433C769.045 943.924 768.942 943.382 768.94 942.834C768.941 942.214 769.077 941.601 769.338 941.04C769.599 940.479 769.979 939.983 770.451 939.589C770.923 939.195 771.475 938.912 772.067 938.761C772.659 938.609 773.276 938.593 773.875 938.713L774.647 938.937L775.364 939.33C775.588 939.492 775.799 939.67 775.998 939.863C776.194 940.052 776.361 940.269 776.494 940.507C776.655 940.731 776.785 940.977 776.88 941.236C776.992 941.488 777.075 941.751 777.129 942.021C777.157 942.292 777.157 942.564 777.129 942.834C777.131 943.385 777.018 943.93 776.798 944.433C776.6 944.947 776.3 945.415 775.916 945.806C775.158 946.57 774.142 947.011 773.076 947.04Z" fill="white"/>
<path d="M768.885 839.549C768.888 838.994 769 838.446 769.213 837.935C769.426 837.424 769.736 836.962 770.125 836.573C770.515 836.185 770.976 835.879 771.482 835.673C771.989 835.466 772.53 835.364 773.076 835.371C774.172 835.371 775.224 835.814 776 836.603C776.775 837.392 777.211 838.461 777.211 839.577C777.211 840.692 776.775 841.762 776 842.551C775.224 843.339 774.172 843.782 773.076 843.782C772.525 843.79 771.98 843.686 771.47 843.476C770.96 843.266 770.496 842.955 770.106 842.561C769.715 842.167 769.406 841.697 769.197 841.18C768.987 840.663 768.881 840.108 768.885 839.549ZM768.885 736.291C768.885 735.176 769.321 734.106 770.096 733.317C770.872 732.528 771.924 732.085 773.02 732.085C774.117 732.085 775.169 732.528 775.945 733.317C776.72 734.106 777.156 735.176 777.156 736.291C777.156 737.406 776.72 738.476 775.945 739.265C775.169 740.053 774.117 740.496 773.02 740.496C771.924 740.496 770.872 740.053 770.096 739.265C769.321 738.476 768.885 737.406 768.885 736.291ZM768.885 633.005C768.885 631.89 769.321 630.82 770.096 630.031C770.872 629.243 771.924 628.799 773.02 628.799C774.117 628.799 775.169 629.243 775.945 630.031C776.72 630.82 777.156 631.89 777.156 633.005C777.156 634.12 776.72 635.19 775.945 635.979C775.169 636.767 774.117 637.21 773.02 637.21C772.477 637.21 771.94 637.102 771.438 636.89C770.936 636.679 770.48 636.369 770.096 635.979C769.712 635.588 769.407 635.124 769.2 634.614C768.992 634.104 768.885 633.557 768.885 633.005ZM768.885 529.719C768.885 528.604 769.321 527.534 770.096 526.745C770.872 525.957 771.924 525.514 773.02 525.514C774.117 525.514 775.169 525.957 775.945 526.745C776.72 527.534 777.156 528.604 777.156 529.719C777.156 530.834 776.72 531.904 775.945 532.693C775.169 533.481 774.117 533.924 773.02 533.924C771.933 533.925 770.889 533.489 770.115 532.713C769.341 531.936 768.899 530.881 768.885 529.775V529.719ZM768.885 426.461C768.885 425.346 769.321 424.276 770.096 423.487C770.872 422.699 771.924 422.256 773.02 422.256C774.117 422.256 775.169 422.699 775.945 423.487C776.72 424.276 777.156 425.346 777.156 426.461C777.156 427.576 776.72 428.646 775.945 429.435C775.169 430.223 774.117 430.667 773.02 430.667C772.477 430.667 771.94 430.558 771.438 430.346C770.936 430.135 770.48 429.825 770.096 429.435C769.712 429.044 769.407 428.581 769.2 428.07C768.992 427.56 768.885 427.013 768.885 426.461Z" fill="white"/>
<path d="M773.076 327.38C772.532 327.383 771.994 327.275 771.492 327.063C770.99 326.852 770.535 326.54 770.153 326.147C769.95 325.958 769.773 325.741 769.629 325.502C769.484 325.278 769.355 325.044 769.243 324.801C769.13 324.543 769.056 324.269 769.023 323.988C768.994 323.718 768.994 323.445 769.023 323.175C769.03 322.061 769.465 320.994 770.236 320.203C770.419 320.004 770.622 319.826 770.842 319.67C771.067 319.521 771.307 319.399 771.559 319.306C771.808 319.197 772.067 319.112 772.331 319.054C772.868 318.942 773.421 318.942 773.958 319.054C774.223 319.112 774.481 319.197 774.73 319.306C774.982 319.399 775.222 319.521 775.447 319.67C775.67 319.832 775.882 320.011 776.081 320.203C776.852 320.994 777.287 322.061 777.294 323.175C777.322 323.445 777.322 323.718 777.294 323.988C777.237 324.266 777.154 324.539 777.046 324.801C776.944 325.049 776.815 325.284 776.66 325.502C776.526 325.74 776.359 325.958 776.164 326.147C775.759 326.555 775.276 326.875 774.745 327.088C774.214 327.3 773.646 327.399 773.076 327.38Z" fill="white"/>
<path d="M965.738 323.175C965.738 322.06 966.174 320.99 966.949 320.201C967.725 319.413 968.777 318.969 969.874 318.969C970.97 318.969 972.022 319.413 972.798 320.201C973.574 320.99 974.009 322.06 974.009 323.175C974.009 324.29 973.574 325.36 972.798 326.149C972.022 326.937 970.97 327.38 969.874 327.38C968.777 327.38 967.725 326.937 966.949 326.149C966.174 325.36 965.738 324.29 965.738 323.175ZM867.312 323.175C867.312 322.06 867.747 320.99 868.523 320.201C869.298 319.413 870.35 318.969 871.447 318.969C872.544 318.969 873.596 319.413 874.371 320.201C875.147 320.99 875.583 322.06 875.583 323.175C875.583 324.29 875.147 325.36 874.371 326.149C873.596 326.937 872.544 327.38 871.447 327.38C870.35 327.38 869.298 326.937 868.523 326.149C867.747 325.36 867.312 324.29 867.312 323.175Z" fill="white"/>
<path d="M1068.3 327.38C1068.03 327.408 1067.77 327.408 1067.5 327.38L1066.73 327.156L1066.01 326.764C1065.79 326.602 1065.58 326.424 1065.38 326.231C1064.6 325.443 1064.17 324.374 1064.16 323.259C1064.17 322.145 1064.61 321.079 1065.38 320.287C1065.57 320.095 1065.78 319.926 1066.01 319.783C1066.23 319.614 1066.47 319.482 1066.73 319.39C1066.98 319.277 1067.23 319.192 1067.5 319.138C1068.04 319.026 1068.59 319.026 1069.13 319.138L1069.9 319.39C1070.15 319.482 1070.38 319.615 1070.59 319.783C1070.82 319.918 1071.04 320.088 1071.22 320.287C1071.99 321.079 1072.43 322.145 1072.44 323.259C1072.43 324.374 1072 325.443 1071.22 326.231C1071.03 326.43 1070.82 326.609 1070.59 326.764C1070.37 326.911 1070.14 327.042 1069.9 327.156L1069.13 327.38C1068.85 327.408 1068.58 327.408 1068.3 327.38Z" fill="white"/>
<path d="M1064.16 839.549C1064.16 838.433 1064.6 837.364 1065.38 836.575C1066.15 835.786 1067.2 835.343 1068.3 835.343C1069.4 835.343 1070.45 835.786 1071.22 836.575C1072 837.364 1072.44 838.433 1072.44 839.549C1072.44 840.664 1072 841.734 1071.22 842.522C1070.45 843.311 1069.4 843.754 1068.3 843.754C1067.2 843.754 1066.15 843.311 1065.38 842.522C1064.6 841.734 1064.16 840.664 1064.16 839.549ZM1064.16 736.291C1064.16 735.176 1064.6 734.106 1065.38 733.317C1066.15 732.528 1067.2 732.085 1068.3 732.085C1069.4 732.085 1070.45 732.528 1071.22 733.317C1072 734.106 1072.44 735.176 1072.44 736.291C1072.44 737.406 1072 738.476 1071.22 739.265C1070.45 740.053 1069.4 740.496 1068.3 740.496C1067.2 740.496 1066.15 740.053 1065.38 739.265C1064.6 738.476 1064.16 737.406 1064.16 736.291ZM1064.16 633.005C1064.16 631.89 1064.6 630.82 1065.38 630.031C1066.15 629.243 1067.2 628.799 1068.3 628.799C1069.4 628.799 1070.45 629.243 1071.22 630.031C1072 630.82 1072.44 631.89 1072.44 633.005C1072.44 634.12 1072 635.19 1071.22 635.979C1070.45 636.767 1069.4 637.21 1068.3 637.21C1067.76 637.21 1067.22 637.102 1066.72 636.89C1066.22 636.679 1065.76 636.369 1065.38 635.979C1064.99 635.588 1064.69 635.124 1064.48 634.614C1064.27 634.104 1064.16 633.557 1064.16 633.005ZM1064.16 529.719C1064.16 528.604 1064.6 527.534 1065.38 526.745C1066.15 525.957 1067.2 525.514 1068.3 525.514C1069.4 525.514 1070.45 525.957 1071.22 526.745C1072 527.534 1072.44 528.604 1072.44 529.719C1072.44 530.834 1072 531.904 1071.22 532.693C1070.45 533.481 1069.4 533.924 1068.3 533.924C1067.21 533.925 1066.17 533.489 1065.4 532.713C1064.62 531.936 1064.18 530.881 1064.16 529.775V529.719ZM1064.16 426.461C1064.16 425.346 1064.6 424.276 1065.38 423.487C1066.15 422.699 1067.2 422.256 1068.3 422.256C1069.4 422.256 1070.45 422.699 1071.22 423.487C1072 424.276 1072.44 425.346 1072.44 426.461C1072.44 427.576 1072 428.646 1071.22 429.435C1070.45 430.223 1069.4 430.667 1068.3 430.667C1067.76 430.667 1067.22 430.558 1066.72 430.346C1066.22 430.135 1065.76 429.825 1065.38 429.435C1064.99 429.044 1064.69 428.581 1064.48 428.07C1064.27 427.56 1064.16 427.013 1064.16 426.461Z" fill="white"/>
<path d="M1068.3 947.04C1067.48 947.039 1066.68 946.792 1066 946.33C1065.33 945.868 1064.8 945.211 1064.48 944.443C1064.17 943.675 1064.09 942.83 1064.25 942.015C1064.41 941.2 1064.8 940.451 1065.38 939.863C1065.58 939.67 1065.79 939.492 1066.01 939.33L1066.73 938.938L1067.5 938.713C1068.04 938.601 1068.59 938.601 1069.13 938.713L1069.9 938.938C1070.14 939.051 1070.37 939.183 1070.59 939.33C1070.82 939.485 1071.03 939.663 1071.22 939.863C1072 940.651 1072.43 941.72 1072.44 942.835C1072.44 943.388 1072.34 943.936 1072.13 944.447C1071.92 944.958 1071.61 945.42 1071.22 945.807C1070.45 946.595 1069.4 947.039 1068.3 947.04Z" fill="white"/>
<path d="M152.74 945.302H39.1226V946.003H152.74V945.302Z" fill="#E0E0E0"/>
<path d="M384.332 939.695H270.384V940.395H384.332V939.695Z" fill="#E0E0E0"/>
<path d="M532.606 939.695H505.036V940.395H532.606V939.695Z" fill="#E0E0E0"/>
<path d="M257.039 963.638H129.526V964.339H257.039V963.638Z" fill="#E0E0E0"/>
<path d="M698.084 944.938H638.532V945.638H698.084V944.938Z" fill="#E0E0E0"/>
<path d="M799.626 944.938H722.622V945.638H799.626V944.938Z" fill="#E0E0E0"/>
<path d="M1171 956.797H998.85V957.498H1171V956.797Z" fill="#E0E0E0"/>
<path d="M534.343 91.4267H407.326L414.274 10.9343H541.263L534.343 91.4267Z" fill="#EBEBEB"/>
<path d="M536.907 0L533.433 42.0265L529.959 92.548H407.822L414.77 0H536.907Z" fill="#FAFAFA"/>
<path d="M525.245 10.9343L532.165 91.4267H405.176L398.228 10.9343H409.035L412.785 4.87842H447L451.907 10.9343H525.245Z" fill="#E0E0E0"/>
<path d="M731.196 109.398H596.046V246.832H731.196V109.398Z" fill="#EBEBEB"/>
<path d="M734.642 109.398H731.196V246.832H734.642V109.398Z" fill="#E0E0E0"/>
<path d="M718.679 122.126H608.508V234.16H718.679V122.126Z" fill="#F5F5F5"/>
<path d="M609.555 122.126H608.535V234.16H609.555V122.126Z" fill="#E0E0E0"/>
<path d="M664.641 194.32C676.503 194.32 686.118 181.868 686.118 166.508C686.118 151.148 676.503 138.696 664.641 138.696C652.779 138.696 643.164 151.148 643.164 166.508C643.164 181.868 652.779 194.32 664.641 194.32Z" fill="#E0E0E0"/>
<path d="M653.42 208.394H676.055V185.376H653.42V208.394Z" fill="#E0E0E0"/>
<path d="M705.445 234.16H622.513V226.31C622.513 219.141 625.314 212.267 630.298 207.198C635.282 202.13 642.042 199.282 649.091 199.282H678.978C686.027 199.282 692.787 202.13 697.771 207.198C702.755 212.267 705.556 219.141 705.556 226.31V234.16H705.445Z" fill="#E0E0E0"/>
<path d="M620.445 187.395C620.445 191.965 628.717 195.806 628.717 195.806C628.717 195.806 636.988 192.077 636.988 187.395C636.988 185.208 634.01 183.974 632.053 184.591C631.303 184.857 630.612 185.272 630.02 185.811C629.429 186.349 628.948 187.002 628.606 187.731C627.551 186.285 626.158 185.129 624.553 184.367C624.083 184.199 623.579 184.15 623.086 184.223C622.593 184.297 622.124 184.491 621.72 184.788C621.317 185.086 620.99 185.478 620.768 185.932C620.546 186.386 620.435 186.888 620.445 187.395Z" fill="#E0E0E0"/>
<path d="M693.838 166.956C693.838 172.984 704.563 177.863 704.563 177.863C704.563 177.863 715.288 172.984 715.288 166.956C715.288 164.153 711.318 162.499 708.809 163.228C706.917 163.996 705.394 165.485 704.563 167.377C703.164 165.488 701.339 163.969 699.242 162.947C698.621 162.724 697.956 162.657 697.304 162.754C696.652 162.851 696.033 163.108 695.501 163.503C694.968 163.898 694.539 164.419 694.249 165.02C693.959 165.622 693.818 166.287 693.838 166.956Z" fill="#E0E0E0"/>
<path d="M457.973 853.09C459.241 861.193 465.003 868.174 465.444 876.36C465.803 882.781 462.853 888.809 461.391 895.061C459.93 901.313 460.647 909.079 466.023 912.387C467.979 913.398 470.165 913.861 472.355 913.727C474.545 913.594 476.661 912.871 478.485 911.63C482.086 909.096 485.059 905.747 487.17 901.845C495.627 887.945 500.246 871.985 500.542 855.642C500.542 848.773 499.852 841.483 495.882 836.016C483.586 818.549 454.83 832.904 457.973 853.09Z" fill="#F5F5F5"/>
<path d="M447.744 831.643C448.93 832.96 450.476 833.887 452.183 834.306C453.216 834.648 454.317 834.716 455.383 834.505C456.449 834.294 457.445 833.811 458.276 833.1C458.91 832.273 459.36 831.316 459.598 830.295C459.836 829.274 459.855 828.214 459.655 827.185C459.486 824.603 458.618 822.119 457.146 820.007C456.406 818.967 455.425 818.128 454.29 817.565C453.155 817.003 451.901 816.734 450.639 816.783C449.38 816.889 448.194 817.431 447.281 818.319C446.367 819.207 445.781 820.387 445.621 821.662C445.315 825.131 446.055 828.612 447.744 831.643Z" fill="#F5F5F5"/>
<path d="M470.655 814.792C470.092 813.906 469.284 813.207 468.333 812.783C467.382 812.359 466.33 812.229 465.307 812.409C464.295 812.64 463.374 813.175 462.666 813.945C461.958 814.715 461.494 815.685 461.336 816.727C461.292 817.408 461.292 818.092 461.336 818.774C461.347 819.876 461.467 820.976 461.695 822.054C461.925 823.093 462.409 824.057 463.101 824.857C464.047 825.793 465.248 826.418 466.547 826.652C467.351 826.848 468.19 826.843 468.991 826.637C469.793 826.432 470.534 826.033 471.152 825.474C471.7 824.795 472.11 824.011 472.356 823.168C472.602 822.326 472.68 821.442 472.585 820.568C472.522 818.49 471.85 816.479 470.655 814.792Z" fill="#F5F5F5"/>
<path d="M483.421 814.092C482.969 813.246 482.233 812.593 481.347 812.253C480.461 811.914 479.484 811.909 478.596 812.241C477.729 812.608 476.963 813.186 476.367 813.925C475.771 814.663 475.362 815.539 475.177 816.475C475.177 817.092 475.012 817.709 474.984 818.325C474.967 819.345 475.079 820.362 475.315 821.353C475.513 822.329 476.016 823.214 476.749 823.876C477.53 824.542 478.491 824.952 479.506 825.054C480.166 825.136 480.837 825.071 481.47 824.863C482.103 824.655 482.684 824.308 483.172 823.848C484.244 822.609 484.833 821.013 484.827 819.363C484.948 817.496 484.453 815.641 483.421 814.092Z" fill="#F5F5F5"/>
<path d="M494.807 816.783C493.456 814.737 492.05 814.596 490.506 815.465C489.134 816.486 488.158 817.965 487.749 819.643C487.594 820.184 487.483 820.737 487.418 821.297C487.269 822.225 487.269 823.172 487.418 824.101C487.598 824.999 488.111 825.792 488.852 826.316C489.535 826.749 490.338 826.946 491.14 826.876C492.183 826.782 493.16 826.315 493.897 825.559C494.911 824.452 495.558 823.05 495.744 821.549C496.024 819.897 495.69 818.199 494.807 816.783Z" fill="#F5F5F5"/>
<path d="M497.04 828.138C496.89 828.802 496.89 829.492 497.04 830.157C497.096 830.497 497.233 830.818 497.44 831.092C497.647 831.366 497.917 831.584 498.226 831.727C498.789 831.857 499.378 831.815 499.918 831.605C500.458 831.396 500.924 831.028 501.259 830.549C502.074 829.701 502.671 828.66 502.996 827.521C503.156 826.952 503.203 826.356 503.132 825.768C503.061 825.18 502.874 824.613 502.582 824.101C500.128 820.035 497.371 826.119 497.04 828.138Z" fill="#F5F5F5"/>
<path d="M499.273 1040.34C501.121 1033.73 502.196 1026.47 499.742 1020.05C492.16 1000.06 460.84 1006.42 458.772 1026.78L499.273 1040.34Z" fill="#F5F5F5"/>
<path d="M454.416 1003.39C455.235 1004.98 456.503 1006.28 458.056 1007.12C458.965 1007.72 460.009 1008.07 461.09 1008.15C462.17 1008.22 463.252 1008.01 464.231 1007.54C465.037 1006.9 465.699 1006.09 466.174 1005.17C466.649 1004.24 466.927 1003.23 466.988 1002.19C467.475 999.656 467.265 997.036 466.382 994.618C465.925 993.411 465.183 992.338 464.221 991.492C463.259 990.646 462.108 990.054 460.868 989.768C459.628 989.544 458.35 989.758 457.246 990.375C456.143 990.992 455.28 991.975 454.802 993.16C453.661 996.453 453.526 1000.02 454.416 1003.39Z" fill="#F5F5F5"/>
<path d="M480.829 993.048C480.502 992.046 479.895 991.162 479.082 990.505C478.269 989.848 477.286 989.446 476.252 989.347C475.216 989.312 474.192 989.591 473.313 990.151C472.434 990.71 471.739 991.524 471.317 992.487C471.074 993.128 470.872 993.783 470.711 994.45C470.432 995.513 470.265 996.603 470.214 997.702C470.145 998.796 470.364 999.89 470.848 1000.87C471.502 1001.99 472.459 1002.9 473.605 1003.48C474.331 1003.87 475.141 1004.08 475.963 1004.08C476.785 1004.08 477.594 1003.87 478.32 1003.48C479.043 1002.98 479.66 1002.34 480.133 1001.59C480.607 1000.84 480.928 1000.01 481.077 999.132C481.572 997.122 481.486 995.009 480.829 993.048Z" fill="#F5F5F5"/>
<path d="M493.235 995.711C493.01 994.788 492.472 993.975 491.716 993.416C490.959 992.857 490.033 992.588 489.1 992.655C488.167 992.791 487.281 993.156 486.517 993.718C485.753 994.279 485.135 995.021 484.716 995.879C484.467 996.438 484.246 997.008 484.054 997.59C483.744 998.542 483.559 999.532 483.503 1000.53C483.448 1001.52 483.699 1002.5 484.22 1003.34C484.83 1004.21 485.699 1004.87 486.701 1005.22C487.321 1005.47 487.988 1005.58 488.656 1005.54C489.323 1005.51 489.974 1005.32 490.561 1004.99C491.915 1004.09 492.895 1002.71 493.318 1001.12C493.877 999.358 493.848 997.456 493.235 995.711Z" fill="#F5F5F5"/>
<path d="M503.547 1001.29C502.775 998.935 501.314 998.487 499.742 998.879C498.136 999.487 496.79 1000.65 495.937 1002.16C495.662 1002.65 495.413 1003.16 495.193 1003.67C494.855 1004.51 494.651 1005.4 494.587 1006.31C494.534 1007.21 494.819 1008.1 495.386 1008.8C495.932 1009.41 496.659 1009.81 497.454 1009.95C498.486 1010.16 499.556 1009.97 500.459 1009.42C501.702 1008.61 502.666 1007.42 503.216 1006.03C503.889 1004.54 504.007 1002.86 503.547 1001.29Z" fill="#F5F5F5"/>
<path d="M502.885 1012.84C502.548 1013.43 502.35 1014.09 502.306 1014.78C502.279 1015.12 502.332 1015.46 502.462 1015.78C502.591 1016.1 502.793 1016.38 503.051 1016.6C503.561 1016.87 504.14 1016.99 504.714 1016.93C505.288 1016.87 505.831 1016.64 506.276 1016.26C507.274 1015.65 508.115 1014.8 508.73 1013.79C509.028 1013.28 509.223 1012.72 509.304 1012.13C509.384 1011.54 509.348 1010.95 509.199 1010.37C507.765 1005.8 503.768 1011.02 502.885 1012.84Z" fill="#F5F5F5"/>
<path d="M390.591 921.331C391.611 929.49 387.834 937.816 389.764 945.807C391.17 952.059 395.664 957.021 398.752 962.629C401.839 968.236 403.301 975.862 399 980.572C397.403 982.099 395.434 983.164 393.296 983.657C391.158 984.15 388.93 984.053 386.841 983.376C382.692 981.929 378.921 979.542 375.813 976.394C363.906 965.42 355.125 951.387 350.393 935.77C348.408 929.181 347.195 921.976 349.511 915.499C356.762 895.341 388.137 901.061 390.591 921.331Z" fill="#F5F5F5"/>
<path d="M394.478 897.893C393.703 899.487 392.473 900.806 390.949 901.677C390.054 902.303 389.015 902.684 387.934 902.782C386.852 902.88 385.763 902.693 384.773 902.238C383.934 901.625 383.235 900.833 382.726 899.918C382.216 899.004 381.909 897.987 381.823 896.939C381.291 894.413 381.444 891.787 382.264 889.341C382.71 888.119 383.448 887.029 384.41 886.168C385.372 885.306 386.53 884.701 387.779 884.407C389.015 884.152 390.299 884.336 391.418 884.928C392.537 885.52 393.422 886.484 393.927 887.659C394.699 890.267 395.664 895.341 394.478 897.893Z" fill="#F5F5F5"/>
<path d="M367.983 888.108C368.287 887.097 368.873 886.198 369.672 885.521C370.47 884.844 371.445 884.418 372.477 884.295C373.513 884.241 374.542 884.503 375.431 885.047C376.32 885.592 377.029 886.394 377.467 887.351C377.734 887.978 377.955 888.625 378.129 889.285C378.426 890.337 378.611 891.418 378.68 892.509C378.78 893.609 378.58 894.715 378.101 895.705C377.489 896.907 376.526 897.886 375.344 898.509C374.634 898.932 373.833 899.172 373.011 899.206C372.189 899.24 371.371 899.068 370.63 898.705C369.91 898.21 369.295 897.572 368.821 896.83C368.348 896.089 368.025 895.258 367.873 894.388C367.274 892.333 367.312 890.14 367.983 888.108Z" fill="#F5F5F5"/>
<path d="M355.521 891.024C355.724 890.082 356.254 889.246 357.014 888.67C357.773 888.093 358.711 887.814 359.657 887.884C360.589 887.999 361.479 888.343 362.252 888.885C363.025 889.427 363.658 890.151 364.096 890.995C364.361 891.55 364.591 892.121 364.785 892.706C365.122 893.654 365.336 894.644 365.419 895.65C365.475 896.634 365.234 897.612 364.73 898.453C364.142 899.342 363.293 900.019 362.304 900.388C361.69 900.658 361.026 900.785 360.358 900.761C359.69 900.736 359.036 900.561 358.444 900.248C357.096 899.364 356.114 898.007 355.687 896.435C355.047 894.699 354.988 892.796 355.521 891.024Z" fill="#F5F5F5"/>
<path d="M345.32 896.827C346.064 894.472 347.498 894.023 349.097 894.332C350.715 894.914 352.081 896.055 352.957 897.556C353.246 898.034 353.504 898.53 353.729 899.042C354.1 899.864 354.324 900.747 354.391 901.649C354.478 902.557 354.21 903.463 353.646 904.173C353.113 904.783 352.395 905.197 351.606 905.35C350.575 905.582 349.497 905.422 348.573 904.902C347.293 904.119 346.282 902.954 345.678 901.565C344.999 900.082 344.871 898.399 345.32 896.827Z" fill="#F5F5F5"/>
<path d="M346.257 908.266C346.599 908.859 346.815 909.517 346.892 910.2C346.922 910.544 346.873 910.89 346.749 911.212C346.624 911.533 346.428 911.82 346.175 912.051C345.664 912.328 345.085 912.449 344.507 912.399C343.93 912.349 343.379 912.131 342.921 911.77C341.912 911.186 341.059 910.358 340.44 909.359C340.127 908.856 339.919 908.293 339.829 907.704C339.739 907.116 339.768 906.515 339.916 905.939C341.212 901.425 345.32 906.555 346.257 908.266Z" fill="#F5F5F5"/>
<path d="M322.933 248.262C316.588 249.169 310.121 248.142 304.35 245.312C298.579 242.481 293.762 237.974 290.51 232.36C287.258 226.746 285.716 220.277 286.08 213.772C286.443 207.267 288.695 201.017 292.551 195.814C296.407 190.61 301.694 186.686 307.743 184.539C313.793 182.391 320.332 182.115 326.535 183.747C332.739 185.378 338.327 188.844 342.593 193.705C346.859 198.567 349.612 204.605 350.503 211.057C351.683 219.706 349.444 228.478 344.276 235.452C339.109 242.425 331.434 247.031 322.933 248.262ZM316.371 200.319C313.394 200.737 310.605 202.043 308.358 204.072C306.111 206.101 304.506 208.763 303.747 211.72C302.988 214.676 303.108 217.796 304.092 220.683C305.077 223.571 306.881 226.096 309.278 227.941C311.674 229.785 314.554 230.865 317.555 231.044C320.555 231.223 323.54 230.494 326.132 228.948C328.724 227.401 330.807 225.108 332.117 222.358C333.427 219.607 333.906 216.524 333.492 213.497C332.931 209.445 330.815 205.784 327.606 203.314C324.398 200.845 320.358 199.768 316.371 200.319Z" fill="#E0E0E0"/>
<path d="M310.789 117.369L298.61 119.098L309.551 198.761L321.729 197.032L310.789 117.369Z" fill="#E0E0E0"/>
<path d="M321.09 106.281L298.245 109.566L299.966 121.946L322.812 118.66L321.09 106.281Z" fill="#E0E0E0"/>
<path d="M322.968 123.122L301.479 126.17L303.177 138.555L324.667 135.507L322.968 123.122Z" fill="#E0E0E0"/>
<path d="M326.1 145.573L307.341 148.234L309.04 160.618L327.799 157.958L326.1 145.573Z" fill="#E0E0E0"/>
<path d="M580.082 1086.55C875.314 1086.55 1114.65 1072.34 1114.65 1054.81C1114.65 1037.28 875.314 1023.07 580.082 1023.07C284.851 1023.07 45.5188 1037.28 45.5188 1054.81C45.5188 1072.34 284.851 1086.55 580.082 1086.55Z" fill="#F5F5F5"/>
<path d="M297.403 527.745C322.821 500.744 319.94 455.992 290.968 427.789C261.996 399.585 217.904 398.611 192.486 425.612C167.068 452.612 169.949 497.364 198.921 525.568C227.893 553.771 271.985 554.746 297.403 527.745Z" fill="#407BFF"/>
<g opacity="0.8">
<path d="M297.403 527.745C322.821 500.744 319.94 455.992 290.968 427.789C261.996 399.585 217.904 398.61 192.486 425.611C167.068 452.612 169.949 497.364 198.921 525.567C227.893 553.771 271.985 554.746 297.403 527.745Z" fill="white"/>
</g>
<path d="M212.54 432.321C211.962 432.321 211.398 432.136 210.928 431.792C210.459 431.447 210.108 430.962 209.925 430.404C209.742 429.845 209.736 429.243 209.909 428.681C210.081 428.119 210.423 427.627 210.886 427.274C220.17 420.498 231.36 416.958 242.785 417.181C243.517 417.181 244.218 417.476 244.735 418.002C245.252 418.528 245.542 419.241 245.542 419.985C245.542 420.728 245.252 421.441 244.735 421.967C244.218 422.493 243.517 422.788 242.785 422.788C232.552 422.559 222.521 425.707 214.195 431.76C213.717 432.124 213.137 432.321 212.54 432.321Z" fill="#407BFF"/>
<path d="M225.581 528.766C225.129 528.764 224.684 528.648 224.286 528.43C215.836 523.835 208.505 517.377 202.828 509.528C197.151 501.678 193.273 492.637 191.477 483.067C189.725 474.788 189.806 466.216 191.713 457.973C193.621 449.73 197.307 442.021 202.505 435.405C202.973 434.832 203.645 434.472 204.374 434.404C205.103 434.336 205.829 434.565 206.392 435.04C206.955 435.516 207.31 436.2 207.377 436.941C207.444 437.683 207.219 438.421 206.751 438.994C202.055 444.982 198.73 451.959 197.018 459.418C195.306 466.877 195.25 474.63 196.853 482.113C198.505 490.863 202.054 499.127 207.243 506.305C212.433 513.483 219.131 519.394 226.85 523.607C227.389 523.903 227.816 524.373 228.063 524.943C228.31 525.513 228.363 526.15 228.215 526.754C228.066 527.359 227.724 527.896 227.242 528.28C226.76 528.665 226.166 528.875 225.554 528.878L225.581 528.766Z" fill="#407BFF"/>
<path d="M253.179 536.083C247.008 536.056 240.879 535.053 235.01 533.111C234.665 532.997 234.344 532.815 234.068 532.575C233.791 532.335 233.564 532.042 233.399 531.713C233.234 531.383 233.134 531.024 233.106 530.656C233.077 530.287 233.12 529.916 233.232 529.565C233.344 529.213 233.524 528.888 233.76 528.606C233.996 528.325 234.284 528.094 234.608 527.926C234.932 527.758 235.285 527.657 235.647 527.628C236.01 527.599 236.374 527.642 236.72 527.756C253.676 533.364 270.604 530.224 283.148 519.346C289.513 513.634 294.322 506.351 297.113 498.199C299.904 490.047 300.583 481.301 299.084 472.805C298.967 472.062 299.145 471.301 299.58 470.691C300.014 470.081 300.669 469.672 301.4 469.553C302.131 469.434 302.879 469.615 303.479 470.057C304.079 470.499 304.481 471.164 304.598 471.908C306.27 481.349 305.51 491.069 302.394 500.124C299.278 509.178 293.911 517.258 286.815 523.579C277.466 531.758 265.512 536.202 253.179 536.083Z" fill="#407BFF"/>
<path d="M299.553 465.628C298.968 465.626 298.399 465.434 297.928 465.082C297.457 464.729 297.109 464.233 296.934 463.666C294.398 455.704 290.245 448.373 284.746 442.147C279.246 435.922 272.521 430.941 265.007 427.527C264.334 427.229 263.805 426.672 263.536 425.978C263.268 425.284 263.281 424.51 263.573 423.826C263.866 423.142 264.414 422.604 265.096 422.33C265.779 422.057 266.54 422.071 267.213 422.368C275.441 426.109 282.805 431.566 288.828 438.385C294.85 445.205 299.396 453.235 302.172 461.955C302.398 462.662 302.339 463.431 302.009 464.093C301.678 464.755 301.102 465.257 300.408 465.488C300.13 465.573 299.843 465.62 299.553 465.628Z" fill="#407BFF"/>
<path d="M256.102 424.358C255.892 424.388 255.678 424.388 255.468 424.358C251.319 423.376 247.073 422.877 242.813 422.872C242.082 422.872 241.38 422.577 240.863 422.051C240.346 421.525 240.056 420.812 240.056 420.069C240.056 419.325 240.346 418.612 240.863 418.086C241.38 417.561 242.082 417.265 242.813 417.265C247.455 417.279 252.08 417.835 256.598 418.919C257.329 419.005 257.997 419.382 258.455 419.968C258.912 420.555 259.122 421.302 259.038 422.045C258.954 422.789 258.583 423.468 258.006 423.933C257.43 424.399 256.695 424.612 255.964 424.527L256.102 424.358Z" fill="#407BFF"/>
<path d="M207.468 491.338C206.904 491.339 206.354 491.166 205.891 490.84C205.427 490.514 205.073 490.052 204.876 489.515C202.292 482.731 201.383 475.406 202.229 468.182C203.075 460.958 205.65 454.055 209.728 448.077C213.584 442.415 218.748 437.802 224.766 434.644C230.785 431.486 237.474 429.88 244.247 429.966C244.978 429.966 245.679 430.261 246.196 430.787C246.713 431.313 247.004 432.026 247.004 432.77C247.004 433.513 246.713 434.226 246.196 434.752C245.679 435.278 244.978 435.573 244.247 435.573C238.363 435.503 232.551 436.897 227.318 439.633C222.085 442.37 217.589 446.366 214.222 451.274C210.646 456.537 208.395 462.614 207.67 468.969C206.944 475.324 207.764 481.764 210.059 487.721C210.309 488.416 210.278 489.184 209.973 489.856C209.669 490.528 209.115 491.051 208.433 491.309C208.115 491.373 207.789 491.382 207.468 491.338Z" fill="#407BFF"/>
<path d="M251.194 523.355C242.93 523.074 234.855 520.768 227.655 516.634C220.455 512.5 214.343 506.659 209.839 499.608C209.504 498.989 209.412 498.264 209.58 497.578C209.749 496.892 210.166 496.297 210.748 495.91C211.33 495.524 212.034 495.376 212.719 495.495C213.404 495.614 214.02 495.991 214.443 496.552C218.447 502.825 223.876 508.025 230.273 511.714C236.67 515.404 243.846 517.473 251.194 517.748C251.926 517.748 252.627 518.043 253.144 518.569C253.661 519.095 253.951 519.808 253.951 520.551C253.951 521.295 253.661 522.008 253.144 522.534C252.627 523.06 251.926 523.355 251.194 523.355Z" fill="#407BFF"/>
<path d="M261.506 522.15C260.876 522.168 260.259 521.967 259.757 521.579C259.255 521.192 258.899 520.641 258.749 520.019C258.574 519.298 258.687 518.535 259.065 517.899C259.442 517.263 260.052 516.805 260.761 516.626C283.121 511.019 288.911 491.085 287.063 475.778C284.665 455.816 269.17 435.601 244.164 435.573C243.433 435.573 242.731 435.278 242.214 434.752C241.697 434.226 241.407 433.513 241.407 432.77C241.407 432.026 241.697 431.313 242.214 430.787C242.731 430.261 243.433 429.966 244.164 429.966C272.368 429.966 289.848 452.676 292.55 475.105C295.307 498.235 283.369 516.683 262.085 522.066C261.895 522.114 261.701 522.143 261.506 522.15Z" fill="#407BFF"/>
<path d="M232.97 451.049C232.448 451.045 231.937 450.89 231.497 450.602C231.058 450.314 230.708 449.905 230.489 449.423C230.178 448.75 230.143 447.979 230.391 447.28C230.639 446.58 231.151 446.01 231.812 445.694C236.039 443.793 240.618 442.837 245.239 442.89C245.97 442.89 246.671 443.186 247.189 443.711C247.706 444.237 247.996 444.95 247.996 445.694C247.996 446.438 247.706 447.151 247.189 447.676C246.671 448.202 245.97 448.498 245.239 448.498C241.434 448.5 237.673 449.332 234.211 450.937C233.811 451.07 233.387 451.108 232.97 451.049Z" fill="#407BFF"/>
<path d="M250.698 510.29C243.715 510.176 236.911 508.029 231.092 504.104C225.272 500.178 220.681 494.639 217.862 488.141C212.155 475.497 213.836 462.292 222.356 452.759C222.85 452.214 223.537 451.891 224.265 451.859C224.994 451.827 225.705 452.091 226.243 452.591C226.779 453.094 227.098 453.792 227.129 454.533C227.16 455.274 226.901 455.997 226.409 456.544C222.983 460.485 220.812 465.388 220.182 470.608C219.552 475.829 220.492 481.121 222.88 485.786C225.316 491.449 229.336 496.26 234.438 499.619C239.541 502.979 245.502 504.74 251.58 504.683C256.179 504.649 260.669 503.262 264.51 500.69C268.35 498.118 271.376 494.471 273.223 490.188C275.3 485.136 275.925 479.589 275.027 474.19C274.13 468.791 271.745 463.761 268.15 459.684C267.915 459.405 267.736 459.08 267.624 458.73C267.512 458.38 267.469 458.011 267.497 457.644C267.525 457.277 267.624 456.919 267.788 456.591C267.952 456.263 268.178 455.971 268.454 455.731C268.729 455.492 269.048 455.31 269.392 455.196C269.736 455.082 270.099 455.038 270.46 455.067C270.821 455.095 271.173 455.196 271.496 455.363C271.818 455.53 272.106 455.76 272.341 456.04C276.621 460.921 279.45 466.938 280.499 473.39C281.548 479.842 280.775 486.464 278.269 492.487C276.006 497.741 272.3 502.219 267.595 505.382C262.889 508.546 257.386 510.26 251.746 510.318L250.698 510.29Z" fill="#407BFF"/>
<path d="M262.305 453.516C261.785 453.519 261.276 453.363 260.844 453.068C256.189 450.021 250.775 448.387 245.239 448.358C244.508 448.358 243.807 448.062 243.29 447.536C242.773 447.011 242.482 446.297 242.482 445.554C242.482 444.81 242.773 444.097 243.29 443.571C243.807 443.046 244.508 442.75 245.239 442.75C251.824 442.775 258.264 444.721 263.794 448.358C264.294 448.686 264.675 449.169 264.882 449.736C265.09 450.302 265.111 450.922 264.944 451.502C264.776 452.082 264.429 452.592 263.953 452.955C263.478 453.318 262.9 453.515 262.305 453.516Z" fill="#407BFF"/>
<path d="M249.237 497.645C246.015 497.623 242.838 496.884 239.928 495.479C237.017 494.075 234.445 492.039 232.391 489.515C229.741 486.431 228.02 482.636 227.434 478.585C226.847 474.533 227.42 470.395 229.083 466.665C230.568 463.28 232.997 460.412 236.07 458.419C239.143 456.425 242.725 455.393 246.37 455.451C247.101 455.451 247.802 455.746 248.319 456.272C248.836 456.798 249.127 457.511 249.127 458.254C249.127 458.998 248.836 459.711 248.319 460.237C247.802 460.763 247.101 461.058 246.37 461.058C243.792 461.01 241.256 461.73 239.076 463.13C236.896 464.53 235.166 466.549 234.101 468.936C232.888 471.69 232.48 474.739 232.925 477.722C233.37 480.705 234.649 483.494 236.61 485.758C238.561 488.19 241.152 490.009 244.081 491.001C247.01 491.994 250.155 492.12 253.152 491.365C255.59 490.807 257.819 489.549 259.573 487.74C261.328 485.931 262.535 483.647 263.05 481.16C263.208 480.436 263.642 479.805 264.257 479.405C264.872 479.006 265.618 478.871 266.331 479.029C266.686 479.106 267.023 479.253 267.322 479.462C267.621 479.672 267.876 479.939 268.074 480.249C268.271 480.559 268.406 480.906 268.471 481.269C268.536 481.632 268.53 482.005 268.453 482.366C267.723 485.874 266.022 489.098 263.551 491.656C261.079 494.214 257.94 496 254.503 496.804C252.787 497.297 251.019 497.579 249.237 497.645Z" fill="#407BFF"/>
<path d="M265.283 475.441C264.675 475.469 264.075 475.292 263.576 474.937C263.077 474.582 262.708 474.069 262.526 473.478C261.426 469.966 259.275 466.889 256.374 464.678C253.473 462.467 249.966 461.231 246.342 461.142C245.611 461.142 244.91 460.847 244.392 460.321C243.875 459.795 243.585 459.082 243.585 458.339C243.585 457.595 243.875 456.882 244.392 456.356C244.91 455.831 245.611 455.535 246.342 455.535C251.136 455.644 255.777 457.268 259.621 460.182C263.465 463.096 266.321 467.156 267.792 471.796C267.903 472.148 267.945 472.518 267.915 472.886C267.885 473.255 267.784 473.613 267.618 473.941C267.451 474.27 267.223 474.561 266.945 474.799C266.667 475.037 266.346 475.217 266 475.329C265.767 475.398 265.526 475.436 265.283 475.441Z" fill="#407BFF"/>
<path d="M249.981 485.982C249.25 485.982 248.549 485.687 248.032 485.161C247.515 484.635 247.224 483.922 247.224 483.179C247.224 482.435 247.515 481.722 248.032 481.196C248.549 480.671 249.25 480.375 249.981 480.375C250.358 480.376 250.73 480.298 251.076 480.147C251.422 479.996 251.733 479.774 251.992 479.495C252.25 479.217 252.449 478.888 252.578 478.528C252.706 478.168 252.761 477.785 252.738 477.403C252.753 476.857 252.661 476.314 252.467 475.805C252.273 475.295 251.982 474.83 251.61 474.436C251.238 474.042 250.793 473.727 250.3 473.51C249.808 473.293 249.277 473.177 248.74 473.17C248.336 473.181 247.938 473.273 247.569 473.441C247.199 473.61 246.867 473.851 246.59 474.151C246.307 474.49 246.094 474.883 245.961 475.306C245.829 475.73 245.78 476.176 245.818 476.618C245.84 476.986 245.79 477.355 245.671 477.704C245.553 478.053 245.368 478.374 245.127 478.65C244.887 478.926 244.595 479.151 244.269 479.312C243.943 479.474 243.588 479.568 243.226 479.59C242.864 479.612 242.501 479.562 242.159 479.441C241.816 479.321 241.5 479.133 241.228 478.888C240.957 478.643 240.736 478.346 240.577 478.015C240.418 477.683 240.326 477.323 240.304 476.955C240.206 475.778 240.345 474.594 240.714 473.474C241.082 472.354 241.672 471.323 242.446 470.443C243.221 469.564 244.164 468.855 245.218 468.359C246.272 467.864 247.414 467.593 248.575 467.562C249.837 467.566 251.086 467.824 252.249 468.322C253.412 468.82 254.467 469.548 255.352 470.463C256.236 471.378 256.934 472.463 257.403 473.654C257.873 474.846 258.105 476.12 258.087 477.403C258.109 478.522 257.911 479.634 257.505 480.674C257.1 481.714 256.494 482.661 255.724 483.46C254.953 484.259 254.034 484.893 253.02 485.326C252.005 485.76 250.916 485.983 249.816 485.982H249.981Z" fill="#407BFF"/>
<path d="M320.92 476.646C324.284 515.701 295.859 547.354 257.508 547.354H254.53C291.089 545.448 317.639 514.552 314.386 476.731C312.507 458.218 304.251 440.977 291.077 428.058C277.903 415.139 260.661 407.373 242.399 406.135C243.364 406.135 244.357 406.135 245.349 406.135C283.81 405.967 317.667 437.62 320.92 476.646Z" fill="#407BFF"/>
<g opacity="0.4">
<path d="M320.92 476.646C324.284 515.701 295.859 547.354 257.508 547.354H254.53C291.089 545.448 317.639 514.552 314.386 476.731C312.507 458.218 304.251 440.977 291.077 428.058C277.903 415.139 260.661 407.373 242.399 406.135C243.364 406.135 244.357 406.135 245.349 406.135C283.81 405.967 317.667 437.62 320.92 476.646Z" fill="white"/>
</g>
<path d="M377.219 132.052C377.287 132.889 377.397 133.721 377.55 134.547C378.59 139.949 381.317 144.865 385.325 148.565C389.866 152.889 395.839 155.321 402.06 155.378H635.003C637.722 155.434 640.425 154.939 642.954 153.923C645.483 152.906 647.789 151.389 649.736 149.458C651.683 147.528 653.234 145.223 654.297 142.677C655.36 140.131 655.915 137.396 655.929 134.631C655.97 133.8 655.97 132.967 655.929 132.136C655.279 125.858 652.401 120.037 647.833 115.764C643.265 111.49 637.321 109.057 631.115 108.922H398.117C395.197 108.861 392.297 109.434 389.61 110.601C386.924 111.768 384.512 113.503 382.535 115.691C380.559 117.878 379.063 120.469 378.146 123.289C377.229 126.11 376.913 129.097 377.219 132.052Z" fill="#407BFF"/>
<path opacity="0.8" d="M377.219 132.052C377.287 132.889 377.397 133.721 377.55 134.547C378.59 139.949 381.317 144.865 385.325 148.565C389.866 152.889 395.839 155.321 402.06 155.378H635.003C637.722 155.434 640.425 154.939 642.954 153.923C645.483 152.906 647.789 151.389 649.736 149.458C651.683 147.528 653.234 145.223 654.297 142.677C655.36 140.131 655.915 137.396 655.929 134.631C655.97 133.8 655.97 132.967 655.929 132.136C655.279 125.858 652.401 120.037 647.833 115.764C643.265 111.49 637.321 109.057 631.115 108.922H398.117C395.197 108.861 392.297 109.434 389.61 110.601C386.924 111.768 384.512 113.503 382.535 115.691C380.559 117.878 379.063 120.469 378.146 123.289C377.229 126.11 376.913 129.097 377.219 132.052Z" fill="white"/>
<path d="M655.929 134.463C655.929 135.213 655.874 135.963 655.763 136.706C654.941 130.57 651.988 124.937 647.437 120.823C642.886 116.709 637.038 114.387 630.95 114.276L383.284 114.837C385.248 112.895 387.569 111.366 390.114 110.336C392.659 109.307 395.379 108.797 398.117 108.837H631.06C637.266 108.973 643.21 111.406 647.778 115.68C652.346 119.953 655.224 125.774 655.874 132.052C655.93 132.854 655.949 133.658 655.929 134.463Z" fill="#407BFF"/>
<path opacity="0.5" d="M655.929 134.463C655.929 135.213 655.874 135.963 655.763 136.706C654.941 130.57 651.988 124.937 647.437 120.823C642.886 116.709 637.038 114.387 630.95 114.276L383.284 114.837C385.248 112.895 387.569 111.366 390.114 110.336C392.659 109.307 395.379 108.797 398.117 108.837H631.06C637.266 108.973 643.21 111.406 647.778 115.68C652.346 119.953 655.224 125.774 655.874 132.052C655.93 132.854 655.949 133.658 655.929 134.463Z" fill="white"/>
<path d="M615.924 120.052L616.916 131.267L627.283 127.342L629.737 132.949L619.15 136.537L626.759 146.042L621.989 149.602L614.573 139.734L609.059 149.602L603.848 146.042L609.721 136.537L598.692 132.949L600.181 127.342L611.347 131.126L610.355 119.912L615.924 120.052Z" fill="#407BFF"/>
<path d="M552.098 120.052L553.091 131.266L563.458 127.341L565.939 132.948L555.269 136.621L562.879 146.126L558.136 149.686L550.72 139.817L545.206 149.686L539.967 146.126L545.868 136.621L534.839 133.033L536.328 127.425L547.494 131.21L546.529 119.996L552.098 120.052Z" fill="#407BFF"/>
<path d="M488.411 120.052L489.376 131.266L499.742 127.341L502.223 132.948L491.609 136.537L499.218 146.041L494.614 149.686L487.197 139.817L481.683 149.686L476.473 146.126L482.345 136.621L471.317 133.033L472.833 127.425L483.861 131.21L482.896 119.996L488.411 120.052Z" fill="#407BFF"/>
<path d="M424.695 120.052L425.66 131.267L436.054 127.342L438.508 132.949L427.894 136.537L435.531 146.042L430.761 149.602L423.344 139.734L417.83 149.602L412.62 146.042L418.492 136.537L407.464 132.949L408.953 127.342L419.981 131.126L419.016 119.912L424.695 120.052Z" fill="#407BFF"/>
<path d="M579.117 97.8472H568.255V100.651H579.117V97.8472Z" fill="#407BFF"/>
<path d="M625.794 97.8472H590.366V100.651H625.794V97.8472Z" fill="#407BFF"/>
<path opacity="0.8" d="M987.546 202.422L976.27 333.52C975.835 337.704 973.916 341.584 970.871 344.433C967.826 347.281 963.864 348.904 959.728 348.996H870.206C868.269 349.007 866.351 348.602 864.578 347.808C862.804 347.015 861.215 345.85 859.915 344.389C858.614 342.929 857.63 341.206 857.029 339.333C856.427 337.461 856.22 335.48 856.421 333.52L867.698 202.394C868.115 198.203 870.029 194.313 873.078 191.461C876.127 188.609 880.098 186.993 884.24 186.918H973.761C975.701 186.907 977.622 187.313 979.397 188.108C981.173 188.904 982.763 190.071 984.064 191.535C985.365 192.998 986.348 194.724 986.948 196.6C987.548 198.477 987.752 200.46 987.546 202.422Z" fill="#407BFF"/>
<path opacity="0.8" d="M987.546 202.422L976.27 333.52C975.835 337.704 973.916 341.584 970.871 344.433C967.826 347.281 963.864 348.904 959.728 348.996H870.206C868.269 349.007 866.351 348.602 864.578 347.808C862.804 347.015 861.215 345.85 859.915 344.389C858.614 342.929 857.63 341.206 857.029 339.333C856.427 337.461 856.22 335.48 856.421 333.52L867.698 202.394C868.115 198.203 870.029 194.313 873.078 191.461C876.127 188.609 880.098 186.993 884.24 186.918H973.761C975.701 186.907 977.622 187.313 979.397 188.108C981.173 188.904 982.763 190.071 984.064 191.535C985.365 192.998 986.348 194.724 986.948 196.6C987.548 198.477 987.752 200.46 987.546 202.422Z" fill="white"/>
<path d="M875.858 223.562H875.61C874.883 223.498 874.211 223.143 873.74 222.575C873.27 222.008 873.04 221.273 873.101 220.534L874.149 208.534C874.211 207.835 874.529 207.185 875.039 206.713C875.55 206.241 876.216 205.98 876.906 205.983H889.368C890.099 205.983 890.8 206.278 891.317 206.804C891.834 207.33 892.125 208.043 892.125 208.787C892.125 209.53 891.834 210.243 891.317 210.769C890.8 211.295 890.099 211.59 889.368 211.59H879.442L878.615 221.01C878.553 221.709 878.236 222.359 877.725 222.832C877.215 223.304 876.548 223.565 875.858 223.562Z" fill="#407BFF"/>
<path d="M976.105 223.562H975.856C975.129 223.498 974.457 223.143 973.987 222.575C973.516 222.008 973.286 221.273 973.348 220.534L974.12 211.59H964.69C963.959 211.59 963.258 211.295 962.741 210.769C962.224 210.243 961.933 209.53 961.933 208.787C961.933 208.043 962.224 207.33 962.741 206.804C963.258 206.278 963.959 205.983 964.69 205.983H977.097C977.481 205.981 977.861 206.061 978.213 206.218C978.565 206.374 978.88 206.604 979.14 206.891C979.399 207.179 979.597 207.519 979.72 207.888C979.843 208.258 979.889 208.65 979.854 209.039L978.806 221.01C978.745 221.7 978.435 222.342 977.937 222.813C977.438 223.284 976.785 223.551 976.105 223.562Z" fill="#407BFF"/>
<path d="M880.6 314.035H868.139C867.761 314.034 867.387 313.954 867.04 313.799C866.694 313.645 866.383 313.42 866.126 313.138C865.868 312.852 865.671 312.516 865.548 312.149C865.424 311.782 865.377 311.393 865.409 311.007L866.429 299.008C866.491 298.264 866.841 297.576 867.402 297.095C867.963 296.614 868.689 296.379 869.421 296.442C870.152 296.505 870.828 296.861 871.301 297.432C871.775 298.002 872.005 298.741 871.943 299.484L871.171 308.428H880.6C881.332 308.428 882.033 308.723 882.55 309.249C883.067 309.775 883.357 310.488 883.357 311.231C883.357 311.975 883.067 312.688 882.55 313.214C882.033 313.74 881.332 314.035 880.6 314.035Z" fill="#407BFF"/>
<path d="M968.302 314.035H955.868C955.136 314.035 954.435 313.74 953.918 313.214C953.401 312.688 953.111 311.975 953.111 311.231C953.111 310.488 953.401 309.775 953.918 309.249C954.435 308.723 955.136 308.428 955.868 308.428H965.793L966.593 299.007C966.656 298.268 967.005 297.584 967.563 297.106C968.121 296.628 968.843 296.394 969.57 296.456C970.297 296.52 970.97 296.875 971.44 297.443C971.91 298.01 972.14 298.744 972.079 299.484L971.059 311.484C970.997 312.183 970.679 312.833 970.169 313.305C969.658 313.777 968.992 314.038 968.302 314.035Z" fill="#407BFF"/>
<path d="M958.813 268.831C965.037 244.287 954.353 220.265 934.949 215.177C915.546 210.088 894.77 225.861 888.546 250.405C882.322 274.95 893.006 298.972 912.41 304.06C931.813 309.148 952.589 293.376 958.813 268.831Z" fill="white"/>
<path d="M934.501 329.399H898.797L901.912 293.092H937.616L934.501 329.399Z" fill="white"/>
<path d="M976.27 333.521C975.835 337.705 973.915 341.584 970.871 344.433C967.826 347.281 963.864 348.904 959.728 348.997H870.206C868.269 349.007 866.351 348.603 864.578 347.809C862.804 347.015 861.215 345.85 859.915 344.39C858.614 342.929 857.63 341.206 857.029 339.334C856.427 337.461 856.22 335.48 856.421 333.521C856.421 333.521 897.556 320.287 902.629 320.287H934.418L976.27 333.521Z" fill="white"/>
<path d="M992.746 240.735L988.573 292.232L991.321 292.462L995.494 240.965L992.746 240.735Z" fill="#407BFF"/>
<path d="M995.646 217.171L994.826 227.286L997.574 227.516L998.394 217.401L995.646 217.171Z" fill="#407BFF"/>
<path d="M899.569 529.971H888.706V532.775H899.569V529.971Z" fill="#407BFF"/>
<path d="M946.245 529.971H910.817V532.775H946.245V529.971Z" fill="#407BFF"/>
<path d="M1011.09 482.113L1004.23 562.017C1003.87 565.548 1002.25 568.824 999.683 571.226C997.113 573.628 993.766 574.99 990.276 575.053C988.633 575.083 987.003 574.757 985.494 574.097C983.985 573.436 982.632 572.457 981.523 571.224C980.415 569.991 979.578 568.532 979.066 566.945C978.555 565.357 978.382 563.677 978.558 562.017L985.368 482.113C986.002 476.153 985.383 470.125 983.551 464.428C981.719 458.73 978.717 453.494 974.744 449.066C970.77 444.638 965.916 441.12 960.504 438.746C955.091 436.371 949.244 435.194 943.351 435.292H915.339C902.811 435.533 890.802 440.428 881.579 449.053C872.356 457.678 866.555 469.438 865.271 482.113L862.514 514.747H836.874L839.631 482.113C843.077 441.909 878.064 409.218 917.572 409.218H945.694C954.87 409.065 963.972 410.897 972.398 414.594C980.824 418.291 988.38 423.769 994.565 430.663C1000.75 437.556 1005.42 445.709 1008.27 454.58C1011.12 463.45 1012.08 472.836 1011.09 482.113Z" fill="#407BFF"/>
<g opacity="0.5">
<path d="M1011.09 482.113L1004.23 562.017C1003.87 565.548 1002.25 568.824 999.683 571.226C997.113 573.628 993.766 574.99 990.276 575.053C988.633 575.083 987.003 574.757 985.494 574.097C983.985 573.436 982.632 572.457 981.523 571.224C980.415 569.991 979.578 568.532 979.066 566.945C978.555 565.357 978.382 563.677 978.558 562.017L985.368 482.113C986.002 476.153 985.383 470.125 983.551 464.428C981.719 458.73 978.717 453.494 974.744 449.066C970.77 444.638 965.916 441.12 960.504 438.746C955.091 436.371 949.244 435.194 943.351 435.292H915.339C902.811 435.533 890.802 440.428 881.579 449.053C872.356 457.678 866.555 469.438 865.271 482.113L862.514 514.747H836.874L839.631 482.113C843.077 441.909 878.064 409.218 917.572 409.218H945.694C954.87 409.065 963.972 410.897 972.398 414.594C980.824 418.291 988.38 423.769 994.565 430.663C1000.75 437.556 1005.42 445.709 1008.27 454.58C1011.12 463.45 1012.08 472.836 1011.09 482.113Z" fill="white"/>
</g>
<path d="M1012.94 559.101L999.567 714.815C999.081 719.643 996.871 724.122 993.354 727.404C989.838 730.685 985.26 732.54 980.488 732.618H827.362C825.119 732.659 822.893 732.215 820.833 731.313C818.772 730.412 816.924 729.074 815.411 727.39C813.898 725.706 812.756 723.713 812.059 721.545C811.362 719.377 811.128 717.083 811.371 714.815L824.77 559.101C825.078 555.996 826.103 553.01 827.76 550.384C829.418 547.758 831.662 545.567 834.309 543.989C837.184 542.2 840.479 541.231 843.849 541.186H996.948C1000.08 541.168 1003.14 542.053 1005.8 543.737C1008.27 545.37 1010.25 547.673 1011.52 550.387C1012.78 553.101 1013.27 556.118 1012.94 559.101Z" fill="#407BFF"/>
<path d="M853.719 627.117L893.503 689.386L1024.71 555.961C1024.91 555.713 1025.02 555.4 1025.02 555.078C1025.01 554.756 1024.89 554.447 1024.68 554.206C1024.47 553.965 1024.19 553.809 1023.87 553.765C1023.56 553.722 1023.24 553.795 1022.97 553.97L897.942 653.639L874.314 614.921L853.719 627.117Z" fill="white"/>
<path d="M227.18 325.978H127.431C122.815 325.893 118.39 324.092 114.992 320.915C111.593 317.738 109.457 313.406 108.986 308.736L100.356 207.356C100.117 205.161 100.34 202.939 101.012 200.839C101.684 198.738 102.789 196.808 104.253 195.176C105.717 193.544 107.506 192.249 109.501 191.376C111.496 190.503 113.652 190.073 115.823 190.114H215.463C220.061 190.22 224.462 192.031 227.839 195.207C231.216 198.382 233.335 202.703 233.797 207.356L242.51 308.68C242.756 310.868 242.542 313.084 241.882 315.181C241.222 317.278 240.131 319.209 238.681 320.845C237.232 322.48 235.457 323.784 233.474 324.669C231.491 325.554 229.346 326 227.18 325.978Z" fill="#407BFF"/>
<path opacity="0.8" d="M227.18 325.978H127.431C122.815 325.893 118.39 324.092 114.992 320.915C111.593 317.738 109.457 313.406 108.986 308.736L100.356 207.356C100.117 205.161 100.34 202.939 101.012 200.839C101.684 198.738 102.789 196.808 104.253 195.176C105.717 193.544 107.506 192.249 109.501 191.376C111.496 190.503 113.652 190.073 115.823 190.114H215.463C220.061 190.22 224.462 192.031 227.839 195.207C231.216 198.382 233.335 202.703 233.797 207.356L242.51 308.68C242.756 310.868 242.542 313.084 241.882 315.181C241.222 317.278 240.131 319.209 238.681 320.845C237.232 322.48 235.457 323.784 233.474 324.669C231.491 325.554 229.346 326 227.18 325.978Z" fill="white"/>
<path d="M109.041 268.28C109.041 268.28 144.469 218.123 170.551 219.412C196.632 220.702 239.973 267.074 239.973 267.074C239.973 267.074 176.092 301.194 109.041 268.28Z" fill="white"/>
<path d="M110.171 269.037L107.938 267.41C109.372 265.364 143.146 217.926 169.558 217.926H170.633C196.991 219.216 239.174 264.13 240.966 266.037L238.981 267.971C238.539 267.523 195.75 221.964 170.496 220.73H169.558C144.469 220.786 110.502 268.616 110.171 269.037Z" fill="#263238"/>
<path d="M105.374 270.046C100.026 270.046 93.0779 268.027 90.6241 260.345C90.511 259.992 90.5404 259.608 90.7059 259.277C90.8713 258.946 91.1592 258.695 91.5064 258.579C91.6782 258.518 91.8603 258.493 92.0418 258.506C92.2233 258.518 92.4005 258.568 92.5627 258.652C92.7249 258.735 92.8688 258.852 92.9858 258.993C93.1027 259.135 93.1903 259.299 93.2433 259.476C96.4139 269.401 108.269 267.018 108.765 266.906C109.123 266.839 109.492 266.916 109.795 267.119C110.099 267.323 110.313 267.639 110.392 267.999C110.428 268.18 110.429 268.366 110.395 268.546C110.36 268.727 110.291 268.899 110.191 269.053C110.092 269.207 109.963 269.339 109.813 269.442C109.663 269.545 109.494 269.617 109.317 269.654C108.018 269.915 106.698 270.046 105.374 270.046Z" fill="#263238"/>
<path d="M126.41 248.514C126.103 248.52 125.802 248.422 125.556 248.234C125.142 247.897 115.355 240.215 112.873 232.393C112.76 232.04 112.79 231.656 112.955 231.324C113.121 230.993 113.408 230.742 113.756 230.627C114.103 230.519 114.478 230.553 114.802 230.72C115.125 230.887 115.373 231.175 115.493 231.524C117.726 238.505 127.127 245.935 127.238 245.991C127.526 246.218 127.714 246.552 127.76 246.92C127.807 247.288 127.708 247.659 127.486 247.953C127.36 248.124 127.198 248.263 127.012 248.36C126.825 248.457 126.62 248.51 126.41 248.514Z" fill="#263238"/>
<path d="M146.647 229.421C146.286 229.4 145.946 229.241 145.696 228.976C145.445 228.71 145.303 228.359 145.296 227.991C143.686 221.885 141.688 215.891 139.313 210.048C138.624 208.197 138.128 206.852 138.018 206.515C137.963 206.337 137.944 206.149 137.961 205.963C137.979 205.776 138.033 205.596 138.12 205.431C138.208 205.267 138.326 205.121 138.47 205.004C138.613 204.887 138.778 204.8 138.955 204.749C139.129 204.697 139.311 204.681 139.491 204.701C139.671 204.721 139.845 204.777 140.004 204.866C140.163 204.954 140.303 205.074 140.416 205.217C140.529 205.361 140.614 205.525 140.664 205.702C140.664 206.039 141.243 207.272 141.877 209.039C145.737 219.328 148.108 226.085 148.053 228.047C148.053 228.232 148.017 228.416 147.945 228.586C147.874 228.757 147.77 228.911 147.638 229.039C147.507 229.167 147.351 229.267 147.181 229.333C147.011 229.399 146.829 229.428 146.647 229.421Z" fill="#263238"/>
<path d="M170.551 220.814C170.207 220.803 169.879 220.667 169.626 220.43C169.373 220.193 169.212 219.872 169.172 219.524L167.242 197.095C167.209 196.724 167.323 196.354 167.558 196.067C167.794 195.781 168.131 195.601 168.497 195.567C168.862 195.534 169.226 195.65 169.508 195.889C169.79 196.128 169.967 196.471 169.999 196.843L171.929 219.44C171.953 219.806 171.837 220.168 171.606 220.449C171.376 220.731 171.047 220.912 170.689 220.954L170.551 220.814Z" fill="#263238"/>
<path d="M244.109 268.504C242.76 268.511 241.413 268.398 240.083 268.168C239.906 268.131 239.737 268.059 239.587 267.956C239.437 267.853 239.309 267.721 239.209 267.567C239.109 267.413 239.04 267.241 239.005 267.061C238.971 266.88 238.972 266.694 239.008 266.513C239.037 266.332 239.103 266.159 239.201 266.005C239.298 265.85 239.426 265.718 239.575 265.616C239.725 265.513 239.894 265.443 240.071 265.409C240.249 265.376 240.431 265.379 240.607 265.42C240.607 265.42 247.362 266.738 251.498 263.766C252.382 263.111 253.12 262.273 253.662 261.306C254.204 260.339 254.537 259.266 254.641 258.159C254.668 257.975 254.73 257.798 254.825 257.638C254.919 257.479 255.043 257.34 255.191 257.229C255.338 257.118 255.505 257.038 255.683 256.993C255.86 256.948 256.045 256.939 256.226 256.967C256.407 256.995 256.581 257.058 256.738 257.154C256.895 257.25 257.031 257.377 257.14 257.526C257.249 257.676 257.328 257.846 257.372 258.027C257.416 258.207 257.425 258.395 257.398 258.579C257.231 260.054 256.762 261.478 256.021 262.758C255.281 264.037 254.284 265.145 253.097 266.009C250.418 267.745 247.284 268.615 244.109 268.504Z" fill="#263238"/>
<path d="M219.35 247.028C219.157 247.03 218.965 246.988 218.788 246.905C218.612 246.823 218.456 246.702 218.33 246.552C218.201 246.421 218.099 246.266 218.029 246.095C217.959 245.925 217.923 245.741 217.923 245.556C217.923 245.371 217.959 245.188 218.029 245.017C218.099 244.846 218.201 244.691 218.33 244.561C218.33 244.561 226.602 237.159 227.484 230.263C227.545 229.898 227.743 229.571 228.036 229.351C228.329 229.132 228.694 229.036 229.055 229.085C229.235 229.112 229.407 229.175 229.562 229.271C229.717 229.366 229.853 229.491 229.96 229.64C230.068 229.788 230.146 229.957 230.189 230.136C230.232 230.315 230.241 230.501 230.213 230.683C229.055 238.589 220.508 246.327 220.15 246.664C219.935 246.878 219.651 247.007 219.35 247.028Z" fill="#263238"/>
<path d="M196.054 230.739H195.805C195.446 230.67 195.127 230.462 194.916 230.159C194.705 229.855 194.619 229.48 194.675 229.113C194.675 228.944 197.708 210.917 198.259 207.216C198.286 207.032 198.349 206.855 198.443 206.696C198.538 206.536 198.662 206.397 198.809 206.287C198.956 206.176 199.124 206.096 199.301 206.051C199.479 206.006 199.663 205.997 199.845 206.025C200.026 206.052 200.199 206.116 200.356 206.212C200.513 206.308 200.65 206.434 200.759 206.584C200.868 206.734 200.946 206.904 200.99 207.084C201.035 207.265 201.043 207.453 201.016 207.637C200.465 211.366 197.46 229.421 197.432 229.589C197.373 229.916 197.203 230.211 196.95 230.421C196.698 230.632 196.38 230.744 196.054 230.739Z" fill="#263238"/>
<path d="M196.864 274.153C208.278 262.028 206.973 241.922 193.95 229.245C180.927 216.567 161.117 216.119 149.703 228.243C138.289 240.368 139.593 260.474 152.616 273.152C165.639 285.829 185.45 286.278 196.864 274.153Z" fill="#407BFF"/>
<path opacity="0.3" d="M186.211 251.177C186.252 250.468 186.252 249.756 186.211 249.047C185.841 245.391 184.166 242.001 181.504 239.516C178.842 237.031 175.377 235.624 171.764 235.561C170.066 235.531 168.381 235.869 166.821 236.552C165.261 237.236 163.862 238.249 162.717 239.525C161.573 240.8 160.708 242.309 160.181 243.951C159.654 245.593 159.476 247.33 159.66 249.047C159.706 249.77 159.836 250.485 160.046 251.177H142.071C141.631 247.135 142.044 243.043 143.282 239.175C144.519 235.308 146.553 231.752 149.248 228.747C151.943 225.741 155.237 223.354 158.91 221.744C162.583 220.135 166.552 219.34 170.551 219.412C179.054 219.572 187.206 222.891 193.469 228.743C199.731 234.594 203.671 242.575 204.545 251.177H186.211Z" fill="black"/>
<path opacity="0.7" d="M186.183 249.047C186.224 249.756 186.224 250.468 186.183 251.177C185.985 254.298 184.61 257.221 182.345 259.336C180.08 261.452 177.099 262.596 174.025 262.532C170.784 262.471 167.653 261.325 165.116 259.273C162.579 257.22 160.778 254.375 159.991 251.177C159.78 250.485 159.651 249.77 159.605 249.047C159.421 247.33 159.598 245.593 160.125 243.951C160.653 242.309 161.517 240.8 162.662 239.525C163.807 238.249 165.206 237.236 166.766 236.552C168.326 235.869 170.011 235.531 171.709 235.561C175.326 235.617 178.798 237.021 181.466 239.507C184.134 241.992 185.812 245.387 186.183 249.047Z" fill="black"/>
<path opacity="0.7" d="M193.379 235.813C193.528 237.213 193.382 238.629 192.952 239.966C192.521 241.304 191.816 242.534 190.883 243.573C189.949 244.612 188.809 245.438 187.538 245.995C186.266 246.552 184.893 246.828 183.509 246.804C180.57 246.744 177.753 245.594 175.59 243.57C173.427 241.546 172.066 238.787 171.764 235.813C171.611 234.413 171.753 232.995 172.182 231.656C172.61 230.316 173.316 229.084 174.25 228.044C175.184 227.003 176.327 226.178 177.6 225.622C178.873 225.067 180.249 224.794 181.634 224.823C184.575 224.876 187.395 226.025 189.559 228.05C191.724 230.075 193.083 232.837 193.379 235.813Z" fill="white"/>
<path d="M150.7 177.582H139.837V180.386H150.7V177.582Z" fill="#407BFF"/>
<path d="M197.377 177.582H161.949V180.386H197.377V177.582Z" fill="#407BFF"/>
<path d="M651.766 383.004L652.703 384.154L653.971 385.64C654.881 386.621 655.763 387.658 656.728 388.612C658.631 390.63 660.698 392.593 662.794 394.583C666.981 398.51 671.371 402.207 675.945 405.658C680.604 409.19 685.512 412.415 690.419 415.611C693.176 417.125 695.437 418.723 698.029 420.181L704.012 423.545C704.881 423.935 705.86 423.995 706.769 423.713C708.699 423.124 719.782 411.966 723.311 407.817C731.141 398.705 742.996 386.705 749.393 376.5L756.533 386.509C752.02 399.012 746.03 410.912 738.695 421.947C734.751 427.913 730.02 433.299 724.634 437.956C721.401 440.725 717.753 442.95 713.827 444.544C708.851 446.564 703.385 446.984 698.167 445.75C696.817 445.415 695.499 444.965 694.224 444.404L691.743 443.311L687.276 441.236C684.271 439.89 681.376 438.264 678.454 436.778C672.611 433.608 666.941 430.117 661.47 426.321C655.956 422.464 650.663 418.289 645.617 413.816C642.998 411.489 640.655 409.134 638.256 406.583C637.071 405.321 635.858 404.004 634.7 402.63L632.99 400.499C632.356 399.714 631.887 399.125 631.033 397.92L651.766 383.004Z" fill="#FFB573"/>
<path d="M748.262 378.042L761.055 350.23L773.269 372.491C773.269 372.491 765.246 386.509 756.534 386.509L748.262 378.042Z" fill="#FFB573"/>
<path d="M775.557 338.679L788.46 355.557L773.379 372.463L761.165 350.23L775.557 338.679Z" fill="#FFB573"/>
<path d="M771.063 380.144H791.382C791.956 380.14 792.507 379.92 792.929 379.526C793.352 379.133 793.616 378.594 793.671 378.014L797.889 328.473C797.92 328.15 797.884 327.823 797.783 327.514C797.681 327.205 797.518 326.921 797.302 326.681C797.086 326.441 796.824 326.249 796.531 326.118C796.238 325.987 795.921 325.921 795.601 325.922H775.309C774.731 325.927 774.177 326.151 773.753 326.551C773.33 326.95 773.069 327.496 773.021 328.081L768.747 377.593C768.72 377.919 768.76 378.246 768.865 378.555C768.969 378.864 769.135 379.147 769.353 379.387C769.571 379.627 769.835 379.818 770.13 379.948C770.424 380.079 770.742 380.146 771.063 380.144Z" fill="#407BFF"/>
<path opacity="0.3" d="M771.284 375.182H791.631L795.435 330.913H775.088L771.284 375.182Z" fill="white"/>
<path d="M769.96 368.902L773.572 367.024C775.41 366.073 777.109 364.865 778.617 363.435L779.279 360.996C778.894 360.346 778.313 359.84 777.623 359.552C776.932 359.265 776.169 359.21 775.447 359.398L772.441 360.239L757.526 361.388L757.167 367.781L761.524 374.622H763.012C764.654 374.681 766.261 374.134 767.538 373.083C768.815 372.032 769.675 370.547 769.96 368.902Z" fill="#FFB573"/>
<path d="M625.739 355.95C636.078 354.043 709.002 418.33 709.002 418.33L687.387 450.572C687.387 450.572 607.653 394.107 610.19 380.481C612.643 366.155 610.686 358.753 625.739 355.95Z" fill="#263238"/>
<path opacity="0.2" d="M634.948 376.5L634.148 410.144C642.419 416.676 672.306 439.974 672.306 439.974L634.948 376.5Z" fill="black"/>
<path d="M577.133 1024.08L601.588 1026.52L609.362 968.852L584.88 966.413L577.133 1024.08Z" fill="#FFB573"/>
<path d="M336.36 685.685L330.101 709.909L383.009 733.095L393.982 708.507L336.36 685.685Z" fill="#FFB573"/>
<path d="M619.095 1031.63C621.199 1031.89 623.329 1031.41 625.133 1030.28C625.522 1029.94 625.825 1029.5 626.017 1029.01C626.209 1028.53 626.283 1028 626.235 1027.48C626.235 1027.15 626.147 1026.83 625.982 1026.55C625.817 1026.27 625.581 1026.03 625.298 1025.88C622.348 1024.08 612.367 1028.91 611.237 1029.44C611.129 1029.49 611.039 1029.57 610.98 1029.68C610.921 1029.79 610.895 1029.91 610.906 1030.03C610.922 1030.15 610.975 1030.27 611.06 1030.36C611.144 1030.45 611.254 1030.51 611.375 1030.53C613.91 1031.14 616.494 1031.5 619.095 1031.63ZM623.533 1026.61C623.918 1026.58 624.302 1026.67 624.636 1026.86C624.752 1026.92 624.85 1027.01 624.918 1027.13C624.986 1027.24 625.022 1027.37 625.022 1027.5C625.052 1027.85 625 1028.21 624.87 1028.53C624.741 1028.86 624.538 1029.15 624.278 1029.38C622.761 1030.7 618.764 1030.81 613.25 1029.75C616.501 1028.1 620.008 1027.02 623.616 1026.58L623.533 1026.61Z" fill="#407BFF"/>
<path d="M611.485 1030.42H611.706C614.683 1029.16 620.666 1023.94 620.28 1021.08C620.172 1020.59 619.9 1020.14 619.508 1019.83C619.117 1019.51 618.63 1019.34 618.13 1019.35C617.555 1019.24 616.965 1019.26 616.399 1019.4C615.833 1019.55 615.304 1019.81 614.849 1020.19C611.678 1022.68 610.934 1029.44 610.879 1029.69C610.853 1029.79 610.851 1029.9 610.875 1030C610.899 1030.11 610.948 1030.2 611.016 1030.28C611.081 1030.33 611.156 1030.38 611.236 1030.4C611.317 1030.42 611.402 1030.43 611.485 1030.42ZM617.578 1020.41H617.909C618.984 1020.58 619.039 1021 619.039 1021.14C619.288 1022.85 615.207 1027 612.147 1028.65C612.44 1025.81 613.619 1023.14 615.51 1021.03C616.124 1020.58 616.885 1020.39 617.633 1020.5L617.578 1020.41Z" fill="#407BFF"/>
<path d="M600.374 1016.49L578.318 1017.44C577.843 1017.44 577.386 1017.63 577.035 1017.95C576.684 1018.28 576.463 1018.72 576.416 1019.21L571.122 1050.52C571.092 1051.05 571.167 1051.59 571.341 1052.09C571.515 1052.59 571.786 1053.06 572.137 1053.45C572.488 1053.85 572.913 1054.17 573.387 1054.4C573.861 1054.63 574.375 1054.76 574.899 1054.78H575.34C584.962 1054.28 589.594 1053.55 601.78 1053.13C609.252 1052.88 632.108 1055.62 642.309 1053.27C652.51 1050.91 650.58 1040.63 646.196 1040.71C632.025 1040.99 615.676 1031.6 607.598 1020.61C606.192 1019.68 601.918 1016.4 600.374 1016.49Z" fill="#263238"/>
<path d="M341.35 713.077L352.599 693.647C352.853 693.236 352.947 692.742 352.86 692.265C352.773 691.787 352.512 691.359 352.13 691.068L329.191 669.564C328.339 668.952 327.285 668.704 326.255 668.871C325.224 669.039 324.299 669.61 323.677 670.461L323.429 670.854C318.632 679.265 316.729 683.694 310.471 694.32C306.611 700.853 291.888 718.992 288.415 728.889C284.941 738.786 294.37 742.907 296.686 739.038C304.157 726.758 320.782 717.899 334.292 716.833C335.588 716.329 340.578 714.45 341.35 713.077Z" fill="#263238"/>
<path opacity="0.2" d="M609.362 968.852L605.365 998.599L580.882 996.159L584.852 966.441L609.362 968.852Z" fill="black"/>
<path opacity="0.2" d="M410.248 714.506L398.945 740.44L364.867 725.132L373.552 700.432L410.248 714.506Z" fill="black"/>
<path d="M641.372 385.528C655.35 409.695 638.256 430.078 623.975 502.299L531.834 502.552C533.323 463.637 533.157 432.18 516.836 355.613C516.412 353.727 516.413 351.767 516.839 349.881C517.264 347.995 518.104 346.231 519.294 344.721C520.485 343.211 521.995 341.994 523.713 341.162C525.431 340.329 527.312 339.902 529.215 339.913C536.824 339.913 546.391 340.165 556.124 341.174C571.474 342.451 586.72 344.802 601.753 348.212C609.905 350.211 617.918 352.759 625.739 355.837C630.481 357.464 636.188 370.585 641.372 385.528Z" fill="#263238"/>
<path d="M627.393 507.177C627.393 507.177 679.143 659.331 677.903 732.506C677.186 774.42 674.07 852.529 661.636 907.452C651.49 952.311 610.134 980.908 610.134 980.908L577.05 978.917C577.05 978.917 559.129 910.508 562.244 883.285C568.448 829.091 586.837 788.382 584.604 738.618C581.075 657.144 557.365 505.916 557.365 505.916L627.393 507.177Z" fill="#407BFF"/>
<path d="M570.405 987.693L617.137 990.496L621.383 976.226L569.165 971.319L570.405 987.693Z" fill="#263238"/>
<path opacity="0.2" d="M576.305 814.568C576.305 814.568 576.305 814.288 576.581 814.316C605.944 817.119 626.208 774.14 621.383 715.291L605.806 565.297L576.305 814.568Z" fill="black"/>
<path d="M604.179 505.916C604.179 505.916 645.314 773.467 559.791 803.578C514.658 820.961 476.693 802.12 431.726 781.878C405.727 770.187 373.249 738.534 373.249 738.534L385.738 703.965C408.201 697.788 431.705 696.583 454.665 700.432C498.502 707.329 500.349 720.058 515.926 710.441C548.68 628.127 492.326 563.054 530.621 505.776L604.179 505.916Z" fill="#407BFF"/>
<path d="M388.192 697.404L371.484 742.234L383.781 751.795L403.632 698.441L388.192 697.404Z" fill="#263238"/>
<path d="M381.299 455.646C377.136 461.899 356.017 457.665 356.017 457.665L351.523 431.059L377.467 441.628L381.299 455.646Z" fill="#FFB573"/>
<path d="M356.762 429.685L360.787 457.329L345.21 459.684C344.366 459.762 343.523 459.518 342.845 459C342.168 458.482 341.704 457.727 341.543 456.88L335.56 437.255C335.458 436.798 335.533 436.319 335.77 435.917C336.006 435.515 336.385 435.221 336.828 435.096L356.762 429.685Z" fill="#FFB573"/>
<path d="M349.786 442.217L358.664 443.815L367.073 437.395L363.82 435.04C361.615 433.444 360.065 431.079 359.464 428.395C358.838 425.585 358.46 422.723 358.333 419.844V418.891C358.227 418.046 357.852 417.259 357.264 416.651C356.677 416.044 355.909 415.649 355.08 415.527L352.874 417.181C351.496 420.237 352.488 423.797 352.323 426.18L351.965 430.806L348.408 432.376L349.786 442.217Z" fill="#FFB573"/>
<path d="M521.275 350.342L469.111 423.237L373.304 442.47V458.45C373.304 458.45 463.349 465.235 483.586 453.264C503.822 441.292 537.762 368.678 537.762 368.678L521.275 350.342Z" fill="#FFB573"/>
<path d="M520.668 210.16C498.777 202.703 473.385 216.525 463.377 237.664C453.369 258.803 456.87 284.737 468.147 305.204C471.538 311.4 475.591 317.231 478.375 323.708C481.47 330.128 482.147 337.478 480.278 344.37C478.017 351.071 475.701 355.361 467.54 354.295C467.54 354.295 467.54 349.697 470.656 350.258C470.656 350.258 464.039 353.987 461.447 351.548C464.452 356.258 472.475 354.548 475.039 349.557C478.871 342.128 471.813 332.062 463.542 332.147C455.271 332.231 448.544 340.754 448.82 349.137C449.165 353.329 450.632 357.346 453.062 360.751C455.492 364.156 458.792 366.82 462.605 368.454C460.37 368.828 458.076 368.44 456.081 367.35C454.086 366.259 452.502 364.528 451.577 362.426C455.326 372.407 467.568 376.808 477.907 374.846C488.245 372.883 496.985 366.155 505.091 359.342C516.119 350.146 527.396 338.511 527.147 324.128C526.899 313.39 520.117 304.166 514.41 295.111C508.703 286.055 503.712 275.008 507.352 264.943C510.412 256.392 518.738 251.234 526.072 246.019C531.366 242.29 542.118 233.963 540.85 226.085C539.554 218.571 526.872 212.263 520.668 210.16Z" fill="#263238"/>
<path d="M471.345 459.684L456.898 420.798L460.206 421.078C462.883 421.306 465.567 420.745 467.939 419.463C470.31 418.18 472.268 416.229 473.578 413.845C484.606 393.883 513.086 343.221 521.109 340.698C532.551 337.249 544.324 346.557 548.68 360.323C551.961 370.444 518.352 413.845 502.858 438.517C489.1 460.357 471.345 459.684 471.345 459.684Z" fill="#263238"/>
<path d="M330.432 725.861V726.169C330.635 726.709 330.969 727.187 331.403 727.559C331.837 727.932 332.356 728.187 332.913 728.3C333.248 728.407 333.603 728.424 333.946 728.351C334.289 728.277 334.608 728.115 334.871 727.88C337.187 725.721 335.698 716.665 335.56 715.768C335.545 715.651 335.494 715.543 335.415 715.457C335.336 715.372 335.232 715.314 335.119 715.291C335.012 715.278 334.903 715.291 334.802 715.33C334.701 715.369 334.611 715.433 334.54 715.515C332.665 718.207 329.688 723.001 330.432 725.861ZM334.678 717.45C335.174 721.039 335.395 725.861 334.099 727.038C333.964 727.114 333.812 727.155 333.658 727.155C333.503 727.155 333.352 727.114 333.217 727.038C332.846 726.968 332.499 726.802 332.21 726.557C331.92 726.311 331.697 725.995 331.562 725.637C331.066 724.123 332.114 721.039 334.678 717.394V717.45Z" fill="#407BFF"/>
<path d="M334.705 716.945C335.422 719.973 338.234 725.132 340.716 725.749C341.168 725.841 341.638 725.775 342.048 725.561C342.459 725.348 342.786 724.999 342.977 724.571C343.193 724.171 343.319 723.728 343.348 723.272C343.376 722.817 343.306 722.361 343.142 721.936C342.012 718.459 335.505 715.6 335.229 715.46C335.14 715.41 335.041 715.385 334.94 715.385C334.839 715.385 334.739 715.41 334.65 715.46C334.569 715.526 334.507 715.612 334.468 715.711C334.429 715.809 334.416 715.915 334.43 716.02C334.498 716.336 334.59 716.645 334.705 716.945ZM342.205 722.553C342.261 722.8 342.268 723.057 342.225 723.307C342.183 723.557 342.091 723.797 341.957 724.011C341.598 724.683 341.24 724.683 340.964 724.627C339.282 724.291 336.718 720.057 335.891 717.114C338.014 718.207 341.405 720.254 342.122 722.385C342.103 722.439 342.103 722.498 342.122 722.553H342.205Z" fill="#407BFF"/>
<path d="M531.503 497.813L528.939 506.925C528.608 507.626 529.408 508.355 530.566 508.327H625.684C626.594 508.327 627.338 507.85 627.393 507.29L628.276 498.178C628.276 497.561 627.559 497 626.566 497.028H533.102C532.791 497.004 532.48 497.063 532.199 497.201C531.918 497.339 531.678 497.55 531.503 497.813Z" fill="#407BFF"/>
<path opacity="0.5" d="M531.503 497.813L528.939 506.925C528.608 507.626 529.408 508.355 530.566 508.327H625.684C626.594 508.327 627.338 507.85 627.393 507.29L628.276 498.178C628.276 497.561 627.559 497 626.566 497.028H533.102C532.791 497.004 532.48 497.063 532.199 497.201C531.918 497.339 531.678 497.55 531.503 497.813Z" fill="white"/>
<path d="M549.755 509.168H546.998C546.474 509.168 546.033 508.888 546.088 508.551L547.329 496.692C547.329 496.355 547.853 496.075 548.404 496.075H551.161C551.685 496.075 552.099 496.355 552.071 496.72L550.83 508.551C550.665 508.888 550.169 509.196 549.755 509.168Z" fill="#407BFF"/>
<path d="M618.323 509.168H615.566C615.069 509.168 614.628 508.888 614.683 508.551L615.924 496.72C615.924 496.355 616.42 496.075 616.944 496.075H619.701C620.225 496.075 620.666 496.355 620.611 496.692L619.37 508.523C619.315 508.888 618.874 509.168 618.323 509.168Z" fill="#407BFF"/>
<path d="M586.865 509.112H584.108C583.584 509.112 583.143 508.832 583.198 508.495L584.439 496.664C584.439 496.299 584.963 496.019 585.486 496.019H588.243C588.767 496.019 589.181 496.299 589.153 496.636L587.885 508.467C587.885 508.832 587.416 509.112 586.865 509.112Z" fill="#407BFF"/>
<path d="M560.425 290.148C563.347 305.428 566.214 333.016 556.013 341.314C556.013 341.314 560.094 356.987 587.361 361.164C617.468 365.762 601.67 348.323 601.67 348.323C585.266 341.735 585.679 329.679 588.491 318.577L560.425 290.148Z" fill="#FFB573"/>
<path d="M556.124 341.174C570.673 342.112 585.132 344.155 599.382 347.286L620.005 353.538C623.671 361.052 617.661 376.5 600.402 379.444C600.402 379.444 556.923 385.528 544.103 339.997L556.124 341.174Z" fill="#FFB573"/>
<path opacity="0.2" d="M571.811 301.783L588.354 318.605C587.656 321.21 587.204 323.876 587.003 326.567C580.717 324.689 570.626 317.652 569.937 310.923C569.944 307.779 570.582 304.669 571.811 301.783Z" fill="black"/>
<path d="M542.008 270.859C549.397 294.578 551.988 304.783 567.125 314.119C589.677 328.137 616.751 313.783 616.476 288.326C616.255 265.392 604.262 230.459 578.649 226.646C573.019 225.788 567.267 226.409 561.939 228.451C556.612 230.492 551.887 233.886 548.215 238.309C544.542 242.733 542.044 248.038 540.957 253.721C539.871 259.404 540.232 265.275 542.008 270.775V270.859Z" fill="#FFB573"/>
<path d="M597.673 267.158C600.28 271.321 603.444 275.096 607.074 278.373C606.225 279.307 605.186 280.043 604.029 280.527C602.872 281.011 601.624 281.233 600.374 281.176L597.673 267.158Z" fill="#ED893E"/>
<path d="M595.053 293.849C595.987 293.744 596.909 293.557 597.81 293.288C597.881 293.272 597.948 293.241 598.007 293.198C598.066 293.155 598.116 293.101 598.154 293.039C598.193 292.976 598.219 292.907 598.231 292.834C598.243 292.761 598.24 292.687 598.224 292.615C598.185 292.468 598.091 292.342 597.963 292.263C597.834 292.185 597.681 292.16 597.535 292.195C595.181 292.854 592.708 292.944 590.315 292.458C587.921 291.971 585.672 290.92 583.749 289.391C583.636 289.276 583.482 289.212 583.322 289.212C583.162 289.212 583.008 289.276 582.895 289.391C582.84 289.446 582.796 289.511 582.766 289.583C582.736 289.656 582.721 289.733 582.721 289.812C582.721 289.89 582.736 289.967 582.766 290.04C582.796 290.112 582.84 290.177 582.895 290.232C584.588 291.618 586.534 292.65 588.62 293.271C590.706 293.891 592.892 294.088 595.053 293.849Z" fill="#263238"/>
<path d="M533.985 223.505C530.946 225.504 528.424 228.215 526.629 231.41C524.835 234.606 523.821 238.193 523.673 241.869C523.548 243.275 523.766 244.691 524.307 245.991C524.579 246.634 525.013 247.193 525.565 247.611C526.116 248.03 526.767 248.293 527.451 248.374C529.546 248.374 531.09 246.467 532.248 244.673L537.596 236.262C539.799 233.53 541.652 230.525 543.111 227.318C544.903 221.795 537.266 221.375 533.985 223.505Z" fill="#407BFF"/>
<path d="M536.604 229.085C521.964 246.299 515.402 293.933 558.302 307.222C565.47 301.447 553.891 290.933 548.983 277.644C545.757 268.953 562.106 252.72 568.475 246.047C574.844 239.374 580.717 229.758 589.705 231.3C591.986 232.075 594.443 232.144 596.763 231.496C603.903 228.216 600.429 223.87 596.763 220.842C591.139 216.61 584.443 214.1 577.463 213.609C569.934 212.707 562.301 213.64 555.196 216.331C548.092 219.022 541.718 223.394 536.604 229.085Z" fill="#263238"/>
<path d="M584.218 223.31C601.45 237.916 578.704 238.281 566.656 247.533C555.104 256.42 563.209 270.971 543.662 277.728C527.699 282.466 524.004 279.607 519.593 276.466C525.06 275.504 530.06 272.731 533.815 268.578C537.57 264.424 539.869 259.125 540.354 253.505C541.705 242.851 564.533 206.376 584.218 223.31Z" fill="#263238"/>
<path d="M539.416 290.793C542.116 294.747 546.234 297.466 550.885 298.363C557.061 299.456 559.432 293.709 557.309 288.101C555.297 283.055 549.7 276.41 543.717 277.84C541.66 278.381 539.898 279.73 538.818 281.591C537.737 283.451 537.427 285.672 537.955 287.765C538.236 288.864 538.733 289.894 539.416 290.793Z" fill="#FFB573"/>
<path d="M581.268 224.795C584.604 233.43 594.226 232.281 601.339 241.309C605.723 246.916 614.325 229.617 602.608 222.805C590.89 215.992 576.03 211.282 581.268 224.795Z" fill="#263238"/>
<path d="M571.122 261.242C571.367 261.269 571.615 261.216 571.828 261.09C572.041 260.963 572.209 260.771 572.308 260.541C574.568 255.439 581.351 254.149 581.406 254.149C581.709 254.082 581.975 253.899 582.149 253.638C582.323 253.377 582.393 253.059 582.343 252.747C582.283 252.443 582.108 252.176 581.855 252.002C581.602 251.829 581.292 251.764 580.992 251.822C580.634 251.822 572.914 253.476 570.157 259.644C570.034 259.931 570.026 260.255 570.134 260.548C570.242 260.841 570.458 261.08 570.736 261.214H571.122V261.242Z" fill="#263238"/>
<path d="M606.964 250.925C607.165 250.94 607.367 250.898 607.547 250.804C607.727 250.71 607.878 250.568 607.984 250.392C608.071 250.266 608.133 250.123 608.166 249.972C608.198 249.821 608.2 249.665 608.172 249.514C608.143 249.362 608.085 249.217 608.001 249.089C607.917 248.961 607.808 248.851 607.68 248.766C606.153 247.69 604.394 247.004 602.552 246.765C600.709 246.526 598.837 246.741 597.093 247.392C596.948 247.45 596.816 247.538 596.706 247.649C596.596 247.761 596.51 247.895 596.453 248.043C596.396 248.19 596.369 248.348 596.375 248.506C596.381 248.664 596.419 248.82 596.487 248.962C596.608 249.248 596.836 249.473 597.12 249.589C597.404 249.704 597.722 249.701 598.003 249.579C599.374 249.092 600.84 248.944 602.279 249.149C603.718 249.354 605.087 249.905 606.274 250.757C606.489 250.863 606.725 250.92 606.964 250.925Z" fill="#263238"/>
<path d="M720.306 404.396L704.15 413.732L687.359 450.46C687.359 450.46 703.571 460.946 716.363 452.451C729.156 443.956 720.306 404.396 720.306 404.396Z" fill="#407BFF"/>
<path opacity="0.5" d="M720.306 404.396L704.15 413.732L687.359 450.46C687.359 450.46 703.571 460.946 716.363 452.451C729.156 443.956 720.306 404.396 720.306 404.396Z" fill="white"/>
<path d="M437.791 415.751L456.898 421.358L475.012 459.46C475.012 459.46 460.454 473.169 444.684 460.076C432.884 450.152 437.791 415.751 437.791 415.751Z" fill="#407BFF"/>
<g opacity="0.5">
<path d="M437.791 415.751L456.898 421.358L475.012 459.46C475.012 459.46 460.454 473.169 444.684 460.076C432.884 450.152 437.791 415.751 437.791 415.751Z" fill="white"/>
</g>
<path d="M605.861 260.43C607.184 260.177 608.618 261.691 608.921 263.766C609.224 265.841 608.48 267.747 607.157 267.971C605.833 268.196 604.4 266.71 604.096 264.635C603.793 262.56 604.538 260.626 605.861 260.43Z" fill="#263238"/>
<path d="M609.941 258.383L605.282 260.71C608.094 262.728 609.941 258.383 609.941 258.383Z" fill="#263238"/>
<path d="M582.84 265.252C584.163 264.999 585.597 266.513 585.9 268.588C586.203 270.663 585.459 272.569 584.135 272.793C582.812 273.018 581.378 271.532 581.075 269.457C580.772 267.382 581.461 265.504 582.84 265.252Z" fill="#263238"/>
<path d="M586.865 263.205L582.206 265.532C585.018 267.55 586.865 263.205 586.865 263.205Z" fill="#263238"/>
<path d="M466.106 372.519C463.51 372.534 460.936 372.039 458.524 371.061C449.978 367.5 446.007 358.473 447.496 346.249C447.544 345.881 447.734 345.548 448.023 345.322C448.313 345.096 448.678 344.996 449.04 345.043C449.221 345.064 449.395 345.121 449.554 345.212C449.712 345.303 449.851 345.425 449.961 345.572C450.072 345.719 450.153 345.886 450.198 346.065C450.243 346.244 450.253 346.431 450.226 346.613C448.792 357.463 452.156 365.426 459.462 368.454C463.702 369.93 468.293 370.003 472.577 368.664C476.861 367.324 480.618 364.64 483.31 360.996C490.23 351.632 487.97 338.343 477.19 324.549C448.957 288.522 450.832 269.373 454.83 254.234C460.62 232.253 477.576 207.076 525.548 211.927C525.914 211.964 526.25 212.147 526.483 212.436C526.715 212.726 526.825 213.097 526.789 213.469C526.752 213.84 526.572 214.182 526.288 214.419C526.003 214.655 525.638 214.768 525.272 214.73C479.257 210.076 462.991 234.075 457.477 254.991C453.507 270.13 451.963 287.821 479.34 322.839C495.882 343.95 489.183 357.772 485.516 362.706C483.222 365.729 480.283 368.182 476.92 369.882C473.558 371.582 469.861 372.483 466.106 372.519Z" fill="#263238"/>
</svg>
