<svg width="274" height="176" viewBox="0 0 274 176" fill="none" xmlns="http://www.w3.org/2000/svg">
<path d="M274 154.317H0V154.435H274V154.317Z" fill="#EBEBEB"/>
<path d="M46.8978 158.804H28.748V158.923H46.8978V158.804Z" fill="#EBEBEB"/>
<path d="M98.5463 157.526H93.7842V157.645H98.5463V157.526Z" fill="#EBEBEB"/>
<path d="M57.9614 163.183H47.4453V163.301H57.9614V163.183Z" fill="#EBEBEB"/>
<path d="M246.545 162.391H222.877V162.51H246.545V162.391Z" fill="#EBEBEB"/>
<path d="M217.994 162.391H214.525V162.51H217.994V162.391Z" fill="#EBEBEB"/>
<path d="M203.247 160.402H151.91V160.52H203.247V160.402Z" fill="#EBEBEB"/>
<path d="M129.875 133.295H24.0676C23.2377 133.295 22.4418 133.011 21.855 132.507C21.2681 132.002 20.9385 131.317 20.9385 130.604V2.66778C20.9457 1.95808 21.2786 1.27957 21.8646 0.779928C22.4506 0.280288 23.2424 -2.72085e-05 24.0676 1.98083e-09H129.875C130.705 1.98083e-09 131.501 0.283552 132.088 0.788278C132.675 1.293 133.004 1.97756 133.004 2.69135V130.604C133.004 131.317 132.675 132.002 132.088 132.507C131.501 133.011 130.705 133.295 129.875 133.295ZM24.0676 0.0942683C23.2745 0.0955143 22.5142 0.367051 21.9534 0.849409C21.3926 1.33177 21.0769 1.98563 21.0755 2.66778V130.604C21.0769 131.286 21.3926 131.94 21.9534 132.422C22.5142 132.904 23.2745 133.176 24.0676 133.177H129.875C130.669 133.176 131.429 132.904 131.99 132.422C132.55 131.94 132.866 131.286 132.867 130.604V2.66778C132.866 1.98563 132.55 1.33177 131.99 0.849409C131.429 0.367051 130.669 0.0955143 129.875 0.0942683H24.0676Z" fill="#EBEBEB"/>
<path d="M248.414 133.295H142.595C141.765 133.294 140.97 133.01 140.384 132.505C139.797 132.001 139.467 131.317 139.466 130.604V2.66778C139.474 1.95847 139.808 1.28067 140.394 0.781289C140.979 0.281912 141.77 0.00120111 142.595 0H248.414C249.237 0.00245309 250.026 0.283864 250.61 0.783238C251.193 1.28261 251.525 1.95971 251.532 2.66778V130.604C251.532 131.316 251.204 131.999 250.619 132.503C250.035 133.008 249.242 133.292 248.414 133.295ZM142.595 0.0942683C141.802 0.0955143 141.042 0.367051 140.481 0.849409C139.92 1.33177 139.604 1.98563 139.603 2.66778V130.604C139.604 131.286 139.92 131.94 140.481 132.422C141.042 132.904 141.802 133.176 142.595 133.177H248.414C249.207 133.176 249.967 132.904 250.528 132.422C251.089 131.94 251.404 131.286 251.406 130.604V2.66778C251.404 1.98563 251.089 1.33177 250.528 0.849409C249.967 0.367051 249.207 0.0955143 248.414 0.0942683H142.595Z" fill="#EBEBEB"/>
<path d="M139.34 8.80463H33.6416V110.138H139.34V8.80463Z" fill="#EBEBEB"/>
<path d="M142.77 8.80463H35.2412V110.138H142.77V8.80463Z" fill="#F5F5F5"/>
<path d="M139.34 110.138H33.6416V115.629H139.34V110.138Z" fill="#EBEBEB"/>
<path d="M159.091 110.138H51.5625V115.629H159.091V110.138Z" fill="#F0F0F0"/>
<path d="M137.965 106V12.9383L40.0537 12.9383V106H137.965Z" fill="#FAFAFA"/>
<path d="M44.0312 106L72.2642 12.9383H85.5916L57.3586 106H44.0312Z" fill="white"/>
<path d="M42.2837 66.459C42.1922 66.459 42.1043 66.4277 42.0396 66.372C41.9749 66.3163 41.9385 66.2408 41.9385 66.162V15.6297C41.949 15.558 41.9897 15.492 42.0527 15.4442C42.1158 15.3964 42.1969 15.3701 42.281 15.3701C42.365 15.3701 42.4462 15.3964 42.5092 15.4442C42.5723 15.492 42.6129 15.558 42.6235 15.6297V66.1432C42.6265 66.1833 42.6199 66.2236 42.6042 66.2615C42.5886 66.2994 42.5641 66.3342 42.5323 66.3637C42.5006 66.3932 42.4621 66.4169 42.4194 66.4333C42.3767 66.4497 42.3305 66.4584 42.2837 66.459Z" fill="#F1F1F1"/>
<path d="M60.2197 106L88.4527 12.9383H93.6477L65.4202 106H60.2197Z" fill="white"/>
<path d="M137.97 106.004V12.943H137.361V106.004H137.97Z" fill="#EBEBEB"/>
<path d="M143.911 17.4066H38.2124L37.7686 14.5455H143.472L143.911 17.4066Z" fill="#EBEBEB"/>
<path d="M143.911 19.504H38.2124L37.7686 16.643H143.472L143.911 19.504Z" fill="#EBEBEB"/>
<path d="M143.911 22.0163H38.2124L37.7686 19.1553H143.472L143.911 22.0163Z" fill="#EBEBEB"/>
<path d="M143.911 24.8114H38.2124L37.7686 21.9503H143.472L143.911 24.8114Z" fill="#EBEBEB"/>
<path d="M143.911 28.1625H38.2124L37.7686 25.3015H143.472L143.911 28.1625Z" fill="#EBEBEB"/>
<path d="M143.911 31.9332H38.2124L37.7686 29.0722H143.472L143.911 31.9332Z" fill="#EBEBEB"/>
<path d="M42.5635 103.808H54.3784V104.812H53.6276L53.0138 110.138H43.9225L43.3088 104.812H42.5635V103.808Z" fill="#EBEBEB"/>
<path d="M41.6928 94.4801C41.5393 94.037 41.4023 93.5892 41.2708 93.1415C40.4981 94.004 39.7474 94.2208 39.1884 94.2208H39.0076C37.9116 94.1266 36.8156 93.2027 36.1634 91.7463C36.1484 91.7199 36.1406 91.6909 36.1406 91.6615C36.1406 91.6321 36.1484 91.603 36.1634 91.5766C36.178 91.5503 36.1994 91.5273 36.226 91.5093C36.2526 91.4913 36.2837 91.4788 36.3169 91.4729C37.1118 91.2988 37.9405 91.271 38.7489 91.3912C39.5572 91.5114 40.3269 91.777 41.0078 92.1705C40.9036 91.7463 40.8214 91.3221 40.7502 90.8979C40.5696 90.9282 40.3862 90.944 40.2022 90.945C38.3938 90.945 37.0622 89.5546 37.0019 89.4886C36.9787 89.4633 36.9627 89.4338 36.9552 89.4023C36.9476 89.3708 36.9486 89.3382 36.9582 89.3071C36.9677 89.2761 36.9856 89.2473 37.0103 89.2232C37.035 89.199 37.0659 89.1802 37.1005 89.1681C37.5224 88.9837 37.9857 88.8798 38.4585 88.8635C38.9314 88.8473 39.4028 88.919 39.8405 89.0738C40.3144 89.2783 40.6988 89.6089 40.9365 90.0165C41.2765 89.1238 41.8956 88.3289 42.7259 87.7187C43.5562 87.1084 44.5657 86.7065 45.6438 86.5568C45.6774 86.5498 45.7123 86.5493 45.7461 86.5554C45.7799 86.5615 45.8116 86.5741 45.839 86.5922C45.8664 86.6103 45.8887 86.6335 45.9042 86.66C45.9197 86.6865 45.9281 86.7157 45.9288 86.7454C46.022 88.1594 45.9726 89.8892 44.7396 90.7141C44.2266 91.0391 43.6008 91.2052 42.9641 91.1854C42.3925 91.1734 41.8251 91.0974 41.2763 90.9592C41.4525 91.9792 41.7051 92.9884 42.0325 93.9805C43.2368 92.5717 44.9439 91.5404 46.8933 91.044C46.9543 91.031 47.0188 91.039 47.073 91.0663C47.1273 91.0936 47.167 91.138 47.1837 91.1901C47.5564 92.4062 47.3646 93.396 46.6357 94.0464C46.266 94.3336 45.8329 94.5538 45.3622 94.6939C44.8914 94.834 44.3927 94.8911 43.8957 94.8619C43.36 94.8562 42.8261 94.8073 42.301 94.7157C42.6024 95.55 42.9422 96.3654 43.3039 97.1431C44.0437 96.5823 46.2138 95.1541 48.5756 95.7527C48.6082 95.7601 48.6383 95.7737 48.6639 95.7924C48.6896 95.8112 48.7099 95.8347 48.7236 95.8611C48.737 95.8871 48.744 95.9152 48.744 95.9436C48.744 95.972 48.737 96.0001 48.7236 96.0261C48.0824 97.3741 47.3536 98.1188 46.433 98.3828C46.1884 98.4495 45.9333 98.4829 45.6767 98.4817C44.9812 98.4529 44.3034 98.2833 43.6984 97.9868C44.2136 99.0144 44.7451 99.9806 45.2602 100.838C45.8082 100.325 47.3317 99.2595 50.0224 99.7544C50.0789 99.7646 50.1292 99.7923 50.1635 99.8323C50.1979 99.8722 50.2139 99.9217 50.2087 99.9712C50.149 100.403 49.9587 100.814 49.6568 101.163C49.3549 101.512 48.9519 101.787 48.488 101.96C48.1417 102.088 47.7688 102.154 47.392 102.153C46.8607 102.146 46.3389 102.031 45.8685 101.819C47.0632 103.704 48.0167 104.911 48.0605 104.939C48.0859 104.984 48.0917 105.035 48.0768 105.083C48.0619 105.131 48.0274 105.173 47.9795 105.201C47.9315 105.23 47.8735 105.242 47.8159 105.236C47.7583 105.23 47.7051 105.207 47.666 105.17C46.7162 103.934 45.8436 102.654 45.052 101.338C45.0351 101.32 45.0221 101.299 45.0136 101.277C44.8547 101.018 44.7013 100.754 44.5424 100.48C44.2714 100.831 43.9066 101.121 43.4785 101.327C43.0505 101.532 42.5715 101.645 42.0818 101.659C41.9814 101.663 41.8808 101.663 41.7804 101.659C41.2391 101.605 40.7255 101.424 40.2962 101.135C39.8668 100.847 39.5385 100.462 39.3473 100.023C39.3276 99.9777 39.3279 99.9278 39.3481 99.8826C39.3683 99.8374 39.407 99.8002 39.4569 99.7779C40.153 99.4401 40.9326 99.2498 41.7312 99.2227C42.5298 99.1957 43.3244 99.3327 44.0492 99.6224C43.7094 98.9955 43.3642 98.3309 43.0354 97.638C43.017 97.6119 43.004 97.5832 42.997 97.5532C42.9038 97.3552 42.8107 97.1573 42.723 96.9593C41.9339 97.8172 41.1448 98.2367 40.3282 98.2367C39.3309 98.2367 38.328 97.605 37.254 96.3089C37.217 96.2657 37.2015 96.2117 37.2107 96.1587C37.22 96.1057 37.2533 96.058 37.3033 96.0261C38.9911 94.9373 41.3092 95.682 42.3613 96.1156C42.1476 95.6066 41.9448 95.0834 41.7585 94.5508L41.6928 94.4801Z" fill="#EBEBEB"/>
<path d="M54.0706 99.9617C53.6942 100.062 53.3028 100.115 52.9088 100.117C52.425 100.122 51.9463 100.032 51.5099 99.852C51.0735 99.6724 50.691 99.4087 50.3921 99.0814C50.0932 98.7542 49.886 98.3721 49.7864 97.9649C49.6869 97.5576 49.6977 97.1361 49.8181 96.7331C49.8312 96.686 49.8644 96.6448 49.911 96.6178C49.9577 96.5907 50.0145 96.5797 50.0702 96.5869C50.9927 96.6655 51.8798 96.9335 52.657 97.3682C53.4342 97.8028 54.0787 98.3916 54.5364 99.085C55.0844 98.0575 55.583 96.9687 56.0324 95.8375C55.4578 96.1199 54.8138 96.2814 54.1528 96.3088C53.8918 96.3092 53.6326 96.2726 53.3856 96.2004C52.0813 95.8187 51.2977 94.4471 50.6456 93.0189C50.632 92.9921 50.625 92.9633 50.625 92.9341C50.625 92.9049 50.632 92.876 50.6456 92.8492C50.6595 92.8235 50.6801 92.8008 50.7057 92.7828C50.7314 92.7648 50.7614 92.7521 50.7935 92.7455C53.4733 92.1045 55.6433 94.3057 56.3174 95.1022C56.6717 94.1535 56.9662 93.189 57.1996 92.2129C56.6413 92.3035 56.0746 92.3508 55.5063 92.3543C54.9401 92.3887 54.3717 92.3228 53.8363 92.1606C53.3009 91.9985 52.8099 91.7436 52.3937 91.4116C51.5936 90.6811 51.4018 89.5875 51.8457 88.2489C51.8533 88.2228 51.867 88.1982 51.8858 88.1767C51.9046 88.1551 51.9282 88.137 51.9552 88.1234C51.9823 88.1098 52.0122 88.101 52.0433 88.0975C52.0743 88.0939 52.1059 88.0957 52.1361 88.1028C54.2594 88.6802 56.1049 89.8389 57.3915 91.4022L57.4901 90.879C57.497 90.8348 57.5201 90.7935 57.5558 90.7612C57.6637 90.4286 57.8497 90.1186 58.1023 89.8503C58.3549 89.5819 58.6687 89.361 59.0245 89.201C59.8191 88.8758 60.8219 88.923 62.0001 89.3377C62.0352 89.3501 62.0665 89.3695 62.0912 89.3942C62.116 89.4189 62.1337 89.4483 62.1427 89.48C62.1518 89.5117 62.1521 89.5448 62.1435 89.5766C62.1349 89.6084 62.1177 89.638 62.0933 89.663C62.022 89.7337 60.5644 91.2184 58.597 91.2184C58.3873 91.2154 58.1782 91.1965 57.9723 91.1618C57.8846 91.6332 57.7805 92.1328 57.6545 92.6135C58.4117 92.1838 59.2664 91.8973 60.1619 91.773C61.0575 91.6487 61.9736 91.6894 62.8495 91.8924C62.8823 91.9002 62.9128 91.9139 62.939 91.9326C62.9652 91.9513 62.9865 91.9745 63.0015 92.0008C63.0165 92.027 63.0249 92.0557 63.0261 92.085C63.0273 92.1142 63.0213 92.1434 63.0085 92.1705C62.2413 93.7636 61.063 94.7629 59.841 94.8524H59.6766C59.0574 94.8524 58.2244 94.6073 57.375 93.6269C57.0345 94.7437 56.6285 95.8449 56.1585 96.9263C57.3093 96.455 59.8958 95.649 61.7426 96.8792C61.7906 96.9125 61.8219 96.9605 61.83 97.0131C61.8382 97.0657 61.8226 97.119 61.7864 97.162C60.5972 98.576 59.4903 99.2406 58.4107 99.2406C57.512 99.2406 56.6516 98.7693 55.7968 97.7936C55.3036 98.8494 54.7775 99.8533 54.2514 100.782C55.3967 100.169 56.6626 100.263 58.1532 101.074C58.1854 101.092 58.2122 101.116 58.2312 101.145C58.2503 101.174 58.2611 101.206 58.2628 101.239C58.2636 101.273 58.2551 101.306 58.238 101.337C58.2208 101.367 58.1955 101.393 58.1641 101.413C57.2645 101.938 56.2138 102.238 55.1282 102.281C54.5645 102.289 54.0122 102.144 53.55 101.866C52.5333 103.563 51.3987 105.207 50.1524 106.787C50.1277 106.817 50.095 106.842 50.0568 106.859C50.0187 106.876 49.9763 106.886 49.9332 106.886C49.8799 106.885 49.8281 106.871 49.7852 106.843C49.7567 106.826 49.7324 106.805 49.7136 106.78C49.6949 106.755 49.6821 106.726 49.676 106.697C49.6699 106.668 49.6706 106.638 49.678 106.609C49.6855 106.579 49.6996 106.552 49.7195 106.528C51.3647 104.439 52.8195 102.244 54.0706 99.9617Z" fill="#EBEBEB"/>
<path d="M234.227 45.0601H209.43V68.4809H234.227V45.0601Z" fill="#EBEBEB"/>
<path d="M231.651 46.5543C231.628 46.5604 231.603 46.5604 231.58 46.5543C231.514 46.5213 224.9 43.137 222.812 43.137C220.724 43.137 214.395 46.5213 214.335 46.5543C214.303 46.5704 214.266 46.5755 214.23 46.5684C214.194 46.5614 214.163 46.5428 214.143 46.5165C214.133 46.5037 214.126 46.4892 214.123 46.474C214.12 46.4589 214.12 46.4433 214.125 46.4283C214.129 46.4133 214.136 46.3991 214.147 46.3868C214.158 46.3744 214.171 46.364 214.187 46.3563C214.45 46.2149 220.631 42.9014 222.812 42.9014C224.993 42.9014 231.465 46.2007 231.739 46.3516C231.77 46.3689 231.791 46.3958 231.799 46.4265C231.808 46.4572 231.802 46.4895 231.783 46.5165C231.767 46.5327 231.747 46.5448 231.723 46.5515C231.7 46.5582 231.675 46.5591 231.651 46.5543Z" fill="#EBEBEB"/>
<path d="M236.911 45.0601H211.298V68.4809H236.911V45.0601Z" fill="#F5F5F5"/>
<path d="M234.77 66.6381V46.9078H213.447V66.6381H234.77Z" fill="white"/>
<path d="M224.68 59.1532C224.337 59.1548 223.995 59.188 223.66 59.2522C223.746 58.9995 223.79 58.7377 223.792 58.4745C223.793 57.8362 223.53 57.2184 223.052 56.7305C223.291 56.7962 223.541 56.8312 223.792 56.8342C224.388 56.8393 224.968 56.6708 225.439 56.3561C225.91 56.0415 226.243 55.5992 226.384 55.1011C226.525 54.6031 226.467 54.0785 226.217 53.6128C225.968 53.147 225.543 52.7675 225.012 52.5358C224.48 52.3041 223.873 52.2339 223.289 52.3367C222.705 52.4394 222.178 52.709 221.795 53.1017C221.412 53.4944 221.194 53.987 221.178 54.4995C221.161 55.012 221.347 55.5142 221.704 55.9245C221.273 55.7891 220.812 55.7362 220.355 55.7695C219.897 55.8029 219.454 55.9217 219.055 56.1176C218.657 56.3135 218.312 56.5819 218.047 56.9039C217.781 57.226 217.6 57.594 217.517 57.9824C217.434 58.3707 217.45 58.77 217.565 59.1524C217.679 59.5347 217.89 59.891 218.181 60.1964C218.472 60.5017 218.837 60.7487 219.25 60.9202C219.664 61.0917 220.116 61.1836 220.575 61.1894C220.15 61.8109 219.927 62.5189 219.928 63.2397C219.928 64.0479 220.207 64.838 220.729 65.5101C221.251 66.1821 221.993 66.7059 222.861 67.0152C223.73 67.3245 224.685 67.4054 225.606 67.2477C226.528 67.09 227.375 66.7008 228.039 66.1293C228.704 65.5578 229.156 64.8297 229.339 64.0369C229.523 63.2442 229.429 62.4226 229.069 61.6759C228.709 60.9291 228.1 60.2909 227.319 59.8419C226.538 59.3929 225.619 59.1532 224.68 59.1532Z" fill="#F5F5F5"/>
<path d="M220.087 50.3957C220.088 50.8405 219.936 51.2757 219.649 51.646C219.363 52.0164 218.955 52.3053 218.477 52.4762C218 52.6471 217.474 52.6923 216.967 52.6061C216.459 52.5198 215.993 52.3061 215.627 51.9918C215.261 51.6776 215.011 51.277 214.91 50.8407C214.809 50.4045 214.86 49.9522 215.058 49.5411C215.256 49.13 215.591 48.7786 216.021 48.5313C216.451 48.2841 216.956 48.1521 217.473 48.1521C218.165 48.1533 218.828 48.39 219.318 48.8103C219.808 49.2307 220.084 49.8006 220.087 50.3957Z" fill="#F5F5F5"/>
<path d="M200.64 22.8411H172.615V49.3069H200.64V22.8411Z" fill="#EBEBEB"/>
<path d="M197.182 23.9252C197.159 23.93 197.134 23.93 197.111 23.9252C197.045 23.8875 190.425 20.5033 188.343 20.5033C186.26 20.5033 179.931 23.8875 179.871 23.9205C179.855 23.9291 179.838 23.935 179.82 23.9377C179.802 23.9405 179.783 23.9401 179.765 23.9366C179.748 23.9331 179.731 23.9265 179.716 23.9173C179.701 23.908 179.688 23.8963 179.679 23.8828C179.66 23.8565 179.655 23.825 179.663 23.795C179.671 23.7651 179.692 23.7391 179.723 23.7226C179.986 23.5812 186.162 20.2676 188.343 20.2676C190.524 20.2676 197.001 23.567 197.275 23.7226C197.291 23.7303 197.304 23.7407 197.315 23.753C197.326 23.7654 197.333 23.7795 197.337 23.7945C197.341 23.8096 197.342 23.8251 197.339 23.8403C197.336 23.8555 197.329 23.87 197.319 23.8828C197.304 23.9007 197.282 23.9143 197.258 23.9218C197.234 23.9294 197.207 23.9306 197.182 23.9252Z" fill="#EBEBEB"/>
<path d="M203.67 22.8411H174.725V49.3069H203.67V22.8411Z" fill="#F5F5F5"/>
<path d="M201.247 47.2189V24.9245H177.152V47.2189H201.247Z" fill="white"/>
<path d="M180.599 27.3848H180.177C179.696 27.3848 179.306 27.7204 179.306 28.1343V47.8268C179.306 48.2407 179.696 48.5763 180.177 48.5763H180.599C181.08 48.5763 181.47 48.2407 181.47 47.8268V28.1343C181.47 27.7204 181.08 27.3848 180.599 27.3848Z" fill="#F5F5F5"/>
<path d="M187.608 37.9806H186.079H185.925V33.8469C185.925 33.6481 185.833 33.4575 185.67 33.317C185.507 33.1764 185.285 33.0975 185.054 33.0975H183.53C183.299 33.0975 183.078 33.1764 182.914 33.317C182.751 33.4575 182.659 33.6481 182.659 33.8469V47.8127C182.659 48.0115 182.751 48.2021 182.914 48.3426C183.078 48.4832 183.299 48.5621 183.53 48.5621H185.054C185.24 48.5628 185.42 48.5115 185.569 48.416C185.715 48.5121 185.895 48.5635 186.079 48.5621H187.608C187.839 48.5621 188.06 48.4832 188.224 48.3426C188.387 48.2021 188.479 48.0115 188.479 47.8127V38.73C188.479 38.6316 188.456 38.5341 188.413 38.4432C188.369 38.3523 188.305 38.2696 188.224 38.2001C188.143 38.1305 188.047 38.0753 187.941 38.0376C187.835 37.9999 187.722 37.9806 187.608 37.9806Z" fill="#F5F5F5"/>
<path d="M195.982 32.3575H190.337C189.856 32.3575 189.466 32.693 189.466 33.1069V47.8221C189.466 48.236 189.856 48.5716 190.337 48.5716H195.982C196.463 48.5716 196.853 48.236 196.853 47.8221V33.1069C196.853 32.693 196.463 32.3575 195.982 32.3575Z" fill="#F5F5F5"/>
<path d="M197.334 30.5852C198.808 30.5852 200.003 29.5575 200.003 28.2898C200.003 27.0221 198.808 25.9944 197.334 25.9944C195.86 25.9944 194.665 27.0221 194.665 28.2898C194.665 29.5575 195.86 30.5852 197.334 30.5852Z" fill="#F5F5F5"/>
<path d="M100.36 103.775C100.36 107.286 104.777 110.138 110.224 110.138C115.671 110.138 120.088 107.286 120.088 103.775H100.36Z" fill="#EBEBEB"/>
<path d="M137 175.602C195.681 175.602 243.251 173.214 243.251 170.267C243.251 167.32 195.681 164.931 137 164.931C78.3186 164.931 30.748 167.32 30.748 170.267C30.748 173.214 78.3186 175.602 137 175.602Z" fill="#F5F5F5"/>
<path d="M187.762 170.79C193.231 170.79 197.664 170.556 197.664 170.267C197.664 169.978 193.231 169.744 187.762 169.744C182.293 169.744 177.859 169.978 177.859 170.267C177.859 170.556 182.293 170.79 187.762 170.79Z" fill="#E6E6E6"/>
<path d="M120.494 157.894H207.062C215.488 157.894 222.318 152.019 222.318 144.772V102.691C222.318 95.4436 215.488 89.5686 207.062 89.5686L120.494 89.5686C112.069 89.5686 105.238 95.4436 105.238 102.691L105.238 144.772C105.238 152.019 112.069 157.894 120.494 157.894Z" fill="#263238"/>
<path d="M191.965 170.267H183.772L167.124 136.34H179.662L191.965 170.267Z" fill="#263238"/>
<path d="M224.784 120.272H224.236V123.731H224.784V120.272Z" fill="#407BFF"/>
<path opacity="0.2" d="M224.784 120.272H224.236V123.731H224.784V120.272Z" fill="black"/>
<path d="M224.784 105.523H224.236V117.91H224.784V105.523Z" fill="#407BFF"/>
<path opacity="0.2" d="M224.784 105.523H224.236V117.91H224.784V105.523Z" fill="black"/>
<path d="M155.162 87.4476H147.731V87.9189H155.162V87.4476Z" fill="#407BFF"/>
<path opacity="0.2" d="M155.162 87.4476H147.731V87.9189H155.162V87.4476Z" fill="black"/>
<path d="M214.51 136.34L191.949 170.267L175.301 136.34H214.51Z" fill="#407BFF"/>
<path opacity="0.2" d="M214.516 136.34L191.955 170.267L175.307 136.34H214.516Z" fill="black"/>
<path d="M127.383 157.894H207.062C215.488 157.894 222.318 152.019 222.318 144.772V102.691C222.318 95.4436 215.488 89.5687 207.062 89.5687L127.383 89.5687C118.957 89.5687 112.127 95.4436 112.127 102.691L112.127 144.772C112.127 152.019 118.957 157.894 127.383 157.894Z" fill="#407BFF"/>
<path opacity="0.2" d="M127.383 157.894H207.062C215.488 157.894 222.318 152.019 222.318 144.772V102.691C222.318 95.4436 215.488 89.5687 207.062 89.5687L127.383 89.5687C118.957 89.5687 112.127 95.4436 112.127 102.691L112.127 144.772C112.127 152.019 118.957 157.894 127.383 157.894Z" fill="black"/>
<path opacity="0.7" d="M154.948 157.894H140.371L155.792 89.5686H170.374L154.948 157.894Z" fill="#407BFF"/>
<path opacity="0.7" d="M168.115 157.894H159.824L175.25 89.5686H183.536L168.115 157.894Z" fill="#407BFF"/>
<path d="M202.551 111.613H162.043C160.948 111.579 159.911 111.181 159.151 110.503C158.39 109.825 157.965 108.919 157.965 107.977C157.965 107.034 158.39 106.129 159.151 105.45C159.911 104.772 160.948 104.374 162.043 104.34H202.551C203.119 104.323 203.686 104.404 204.216 104.579C204.747 104.753 205.232 105.018 205.641 105.358C206.05 105.697 206.375 106.104 206.597 106.554C206.82 107.004 206.934 107.488 206.934 107.977C206.934 108.466 206.82 108.949 206.597 109.399C206.375 109.849 206.05 110.256 205.641 110.596C205.232 110.935 204.747 111.2 204.216 111.375C203.686 111.55 203.119 111.631 202.551 111.613Z" fill="white"/>
<path d="M148.164 111.613H129.817C128.722 111.579 127.685 111.181 126.924 110.503C126.163 109.825 125.738 108.919 125.738 107.977C125.738 107.034 126.163 106.129 126.924 105.45C127.685 104.772 128.722 104.374 129.817 104.34H148.164C148.732 104.323 149.298 104.404 149.829 104.579C150.36 104.753 150.844 105.018 151.253 105.358C151.662 105.697 151.987 106.104 152.21 106.554C152.432 107.004 152.546 107.488 152.546 107.977C152.546 108.466 152.432 108.949 152.21 109.399C151.987 109.849 151.662 110.256 151.253 110.596C150.844 110.935 150.36 111.2 149.829 111.375C149.298 111.55 148.732 111.631 148.164 111.613Z" fill="white"/>
<path d="M202.552 126.941H134.117C133.022 126.907 131.985 126.509 131.225 125.831C130.464 125.153 130.039 124.247 130.039 123.305C130.039 122.362 130.464 121.457 131.225 120.778C131.985 120.1 133.022 119.702 134.117 119.668H202.552C203.12 119.651 203.686 119.732 204.217 119.907C204.748 120.081 205.232 120.346 205.641 120.686C206.05 121.025 206.375 121.432 206.598 121.882C206.82 122.332 206.934 122.816 206.934 123.305C206.934 123.794 206.82 124.277 206.598 124.727C206.375 125.177 206.05 125.584 205.641 125.924C205.232 126.263 204.748 126.528 204.217 126.703C203.686 126.878 203.12 126.959 202.552 126.941Z" fill="white"/>
<path d="M202.553 142.264H170.851C169.756 142.23 168.719 141.833 167.958 141.154C167.198 140.476 166.772 139.57 166.772 138.628C166.772 137.686 167.198 136.78 167.958 136.102C168.719 135.423 169.756 135.026 170.851 134.992H202.553C203.121 134.974 203.687 135.055 204.218 135.23C204.749 135.405 205.233 135.67 205.642 136.009C206.051 136.349 206.376 136.755 206.599 137.205C206.821 137.655 206.935 138.139 206.935 138.628C206.935 139.117 206.821 139.601 206.599 140.051C206.376 140.501 206.051 140.907 205.642 141.247C205.233 141.586 204.749 141.851 204.218 142.026C203.687 142.201 203.121 142.282 202.553 142.264Z" fill="white"/>
<path opacity="0.1" d="M131.916 89.5545C131.916 89.5545 125.855 117.741 125.855 129.647C125.855 141.859 130.864 157.88 130.864 157.88H114.857L113.799 142.415C112.802 127.953 114.467 113.445 118.731 99.429L121.734 89.5309L131.916 89.5545Z" fill="black"/>
<path d="M123.569 170.267C123.569 170.823 114.582 171.276 103.496 171.276C92.4101 171.276 83.4229 170.804 83.4229 170.267C83.4229 169.73 92.4101 169.258 103.496 169.258C114.582 169.258 123.569 169.711 123.569 170.267Z" fill="#E6E6E6"/>
<path d="M116.686 53.1342C114.987 53.3651 113.398 53.483 111.754 53.6055C110.11 53.7281 108.466 53.7234 106.822 53.7139C103.475 53.7135 100.137 53.3974 96.8702 52.7713C95.8321 52.5279 94.8613 52.1079 94.0151 51.5363C93.3036 51.0655 92.6332 50.5504 92.0094 49.9951C90.8583 48.9514 89.7961 47.8377 88.831 46.6627C86.9413 44.3891 85.2577 41.9939 83.7949 39.4983L85.8499 38.4378C86.7706 39.5077 87.7186 40.5965 88.694 41.6382C89.6695 42.6799 90.6394 43.7262 91.6697 44.7113C92.6562 45.6844 93.7103 46.6052 94.8262 47.4687C95.3415 47.8667 95.891 48.2307 96.4702 48.5575C96.8912 48.8138 97.3628 49.0022 97.8621 49.1137C99.3244 49.3246 100.799 49.4678 102.279 49.5426C103.786 49.5991 105.304 49.6321 106.833 49.6133C108.362 49.5944 109.896 49.5237 111.425 49.4294C112.954 49.3352 114.516 49.1985 115.957 49.0477L116.686 53.1342Z" fill="#FF8B7B"/>
<path d="M121.619 49.3069C117.448 47.134 111.793 48.713 111.793 48.713L114.654 57.1971C114.654 57.1971 119.169 56.1036 120.939 54.4492C122.791 52.7382 124.134 50.6125 121.619 49.3069Z" fill="#263238"/>
<path d="M86.2013 39.3192L87.2096 36.3969L82.4365 36.906C82.747 38.0661 83.339 39.1567 84.1737 40.1064L86.2013 39.3192Z" fill="#FF8B7B"/>
<path d="M86.8644 32.9891L82.8914 33.6018L82.4365 36.9059L87.2096 36.3969L86.8644 32.9891Z" fill="#FF8B7B"/>
<path d="M141.089 22.5065C145.308 22.582 144.125 25.6127 144.125 25.6127C144.125 25.6127 148.722 23.1146 150.185 26.0322C151.649 28.9498 148.35 29.8736 146.421 30.3119C147.632 30.9105 147.698 32.8525 145.999 33.4888C144.3 34.1251 141.456 32.3764 139.308 32.4L137.192 30.2459C140.064 28.6434 136.864 22.4311 141.089 22.5065Z" fill="#263238"/>
<path d="M140.431 33.8988C142.273 34.1768 143.61 33.9789 143.248 32.2302C143.018 31.2594 142.506 30.3543 141.761 29.5987C141.016 28.8432 140.061 28.2617 138.985 27.908C136.661 27.1727 136.141 30.4721 136.141 30.4721L140.431 33.8988Z" fill="#407BFF"/>
<path d="M86.5847 156.047L81.8828 155.58L82.8199 146.191L87.5217 146.653L86.5847 156.047Z" fill="#FF8B7B"/>
<path d="M117.726 167.052L113.003 166.869L111.983 157.395L116.713 157.583L117.726 167.052Z" fill="#FF8B7B"/>
<path d="M112.822 165.638H118.137C118.229 165.637 118.317 165.665 118.387 165.716C118.456 165.767 118.502 165.838 118.515 165.916L119.118 169.536C119.13 169.627 119.119 169.72 119.086 169.807C119.053 169.894 118.999 169.974 118.928 170.043C118.856 170.111 118.769 170.165 118.672 170.202C118.574 170.239 118.468 170.258 118.362 170.257C116.51 170.229 115.622 170.139 113.276 170.139C111.841 170.139 109.736 170.267 107.753 170.267C105.769 170.267 105.665 168.579 106.487 168.424C110.197 167.74 110.783 166.793 112.032 165.893C112.252 165.73 112.532 165.639 112.822 165.638Z" fill="#263238"/>
<path d="M81.7247 154.1L87.0019 153.563C87.0935 153.552 87.1864 153.571 87.2631 153.615C87.3399 153.659 87.3951 153.726 87.4184 153.803L88.5144 157.333C88.5373 157.423 88.5381 157.516 88.5167 157.605C88.4954 157.695 88.4523 157.78 88.3903 157.855C88.3283 157.93 88.2488 157.992 88.1569 158.039C88.065 158.085 87.9627 158.115 87.8568 158.125C86.0155 158.285 85.1168 158.285 82.7932 158.521C81.3684 158.667 78.4092 159.096 76.4584 159.294C74.5075 159.492 74.1513 157.828 74.9514 157.593C78.5408 156.537 79.856 155.453 80.9794 154.43C81.1759 154.249 81.4393 154.132 81.7247 154.1Z" fill="#263238"/>
<path d="M82.8246 146.191L82.3369 151.031L87.0388 151.498L87.5265 146.657L82.8246 146.191Z" fill="#EA7063"/>
<path d="M116.713 157.583L111.983 157.399L112.509 162.282L117.239 162.466L116.713 157.583Z" fill="#EA7063"/>
<path d="M117.036 48.2275C117.036 48.2275 114.653 48.3547 111.425 72.3836L129.909 76.8897C131.734 70.3427 133.038 66.3505 141.011 53.9495C138.575 52.8507 136.05 51.9056 133.454 51.1215C130.716 50.2693 127.91 49.5857 125.059 49.0759C121.36 48.5056 117.036 48.2275 117.036 48.2275Z" fill="#263238"/>
<path d="M135.301 42.8165C134.008 45.0083 132.073 49.1372 133.454 51.1451C133.454 51.1451 131.936 53.3227 126.922 52.0878C121.404 50.7445 125.059 49.0901 125.059 49.0901C128.276 49.2079 128.829 47.266 128.895 45.3193L135.301 42.8165Z" fill="#FF8B7B"/>
<path d="M119.893 48.4632C121.405 48.6046 123.307 48.8167 125.06 49.0995C127.912 49.608 130.717 50.2917 133.456 51.1451C135.028 51.6165 136.552 52.1349 137.807 52.6204C137.549 53.4075 135.735 57.5035 124.945 55.1468C114.906 52.9221 118.747 49.2645 119.893 48.4632Z" fill="#FF8B7B"/>
<path d="M132.693 43.8346L128.907 45.3287C128.897 45.7813 128.842 46.2324 128.742 46.6768C129.937 46.8135 131.964 46.3515 132.43 45.3429C132.62 44.8572 132.709 44.3467 132.693 43.8346Z" fill="#EA7063"/>
<path d="M137.706 37.6553C136.572 41.5721 136.194 43.2548 133.432 44.9187C129.278 47.4262 123.924 45.39 123.672 41.2469C123.442 37.528 125.316 31.7447 130.177 30.8774C131.245 30.6824 132.354 30.7256 133.397 31.0027C134.44 31.2798 135.384 31.7818 136.139 32.4609C136.893 33.14 137.433 33.9737 137.707 34.8828C137.982 35.7919 137.981 36.7463 137.706 37.6553Z" fill="#FF8B7B"/>
<path d="M136.227 41.4355C134.852 40.8228 133.75 39.0788 135.734 37.4574C135.734 37.4574 132.994 36.1141 134.37 34.2617C135.745 32.4093 141.242 30.8681 142.102 33.3567C142.962 35.8454 140.288 36.8682 140.288 36.8682C140.288 36.8682 142.48 39.7528 138.54 40.7049C138.54 40.7049 138.2 44.8669 135.373 43.0145L136.227 41.4355Z" fill="#263238"/>
<path d="M137.658 41.346C137.397 42.0915 136.807 42.7193 136.014 43.0947C134.951 43.566 134.162 42.8166 134.239 41.8409C134.31 40.9595 134.951 39.6445 136.118 39.5643C136.374 39.5506 136.63 39.5921 136.862 39.6849C137.095 39.7778 137.297 39.9191 137.45 40.0961C137.603 40.273 137.702 40.48 137.738 40.6983C137.775 40.9166 137.747 41.1392 137.658 41.346Z" fill="#FF8B7B"/>
<path d="M111.425 72.3837C111.425 72.3837 89.9541 94.1643 86.3208 106.174C82.5396 118.665 80.8408 149.537 80.8408 149.537L88.2279 150.357C88.2279 150.357 93.1599 122.11 99.3687 110.6C105.978 98.3451 124.988 75.6925 124.988 75.6925L111.425 72.3837Z" fill="#407BFF"/>
<path d="M89.2159 150.461L79.8177 149.405L79.6533 147.19L89.9941 148.995L89.2159 150.461Z" fill="#407BFF"/>
<path opacity="0.3" d="M89.2159 150.461L79.8177 149.405L79.6533 147.19L89.9941 148.995L89.2159 150.461Z" fill="black"/>
<path opacity="0.2" d="M111.058 82.2865C109.301 87.6372 107.979 93.0864 107.102 98.5949C109.063 95.8611 111.129 93.0943 113.13 90.4737C113.858 89.0879 114.604 87.7163 115.322 86.3777C115.322 86.3777 115.322 86.3494 115.322 86.3306L111.058 82.2865Z" fill="black"/>
<path d="M116.307 73.5714C116.307 73.5714 110.093 101.084 107.846 116.892C106.027 129.666 111.753 160.647 111.753 160.647L117.913 160.972C117.913 160.972 116.614 133.304 119.475 120.932C126.719 89.63 133.493 85.4303 129.887 76.8896L116.307 73.5714Z" fill="#407BFF"/>
<path d="M118.675 161.01L110.702 160.59L110.329 158.639L118.966 159.412L118.675 161.01Z" fill="#407BFF"/>
<path opacity="0.3" d="M118.675 161.01L110.702 160.59L110.329 158.639L118.966 159.412L118.675 161.01Z" fill="black"/>
<path d="M130.495 76.0224L130.857 77.6485C130.884 77.7758 130.698 77.8512 130.484 77.7994L111.102 73.086C110.932 73.0483 110.817 72.9446 110.839 72.8503L111.14 71.3892C111.14 71.2855 111.332 71.2383 111.513 71.2807L130.232 75.8433C130.289 75.8534 130.343 75.8749 130.389 75.906C130.434 75.9371 130.471 75.977 130.495 76.0224Z" fill="#407BFF"/>
<path opacity="0.4" d="M130.495 76.0224L130.857 77.6485C130.884 77.7758 130.698 77.8512 130.484 77.7994L111.102 73.086C110.932 73.0483 110.817 72.9446 110.839 72.8503L111.14 71.3892C111.14 71.2855 111.332 71.2383 111.513 71.2807L130.232 75.8433C130.289 75.8534 130.343 75.8749 130.389 75.906C130.434 75.9371 130.471 75.977 130.495 76.0224Z" fill="black"/>
<path d="M127.388 77.2102L127.887 77.3328C127.985 77.3563 128.079 77.3328 128.09 77.2762L128.462 75.3908C128.462 75.3343 128.402 75.2683 128.303 75.2447L127.799 75.1222C127.7 75.0986 127.613 75.1222 127.602 75.1787L127.224 77.0641C127.213 77.1206 127.289 77.1866 127.388 77.2102Z" fill="#407BFF"/>
<path d="M112.455 73.5715L112.959 73.694C113.058 73.7176 113.151 73.694 113.162 73.6375L113.535 71.7521C113.535 71.7002 113.474 71.6343 113.37 71.6107L112.872 71.4881C112.773 71.4599 112.68 71.4881 112.669 71.5447L112.296 73.4301C112.285 73.4819 112.34 73.529 112.455 73.5715Z" fill="#407BFF"/>
<path d="M119.924 75.4144L120.423 75.5369C120.522 75.5369 120.615 75.5369 120.626 75.4804L120.998 73.595C120.998 73.5384 120.938 73.4725 120.839 73.4489L120.335 73.3263C120.237 73.2981 120.144 73.3263 120.133 73.3829L119.76 75.2683C119.749 75.3013 119.82 75.3672 119.924 75.4144Z" fill="#407BFF"/>
<path d="M130.479 37.6601C130.408 37.9806 130.156 38.2116 129.931 38.1739C129.707 38.1362 129.542 37.8392 129.613 37.5187C129.685 37.1982 129.937 36.9625 130.161 37.0049C130.386 37.0474 130.545 37.3349 130.479 37.6601Z" fill="#263238"/>
<path d="M126.238 36.9861C126.167 37.3113 125.915 37.5423 125.69 37.4999C125.465 37.4574 125.301 37.1699 125.372 36.8494C125.444 36.5289 125.696 36.2932 125.92 36.3309C126.145 36.3686 126.304 36.6656 126.238 36.9861Z" fill="#263238"/>
<path d="M126.041 36.3686L125.191 36.001C125.191 36.001 125.493 36.6797 126.041 36.3686Z" fill="#263238"/>
<path d="M127.241 37.7072C126.748 38.3898 126.148 39.0113 125.46 39.5549C125.627 39.7022 125.829 39.8165 126.052 39.8897C126.276 39.963 126.515 39.9935 126.753 39.9791L127.241 37.7072Z" fill="#FF5652"/>
<path d="M128.462 41.5298C128.24 41.5285 128.018 41.5096 127.799 41.4732C127.771 41.4686 127.746 41.4547 127.73 41.4344C127.713 41.4142 127.707 41.3892 127.712 41.3648C127.717 41.3393 127.734 41.3166 127.758 41.3016C127.783 41.2867 127.813 41.2806 127.843 41.2847C128.308 41.3668 128.789 41.3537 129.247 41.2465C129.705 41.1392 130.127 40.9408 130.479 40.6672C130.501 40.6518 130.528 40.6438 130.557 40.6448C130.585 40.6458 130.612 40.6556 130.632 40.6725C130.652 40.6894 130.665 40.7121 130.667 40.7364C130.669 40.7606 130.66 40.7846 130.643 40.8039C130.052 41.278 129.271 41.5379 128.462 41.5298Z" fill="#263238"/>
<path d="M132.069 36.6844C132.028 36.6846 131.988 36.6751 131.953 36.6567C131.918 36.6384 131.89 36.6121 131.872 36.5807C131.752 36.3615 131.574 36.1696 131.352 36.0206C131.131 35.8715 130.871 35.7695 130.595 35.7229C130.563 35.7229 130.532 35.7171 130.503 35.706C130.474 35.6949 130.448 35.6788 130.427 35.6585C130.406 35.6382 130.39 35.6144 130.381 35.5885C130.371 35.5626 130.368 35.5353 130.371 35.5083C130.375 35.4813 130.385 35.4552 130.401 35.4317C130.417 35.4083 130.439 35.388 130.464 35.3723C130.49 35.3565 130.519 35.3456 130.55 35.3402C130.581 35.3348 130.613 35.3351 130.644 35.3411C130.998 35.3916 131.332 35.5149 131.618 35.7003C131.904 35.8858 132.134 36.128 132.288 36.4063C132.315 36.452 132.32 36.5049 132.301 36.5534C132.283 36.602 132.242 36.6423 132.189 36.6655C132.152 36.6809 132.11 36.6874 132.069 36.6844Z" fill="#263238"/>
<path d="M124.709 35.0064C124.68 35.0063 124.652 35.0013 124.626 34.9916C124.599 34.9818 124.575 34.9677 124.556 34.9499C124.534 34.9323 124.517 34.911 124.505 34.8876C124.493 34.8641 124.487 34.8388 124.487 34.8132C124.487 34.7876 124.493 34.7623 124.505 34.7388C124.517 34.7153 124.534 34.6941 124.556 34.6765C124.798 34.4526 125.099 34.2815 125.433 34.1774C125.768 34.0734 126.126 34.0392 126.479 34.0779C126.536 34.0892 126.586 34.1189 126.619 34.161C126.652 34.2031 126.664 34.2543 126.654 34.3041C126.649 34.3291 126.638 34.353 126.622 34.3742C126.606 34.3954 126.585 34.4136 126.56 34.4277C126.536 34.4418 126.508 34.4515 126.479 34.4562C126.45 34.4608 126.42 34.4604 126.391 34.455C126.114 34.426 125.832 34.4535 125.57 34.5354C125.307 34.6173 125.07 34.7512 124.879 34.9263C124.859 34.9497 124.834 34.9691 124.804 34.9829C124.775 34.9968 124.742 35.0048 124.709 35.0064Z" fill="#263238"/>
<path d="M141.586 58.4131C141.959 59.8554 142.195 61.2129 142.414 62.6175C142.633 64.0221 142.748 65.4455 142.841 66.8313C143.035 69.706 142.864 72.5903 142.332 75.4332C142.114 76.3398 141.685 77.1991 141.071 77.9596C140.575 78.5981 140.026 79.2046 139.427 79.7743C138.287 80.8305 137.062 81.8164 135.761 82.7249C133.233 84.4857 130.551 86.0758 127.738 87.4807L126.385 85.7839C127.568 84.926 128.774 84.0446 129.925 83.1491C131.076 82.2535 132.232 81.3485 133.306 80.4059C134.378 79.4994 135.384 78.5377 136.32 77.526C136.749 77.0613 137.138 76.5697 137.482 76.0554C137.75 75.6775 137.936 75.2606 138.03 74.8252C138.188 73.5572 138.265 72.2826 138.26 71.0073C138.26 69.7065 138.178 68.4008 138.063 67.0905C137.948 65.7802 137.772 64.4699 137.569 63.1595C137.367 61.8492 137.115 60.52 136.852 59.2946L141.586 58.4131Z" fill="#FF8B7B"/>
<path d="M141.012 53.9496C142.7 54.8923 143.122 60.9113 143.122 60.9113L134.48 63.579C134.48 63.579 133.384 58.3613 134.825 56.5089C136.343 54.5435 139.078 52.8796 141.012 53.9496Z" fill="#263238"/>
<path d="M111.201 166.35C110.881 166.374 110.562 166.299 110.302 166.138C110.223 166.074 110.164 165.993 110.132 165.904C110.099 165.815 110.094 165.72 110.116 165.629C110.122 165.57 110.145 165.514 110.185 165.466C110.224 165.418 110.278 165.38 110.341 165.356C110.889 165.139 112.324 165.94 112.489 166.03C112.507 166.041 112.521 166.056 112.529 166.073C112.538 166.091 112.541 166.11 112.538 166.129C112.533 166.147 112.522 166.163 112.506 166.177C112.491 166.19 112.471 166.199 112.45 166.204C112.042 166.293 111.622 166.342 111.201 166.35ZM110.576 165.511C110.529 165.503 110.481 165.503 110.434 165.511C110.406 165.521 110.382 165.538 110.366 165.56C110.349 165.582 110.34 165.608 110.341 165.634C110.323 165.694 110.324 165.758 110.343 165.818C110.362 165.878 110.399 165.933 110.45 165.978C110.691 166.166 111.31 166.19 112.138 166.048C111.665 165.78 111.134 165.597 110.576 165.511Z" fill="#407BFF"/>
<path d="M112.428 166.209C112.41 166.213 112.391 166.213 112.373 166.209C111.919 165.987 111.058 165.11 111.168 164.653C111.183 164.577 111.23 164.508 111.299 164.459C111.369 164.41 111.456 164.383 111.546 164.384C111.63 164.375 111.717 164.381 111.798 164.403C111.879 164.425 111.954 164.462 112.017 164.512C112.532 164.903 112.565 166.077 112.565 166.124C112.565 166.141 112.56 166.157 112.551 166.172C112.541 166.187 112.527 166.2 112.51 166.209C112.497 166.213 112.483 166.216 112.469 166.216C112.455 166.216 112.441 166.213 112.428 166.209ZM111.623 164.559H111.568C111.425 164.559 111.398 164.625 111.387 164.672C111.321 164.95 111.858 165.615 112.308 165.921C112.319 165.465 112.166 165.017 111.869 164.639C111.802 164.587 111.714 164.558 111.623 164.559Z" fill="#407BFF"/>
<path d="M79.6412 155.01C79.3767 155.024 79.1133 154.97 78.8849 154.854C78.8025 154.804 78.7354 154.738 78.6896 154.661C78.6437 154.583 78.6205 154.498 78.6219 154.411C78.6178 154.357 78.6297 154.303 78.6566 154.255C78.6834 154.206 78.7243 154.164 78.7753 154.133C79.3233 153.803 81.2961 154.435 81.5153 154.51C81.5374 154.517 81.5563 154.53 81.5691 154.547C81.5819 154.564 81.588 154.584 81.5866 154.604C81.5865 154.624 81.579 154.644 81.5652 154.66C81.5514 154.676 81.532 154.688 81.5099 154.694C80.9074 154.874 80.2782 154.98 79.6412 155.01ZM79.2466 154.232C79.1271 154.224 79.0074 154.245 78.9014 154.293C78.8815 154.305 78.8659 154.322 78.8562 154.341C78.8465 154.36 78.8432 154.381 78.8466 154.402C78.8441 154.459 78.8583 154.517 78.888 154.568C78.9176 154.62 78.9618 154.665 79.0165 154.698C79.3288 154.887 80.1124 154.849 81.1262 154.595C80.5224 154.399 79.8898 154.277 79.2466 154.232Z" fill="#407BFF"/>
<path d="M81.4835 154.698H81.4506C80.8588 154.538 79.6313 153.779 79.6587 153.313C79.6587 153.2 79.7299 153.058 80.0368 152.997C80.1463 152.977 80.2594 152.975 80.3696 152.993C80.4797 153.011 80.5845 153.047 80.6779 153.101C81.3246 153.464 81.5821 154.538 81.5931 154.585C81.5967 154.601 81.5955 154.618 81.5898 154.634C81.5841 154.649 81.5739 154.663 81.5602 154.675C81.5391 154.691 81.5116 154.699 81.4835 154.698ZM80.2231 153.167C80.1776 153.162 80.1316 153.162 80.0861 153.167C79.8833 153.204 79.8833 153.275 79.8779 153.299C79.8779 153.581 80.7108 154.189 81.3246 154.43C81.2162 153.975 80.9462 153.56 80.5519 153.242C80.4505 153.197 80.3367 153.178 80.2231 153.185V153.167Z" fill="#407BFF"/>
<path opacity="0.6" d="M101.665 35.5768C95.2881 34.3006 88.6296 34.5219 82.3861 36.2173C76.1426 37.9128 70.5435 41.0202 66.1746 45.2144C61.8056 49.4087 58.8274 54.5357 57.5513 60.0591C56.2753 65.5825 56.7484 71.2993 58.9211 76.6116L48.2734 86.3589L64.3792 85.2843C67.9392 89.2935 72.5688 92.5068 77.8769 94.6528C83.185 96.7988 89.0156 97.8144 94.8762 97.6138C100.737 97.4133 106.455 96.0024 111.548 93.5005C116.641 90.9985 120.96 87.479 124.138 83.2392C127.316 78.9994 129.262 74.1639 129.81 69.1412C130.357 64.1185 129.492 59.0562 127.286 54.3819C125.08 49.7076 121.598 45.5586 117.135 42.2856C112.672 39.0125 107.358 36.7114 101.643 35.5768H101.665Z" fill="#407BFF"/>
<path opacity="0.1" d="M101.665 35.5768C95.2881 34.3006 88.6296 34.5219 82.3861 36.2173C76.1426 37.9128 70.5435 41.0202 66.1746 45.2144C61.8056 49.4087 58.8274 54.5357 57.5513 60.0591C56.2753 65.5825 56.7484 71.2993 58.9211 76.6116L48.2734 86.3589L64.3792 85.2843C67.9392 89.2935 72.5688 92.5068 77.8769 94.6528C83.185 96.7988 89.0156 97.8144 94.8762 97.6138C100.737 97.4133 106.455 96.0024 111.548 93.5005C116.641 90.9985 120.96 87.479 124.138 83.2392C127.316 78.9994 129.262 74.1639 129.81 69.1412C130.357 64.1185 129.492 59.0562 127.286 54.3819C125.08 49.7076 121.598 45.5586 117.135 42.2856C112.672 39.0125 107.358 36.7114 101.643 35.5768H101.665Z" fill="black"/>
<path d="M93.4564 96.1109C88.1073 96.11 82.8302 95.0505 78.0333 93.0146C73.2364 90.9786 69.0484 88.0208 65.7934 84.3698L65.2125 83.6911L52.9264 84.5112C52.911 84.5105 52.8961 84.5067 52.8828 84.5002C52.8695 84.4936 52.8581 84.4845 52.8496 84.4735C52.8419 84.4621 52.8379 84.449 52.8379 84.4358C52.8379 84.4226 52.8419 84.4096 52.8496 84.3981L60.9655 76.9839L60.6093 76.1025C58.7678 71.5955 58.2089 66.7744 58.9793 62.0433C59.7497 57.3123 61.827 52.8088 65.0373 48.9103C68.2475 45.0118 72.4972 41.8318 77.4303 39.6365C82.3635 37.4413 87.8364 36.2948 93.3907 36.2932C98.6252 36.2911 103.793 37.3052 108.508 39.26C113.224 41.2147 117.365 44.0597 120.624 47.5829C123.883 51.106 126.176 55.2164 127.331 59.6077C128.486 63.999 128.474 68.5579 127.295 72.9445C125.555 79.5384 121.255 85.4256 115.104 89.6365C108.953 93.8475 101.318 96.131 93.4564 96.1109ZM65.2454 83.5544C65.2573 83.5548 65.269 83.5575 65.2794 83.5624C65.2899 83.5673 65.2989 83.5743 65.3057 83.5827L65.9194 84.2756C69.1563 87.9141 73.3241 90.8625 78.0996 92.8921C82.875 94.9217 88.1298 95.9779 93.4564 95.9789C101.953 95.97 110.149 93.2737 116.484 88.4035C122.819 83.5333 126.85 76.8294 127.81 69.5682C128.77 62.307 126.591 54.9958 121.689 49.0267C116.787 43.0576 109.504 38.8475 101.227 37.1981C98.6574 36.6859 96.0284 36.4265 93.3907 36.4251C87.8624 36.4294 82.4158 37.5728 77.5068 39.7596C72.5979 41.9463 68.3694 45.1128 65.1756 48.9939C61.9817 52.875 59.9153 57.3577 59.1495 62.0668C58.3836 66.7758 58.9406 71.5742 60.7737 76.0601L61.1464 76.9792C61.1544 76.9888 61.1587 77.0004 61.1587 77.0122C61.1587 77.024 61.1544 77.0356 61.1464 77.0452L53.1182 84.3698L65.2399 83.5591L65.2454 83.5544Z" fill="white"/>
<path d="M106.103 60.85C106.189 60.6794 106.206 60.4892 106.153 60.3092C106.099 60.1292 105.978 59.9696 105.807 59.8554C103.916 58.6703 101.759 57.8372 99.4723 57.4092C95.5564 56.6328 91.4424 57.2246 88.0333 59.0547C84.6243 60.8849 82.1989 63.8038 81.2897 67.1706C80.0293 71.851 83.0159 75.0279 86.6163 75.7443C88.104 76.0671 89.6593 76.0838 91.156 75.7931C92.6527 75.5024 94.0487 74.9124 95.2308 74.071C95.261 75.0755 95.6893 76.0409 96.4448 76.8072C97.2003 77.5736 98.2375 78.0949 99.3847 78.2848C105.013 79.4066 111.89 76.1591 114.142 67.7881C116.57 58.7761 110.893 51.0131 100.344 48.9345C87.6739 46.4128 75.7933 53.1388 72.7135 64.583C70.1489 74.1229 76.1166 82.6023 86.9012 84.7516C91.1811 85.6047 94.6938 85.6189 98.2887 84.8034C98.5162 84.7514 98.714 84.6299 98.8451 84.4616C98.9761 84.2934 99.0316 84.0899 99.0011 83.889L98.6503 81.5323C98.6311 81.4133 98.5826 81.2991 98.5079 81.1975C98.4333 81.0959 98.3342 81.0092 98.2174 80.9432C98.1014 80.8759 97.9694 80.8317 97.831 80.8137C97.6926 80.7958 97.5513 80.8046 97.4173 80.8395C94.5402 81.4671 91.5265 81.4671 88.6493 80.8395C80.254 79.1662 75.9851 72.9304 78.0346 65.3135C80.5006 56.1366 89.2521 50.8623 98.8586 52.7712C106.98 54.3879 110.821 59.8413 108.887 67.0669C108.038 70.2202 106.289 72.69 104.087 73.8495C103.277 74.3335 102.278 74.5216 101.308 74.3727C101.163 74.3524 101.025 74.3018 100.908 74.2254C100.79 74.149 100.696 74.0491 100.634 73.9343C100.398 73.5196 100.229 72.3931 101.73 69.5509L106.103 60.85ZM97.6201 61.5522C98.233 61.6727 98.8312 61.8432 99.4066 62.0613L97.0173 66.7747C95.6692 69.499 91.9483 72.2422 89.1809 71.6908C86.6546 71.1911 86.7861 69.2351 87.0875 68.118C88.2822 63.6591 93.1101 60.6567 97.6201 61.5522Z" fill="white"/>
<path d="M127.411 85.4256L123.257 83.3989L124.139 87.4665C124.139 87.4665 127.022 88.2867 128.446 87.1177L127.411 85.4256Z" fill="#FF8B7B"/>
<path d="M119.321 83.9032L120.275 87.2733L124.138 87.4665L123.256 83.3989L119.321 83.9032Z" fill="#FF8B7B"/>
<path d="M130.266 37.0379L129.411 36.6702C129.411 36.6702 129.745 37.349 130.266 37.0379Z" fill="#263238"/>
<path d="M136.141 35.1761C133.795 35.0489 132.074 34.1627 131.844 32.9985C131.844 32.9985 126.463 34.9216 124.287 32.0558C124.287 32.0558 121.832 32.4046 121.224 30.9341C120.616 29.4635 123.169 29.0487 124.375 29.7086C124.375 29.7086 120.638 26.8805 124.474 26.0934C128.31 25.3063 129.132 27.9788 129.132 27.9788C129.132 27.9788 130.644 24.0761 134.064 25.8106C137.483 27.5451 135.357 29.2231 135.357 29.2231C135.357 29.2231 143.478 29.7651 140.453 32.5225C137.428 35.2798 136.141 35.1761 136.141 35.1761Z" fill="#263238"/>
<path d="M133.204 48.7224C133.664 48.7601 133.462 50.1365 133.253 50.2307C132.777 50.4523 127.034 49.4389 127.225 48.6753C127.424 48.3085 127.699 47.9762 128.036 47.6949C128.289 47.5347 129.165 48.4349 133.204 48.7224Z" fill="#263238"/>
<path d="M163.193 59.5163C160.869 59.51 158.628 60.2633 156.925 61.6237C155.222 62.9842 154.183 64.8502 154.019 66.8443C153.855 68.8384 154.577 70.8118 156.04 72.3652C157.503 73.9186 159.597 74.9361 161.9 75.2119C161.946 77.2033 161.134 79.139 159.62 80.6464C159.62 80.6464 172.366 77.9174 172.366 67.4065C172.366 65.3139 171.4 63.307 169.679 61.8273C167.959 60.3476 165.626 59.5163 163.193 59.5163Z" fill="#407BFF"/>
<path d="M183.837 59.5163C181.513 59.51 179.273 60.2633 177.57 61.6237C175.867 62.9842 174.828 64.8502 174.664 66.8443C174.499 68.8384 175.222 70.8118 176.685 72.3652C178.148 73.9187 180.242 74.9362 182.544 75.2119C182.598 77.2003 181.796 79.1356 180.292 80.6465C180.292 80.6465 193.038 77.9174 193.038 67.4065C193.039 66.3682 192.801 65.34 192.339 64.3809C191.876 63.4218 191.198 62.5507 190.343 61.8175C189.488 61.0844 188.474 60.5038 187.357 60.1088C186.241 59.7139 185.045 59.5126 183.837 59.5163Z" fill="#407BFF"/>
</svg>
